<svg xmlns="http://www.w3.org/2000/svg" width="28.625" height="28.625" viewBox="0 0 28.625 28.625">
  <path id="Icon_ionic-logo-facebook" data-name="Icon ionic-logo-facebook" d="M30.794,3.75H5.33A1.581,1.581,0,0,0,3.75,5.33V30.794a1.581,1.581,0,0,0,1.58,1.58H18.062V21.044H14.641V16.87h3.422V13.784c0-3.7,2.564-5.71,5.867-5.71,1.58,0,3.28.119,3.675.171v3.861H24.972c-1.8,0-2.139.85-2.139,2.1V16.87h4.279l-.559,4.174h-3.72V32.375h7.961a1.581,1.581,0,0,0,1.58-1.58V5.33A1.581,1.581,0,0,0,30.794,3.75Z" transform="translate(-3.75 -3.75)" fill="#2c2c2c"/>
</svg>
