<svg id="Group_1968" data-name="Group 1968" xmlns="http://www.w3.org/2000/svg" width="28.635" height="28.635" viewBox="0 0 28.635 28.635">
  <rect id="Rectangle_347" data-name="Rectangle 347" width="27.176" height="27.176" rx="10" transform="translate(0.937 0.522)" fill="#2c2c2c"/>
  <g id="Icon_ionic-logo-instagram" data-name="Icon ionic-logo-instagram" transform="translate(0 0)">
    <path id="Path_1541" data-name="Path 1541" d="M24.033,6.136A5.983,5.983,0,0,1,30,12.1V24.033A5.983,5.983,0,0,1,24.033,30H12.1a5.983,5.983,0,0,1-5.966-5.966V12.1A5.983,5.983,0,0,1,12.1,6.136H24.033m0-2.386H12.1A8.376,8.376,0,0,0,3.75,12.1V24.033A8.376,8.376,0,0,0,12.1,32.385H24.033a8.376,8.376,0,0,0,8.352-8.352V12.1A8.376,8.376,0,0,0,24.033,3.75Z" transform="translate(-3.75 -3.75)" fill="#2c2c2c"/>
    <path id="Path_1542" data-name="Path 1542" d="M21.477,11.079a1.79,1.79,0,1,1,1.79-1.79A1.785,1.785,0,0,1,21.477,11.079Z" transform="translate(0.596 -2.728)" fill="#fff"/>
    <path id="Path_1543" data-name="Path 1543" d="M16.534,11.761a4.772,4.772,0,1,1-4.772,4.772,4.777,4.777,0,0,1,4.772-4.772m0-2.386a7.159,7.159,0,1,0,7.159,7.159,7.161,7.161,0,0,0-7.159-7.159Z" transform="translate(-2.216 -2.216)" fill="#fff"/>
  </g>
</svg>
