<svg xmlns="http://www.w3.org/2000/svg" width="29.102" height="29.102" viewBox="0 0 29.102 29.102">
  <path id="Icon_awesome-line" data-name="Icon awesome-line" d="M17.675,13.436v4.619a.205.205,0,0,1-.208.208h-.741a.215.215,0,0,1-.169-.084L14.44,15.32v2.741a.205.205,0,0,1-.208.208h-.741a.205.205,0,0,1-.208-.208V13.442a.205.205,0,0,1,.208-.208h.734a.2.2,0,0,1,.169.091l2.118,2.858V13.442a.205.205,0,0,1,.208-.208h.741a.205.205,0,0,1,.214.2Zm-5.327-.208h-.741a.205.205,0,0,0-.208.208v4.619a.205.205,0,0,0,.208.208h.741a.205.205,0,0,0,.208-.208V13.436a.209.209,0,0,0-.208-.208ZM10.562,17.1H8.542V13.436a.205.205,0,0,0-.208-.208H7.594a.205.205,0,0,0-.208.208v4.619a.191.191,0,0,0,.058.143.219.219,0,0,0,.143.058h2.969a.205.205,0,0,0,.208-.208v-.741a.208.208,0,0,0-.2-.208Zm11.011-3.872H18.6a.209.209,0,0,0-.208.208v4.619a.209.209,0,0,0,.208.208h2.969a.205.205,0,0,0,.208-.208v-.741a.205.205,0,0,0-.208-.208h-2.02v-.78h2.02a.205.205,0,0,0,.208-.208v-.747a.205.205,0,0,0-.208-.208h-2.02v-.78h2.02a.205.205,0,0,0,.208-.208v-.741a.218.218,0,0,0-.208-.208ZM29.1,7.557V26.09a5.291,5.291,0,0,1-5.307,5.262H5.262A5.3,5.3,0,0,1,0,26.044V7.512A5.3,5.3,0,0,1,5.307,2.25H23.84A5.291,5.291,0,0,1,29.1,7.557Zm-4,7.964c0-4.742-4.755-8.6-10.595-8.6s-10.595,3.859-10.595,8.6c0,4.248,3.768,7.808,8.86,8.484,1.241.266,1.1.721.818,2.39-.045.266-.214,1.046.916.572a34.24,34.24,0,0,0,8.328-6.152A7.674,7.674,0,0,0,25.1,15.521Z" transform="translate(0 -2.25)" fill="#2c2c2c"/>
</svg>
