<svg xmlns="http://www.w3.org/2000/svg" width="249.769" height="24.488" viewBox="0 0 249.769 24.488">
  <g id="Group_1450" data-name="Group 1450" transform="translate(-77.616 -169.962)">
    <g id="Group_1" data-name="Group 1" transform="translate(77.616 169.962)">
      <g id="Group_1434" data-name="Group 1434">
        <path id="Path_1" data-name="Path 1" d="M49.178,34.16v6.127c0,2.942,0,3.856,2.976,3.856v.679H40v-.679c3.386,0,3.386-.914,3.386-3.856V25.318c0-2.957,0-3.848-3.386-3.848v-.682H52.042v.682c-2.863,0-2.863.9-2.863,3.856v7.022l8.665-6.914c1.579-1.352,2.147-1.928,2.147-2.617,0-1.244-1.35-1.347-2.717-1.347v-.682H66.7v.682c-1.588,0-2.617.789-4.325,2.153l-8.063,6.449,8.28,10.215c1.949,2.5,3.188,3.856,5.361,3.856v.679H55.336v-.679c.686,0,1.938-.113,1.938-1.009,0-.8-1.373-2.5-1.938-3.069L50.1,33.486Z" transform="translate(-40 -20.334)"/>
        <path id="Path_2" data-name="Path 2" d="M63.5,38.2l-.919,1.928a6.748,6.748,0,0,0-.668,2.266c0,1.7,1.342,1.817,3.179,1.93V45h-7.97v-.679c2.39-.113,3.539-3.069,4.329-4.986L67.7,25.393v3.28l-3.637,8.164H67.7V38.2Zm4.2-12.8,2.155-4.883h.46l8.763,20.069c.676,1.582,1.584,3.74,3.623,3.74V45H71v-.679c1.019,0,2.831,0,2.831-1.128a2.756,2.756,0,0,0-.331-1.368L71.9,38.2H67.7V36.837h3.647L67.7,28.673Z" transform="translate(-29.172 -20.51)"/>
        <path id="Path_3" data-name="Path 3" d="M82.517,40.287c0,2.953,0,3.856,3.417,3.856v.679H73.414v-.679c3.539,0,3.539-.9,3.539-3.856V25.326c0-2.953,0-3.863-3.539-3.863v-.676h12.74v1.471H82.517V32.692h1.7a9.325,9.325,0,0,0,1.933-.214v4.3l-2.042-2.846h-1.6Zm3.637-19.5h.686c5.466,0,8.976,2.145,8.976,6.8,0,3.068-2.478,5.335-5.459,5.9l6.259,8.621c.922,1.352,1.482,2.036,2.842,2.036v.679H91.834l-5.68-8.042v-4.3c2.85-.576,3.763-2.406,3.763-4.893,0-3.285-1.259-4.878-3.763-5.327Z" transform="translate(-18.864 -20.334)"/>
        <path id="Path_4" data-name="Path 4" d="M112.579,20.788h9.79v.682c-3.42,0-3.42.9-3.42,3.856V40.287c0,2.942,0,3.856,3.42,3.856v.679H109.748v-.679c3.409,0,3.409-.914,3.409-3.856V23.062l-9.1,21.76H103.6L94.283,23.281V41.195c0,2.034.914,2.948,3.41,2.948v.679H89.511v-.679c2.382,0,3.4-.914,3.4-2.948V25.326c0-2.953,0-3.856-3.4-3.856v-.682h9.771L106.1,36.661Z" transform="translate(-8.682 -20.334)"/>
        <path id="Path_5" data-name="Path 5" d="M116.746,38.2l-.911,1.928a6.418,6.418,0,0,0-.686,2.266c0,1.7,1.371,1.817,3.185,1.93V45h-8.073v-.679c2.508-.113,3.636-3.069,4.437-4.986l6.251-13.94v3.28l-3.642,8.164h3.642V38.2Zm4.2-12.8,2.166-4.883h.344l8.86,20.069c.674,1.582,1.6,3.74,3.644,3.74V45H124.256v-.679c1.011,0,2.852,0,2.852-1.128a2.732,2.732,0,0,0-.353-1.368L125.167,38.2H120.95V36.837h3.639l-3.639-8.164Z" transform="translate(4.443 -20.51)"/>
        <path id="Path_6" data-name="Path 6" d="M126.006,44.867V20.717h2.382V33.191l12.395-12.474h2.62l-9.671,9.635,11.256,14.515h-2.723L132.13,31.722l-3.743,3.732v9.413Z" transform="translate(14.402 -20.379)"/>
        <path id="Path_7" data-name="Path 7" d="M138.405,44.867l9.536-24.15H149.2v2.145l-4.888,12.592H149.2v1.809H143.74l-2.948,7.6ZM149.2,20.717h1.371l9.328,24.15h-2.29l-2.842-7.6H149.2V35.454h4.783l-4.783-12.8V20.717Z" transform="translate(22.245 -20.379)"/>
        <path id="Path_8" data-name="Path 8" d="M153.507,44.867V20.717h3.541l7.945,21.423,7.85-21.423h3.526v24.15H173.99V23.21l-7.958,21.657h-2.175L155.9,23.21V44.867Z" transform="translate(31.797 -20.379)"/>
        <path id="Path_9" data-name="Path 9" d="M170.847,44.867V20.717H187v1.818h-13.86v8.733h12.511v2.039H173.136v9.752H187.33v1.808Z" transform="translate(42.766 -20.379)"/>
        <path id="Path_10" data-name="Path 10" d="M182.07,20.717H199.9v1.818h-7.727V44.867H189.8V22.535H182.07Z" transform="translate(49.864 -20.379)"/>
      </g>
    </g>
  </g>
</svg>
