<svg id="Group_1964" data-name="Group 1964" xmlns="http://www.w3.org/2000/svg" width="225.269" height="22.15" viewBox="0 0 225.269 22.15">
  <g id="Group_1962" data-name="Group 1962">
    <path id="Path_1449" data-name="Path 1449" d="M45.012,18.152,37.116,0H36.7L34.755,4.413l-5.64,12.612c-.719,1.741-1.741,4.413-3.9,4.512-1.946,0-3.074-1.233-4.822-3.483L12.922,8.819,20.2,2.975c1.537-1.233,2.46-1.946,3.9-1.946V.409H15.586v.614c1.233,0,2.46.1,2.46,1.227,0,.614-.514,1.128-1.946,2.361L8.3,10.87V4.512c0-2.665,0-3.483,2.566-3.483V.409H0v.614c3.08,0,3.08.818,3.08,3.483V18.041c0,2.665,0,3.483-3.08,3.483v.614H10.969v-.614c-2.665,0-2.665-.818-2.665-3.483V12.5l.818-.614,4.716,5.95c.514.514,1.741,2.051,1.741,2.77,0,.818-1.128.923-1.741.923v.614H32.4V21.53c-1.642-.105-2.869-.2-2.869-1.741a5.755,5.755,0,0,1,.614-2.051L30.962,16h7.586l1.438,3.278a2.443,2.443,0,0,1,.3,1.233c0,1.023-1.642,1.023-2.56,1.023v.614H48.29V21.53C46.45,21.536,45.631,19.584,45.012,18.152ZM34.761,14.768H31.483l3.278-7.381,3.278,7.381Z" fill="#fff"/>
    <path id="Path_1450" data-name="Path 1450" d="M100.336,19.944l-5.64-7.79c2.665-.514,4.921-2.566,4.921-5.33,0-4.2-3.179-6.154-8.1-6.154H79.42v.614c3.179,0,3.179.818,3.179,3.483V18.3c0,2.665,0,3.483-3.179,3.483V22.4H90.7v-.614c-3.074,0-3.074-.818-3.074-3.483V12.557h1.438l1.847,2.566L96.035,22.4h6.873v-.614C101.669,21.791,101.154,21.171,100.336,19.944ZM90.9,11.23a8,8,0,0,1-1.741.2H87.625V2H90.91c2.256.409,3.384,1.847,3.384,4.822C94.288,9.074,93.463,10.716,90.9,11.23Z" transform="translate(-30.2 -0.255)" fill="#fff"/>
    <path id="Path_1451" data-name="Path 1451" d="M132.6,15.019,126.449.666H117.63V1.28c3.074,0,3.074.818,3.074,3.483V19.116c0,1.847-.923,2.665-3.074,2.665v.614h7.381v-.614c-2.256,0-3.08-.818-3.08-2.665V2.916l8.41,19.485h.409l8.205-19.689V18.3c0,2.665,0,3.483-3.08,3.483v.614h11.378v-.614c-3.074,0-3.074-.818-3.074-3.483V4.763c0-2.665,0-3.483,3.074-3.483V.66h-8.819Z" transform="translate(-44.73 -0.251)" fill="#fff"/>
    <path id="Path_1452" data-name="Path 1452" d="M205.8.31h-2.361L192.269,11.589V.31h-2.15V21.536c-1.847,0-2.665-1.946-3.285-3.384L178.833,0h-.31l-1.946,4.413-5.64,12.612c-.719,1.741-1.741,4.413-4,4.512v.614h7.282v-.614c-1.642-.105-2.869-.2-2.869-1.741a5.884,5.884,0,0,1,.614-2.051L172.79,16h7.586l1.438,3.278a2.443,2.443,0,0,1,.3,1.233c0,1.023-1.636,1.023-2.56,1.023v.614h12.711V13.64l3.384-3.384,9.123,11.893h2.46L197.084,9.023ZM176.577,14.768h-3.285l3.285-7.381,3.278,7.381Z" transform="translate(-63.481)" fill="#fff"/>
    <path id="Path_1453" data-name="Path 1453" d="M243.526.5H242.4L233.79,22.34h2.151l2.665-6.873h9.947l2.566,6.873h2.051L244.753.5Zm0,13.331H239.12l4.406-11.385v-.2l4.307,11.589Z" transform="translate(-88.901 -0.19)" fill="#fff"/>
    <path id="Path_1454" data-name="Path 1454" d="M280.036,19.879,272.859.5H269.68V22.34h2.157V2.756l7.177,19.584h1.946l7.183-19.584V22.34h2.151V.5h-3.179Z" transform="translate(-102.548 -0.19)" fill="#fff"/>
    <path id="Path_1455" data-name="Path 1455" d="M312.931,11.878h11.279V10.032H312.931v-7.9h12.506V.5H310.88V22.34h14.868V20.7H312.931Z" transform="translate(-118.215 -0.19)" fill="#fff"/>
    <path id="Path_1456" data-name="Path 1456" d="M337.52.5V2.136h6.972v20.2h2.151V2.136h6.972V.5Z" transform="translate(-128.345 -0.19)" fill="#fff"/>
  </g>
</svg>
