<svg id="work_outline_black_24dp" xmlns="http://www.w3.org/2000/svg" width="35.182" height="35.182" viewBox="0 0 35.182 35.182">
  <path id="Path_1459" data-name="Path 1459" d="M0,0H35.182V35.182H0Z" fill="none"/>
  <path id="Path_1460" data-name="Path 1460" d="M19.591,7.864V4.932H13.727V7.864ZM4.932,10.8V26.92H28.386V10.8ZM28.386,7.864A2.922,2.922,0,0,1,31.318,10.8V26.92a2.922,2.922,0,0,1-2.932,2.932H4.932A2.922,2.922,0,0,1,2,26.92L2.015,10.8A2.909,2.909,0,0,1,4.932,7.864H10.8V4.932A2.922,2.922,0,0,1,13.727,2h5.864a2.922,2.922,0,0,1,2.932,2.932V7.864Z" transform="translate(0.932 0.932)" stroke="#fff" stroke-width="0.7"/>
</svg>
