<svg xmlns="http://www.w3.org/2000/svg" width="25.032" height="25.032" viewBox="0 0 25.032 25.032">
  <path id="Icon_material-language" data-name="Icon material-language" d="M15.254,3A12.266,12.266,0,1,0,27.532,15.266,12.26,12.26,0,0,0,15.254,3Zm8.5,7.36H20.136a19.2,19.2,0,0,0-1.693-4.367A9.849,9.849,0,0,1,23.754,10.36ZM15.266,5.5a17.279,17.279,0,0,1,2.343,4.857H12.923A17.279,17.279,0,0,1,15.266,5.5ZM5.772,17.719a9.595,9.595,0,0,1,0-4.906H9.918a20.258,20.258,0,0,0-.172,2.453,20.258,20.258,0,0,0,.172,2.453Zm1.006,2.453H10.4a19.2,19.2,0,0,0,1.693,4.367A9.8,9.8,0,0,1,6.778,20.172ZM10.4,10.36H6.778a9.8,9.8,0,0,1,5.311-4.367A19.2,19.2,0,0,0,10.4,10.36Zm4.87,14.67a17.279,17.279,0,0,1-2.343-4.857h4.686A17.279,17.279,0,0,1,15.266,25.03Zm2.87-7.311H12.4a18.047,18.047,0,0,1-.2-2.453,17.89,17.89,0,0,1,.2-2.453h5.74a17.889,17.889,0,0,1,.2,2.453A18.046,18.046,0,0,1,18.136,17.719Zm.307,6.82a19.2,19.2,0,0,0,1.693-4.367h3.618A9.849,9.849,0,0,1,18.443,24.539Zm2.171-6.82a20.257,20.257,0,0,0,.172-2.453,20.257,20.257,0,0,0-.172-2.453H24.76a9.595,9.595,0,0,1,0,4.906Z" transform="translate(-2.75 -2.75)" stroke="#fff" stroke-width="0.5"/>
</svg>
