<svg id="Icon_ionic-ios-menu" data-name="Icon ionic-ios-menu" xmlns="http://www.w3.org/2000/svg" width="25.996" height="15.164" viewBox="0 0 25.996 15.164">
  <path id="Path_566" data-name="Path 566" d="M29.413,12.075H5.583A1.036,1.036,0,0,1,4.5,11.1h0a1.036,1.036,0,0,1,1.083-.975h23.83A1.036,1.036,0,0,1,30.5,11.1h0A1.036,1.036,0,0,1,29.413,12.075Z" transform="translate(-4.5 -10.125)"/>
  <path id="Path_567" data-name="Path 567" d="M22.9,18.825H5.3a.9.9,0,0,1-.8-.975h0a.9.9,0,0,1,.8-.975H22.9a.9.9,0,0,1,.8.975h0A.9.9,0,0,1,22.9,18.825Z" transform="translate(-4.5 -10.268)"/>
  <path id="Path_568" data-name="Path 568" d="M16.957,25.575H5.042c-.3,0-.542-.439-.542-.975h0c0-.536.244-.975.542-.975H16.957c.3,0,.542.439.542.975h0C17.5,25.136,17.254,25.575,16.957,25.575Z" transform="translate(-4.5 -10.41)"/>
</svg>
