<svg xmlns="http://www.w3.org/2000/svg" width="20.24" height="28.7" viewBox="0 0 20.24 28.7">
  <path id="Icon_material-lightbulb-outline" data-name="Icon material-lightbulb-outline" d="M13.14,29.79a1.414,1.414,0,0,0,1.41,1.41h5.64a1.414,1.414,0,0,0,1.41-1.41V28.38H13.14ZM17.37,3a9.866,9.866,0,0,0-5.64,17.963V24.15a1.414,1.414,0,0,0,1.41,1.41H21.6a1.414,1.414,0,0,0,1.41-1.41V20.963A9.866,9.866,0,0,0,17.37,3Zm4.018,15.651-1.2.846V22.74H14.55V19.5l-1.2-.846a7.05,7.05,0,1,1,8.037,0Z" transform="translate(-7.25 -2.75)" stroke="#fff" stroke-width="0.5"/>
</svg>
