<?xml version="1.0" encoding="UTF-8" standalone="no"?>
<svg width="186px" height="38px" viewBox="0 0 186 38" version="1.1" xmlns="http://www.w3.org/2000/svg" xmlns:xlink="http://www.w3.org/1999/xlink" xmlns:sketch="http://www.bohemiancoding.com/sketch/ns">
    <!-- Generator: Sketch 3.4.4 (17249) - http://www.bohemiancoding.com/sketch -->
    <title>Imported Layers</title>
    <desc>Created with Sketch.</desc>
    <defs></defs>
    <g id="Home-EN" stroke="none" stroke-width="1" fill="none" fill-rule="evenodd" sketch:type="MSPage">
        <g id="HD-07-Home_Large-Devices-(-≥-1200px-)" sketch:type="MSArtboardGroup" transform="translate(-626.000000, -45.000000)" fill="#000000">
            <g id="Imported-Layers" sketch:type="MSLayerGroup" transform="translate(626.000000, 45.000000)">
                <path d="M46.468,29.907 C46.287,29.907 46.004,30.001 45.817,30.176 C45.638,30.364 45.446,30.553 45.446,30.823 C45.446,31.377 45.731,31.824 46.372,32.115 L47.025,32.381 C47.479,32.567 47.747,32.945 48.023,33.307 C48.303,33.676 48.398,34.132 48.398,34.5 C48.398,34.868 48.303,35.236 48.216,35.515 C48.023,35.785 47.841,36.059 47.566,36.242 C47.29,36.428 46.924,36.517 46.468,36.517 C46.192,36.517 45.911,36.428 45.542,36.335 C45.182,36.158 44.897,36.059 44.812,36.059 L44.812,35.688 C44.897,35.515 44.897,35.424 44.897,35.323 C44.897,34.961 44.812,34.592 44.812,34.226 L45.266,34.226 L45.266,34.68 C45.266,35.049 45.362,35.424 45.638,35.688 C45.911,35.966 46.192,36.059 46.564,36.059 C46.924,36.059 47.206,35.966 47.39,35.785 C47.653,35.515 47.747,35.236 47.747,34.868 C47.747,34.316 47.39,33.852 46.743,33.486 L46.004,33.031 C45.182,32.567 44.812,32.012 44.812,31.285 C44.812,30.92 44.897,30.553 45.086,30.364 C45.266,30.09 45.446,29.907 45.638,29.814 C45.911,29.628 46.192,29.628 46.564,29.628 C46.743,29.628 47.025,29.628 47.479,29.72 L47.841,29.72 L47.841,31.008 L47.39,31.008 L47.39,30.92 C47.39,30.823 47.39,30.643 47.29,30.553 C47.29,30.364 47.206,30.176 47.025,30.09 C46.924,30.001 46.743,29.907 46.468,29.907" id="Fill-1" sketch:type="MSShapeGroup"></path>
                <path d="M50.971,30.09 L50.971,29.72 C51.608,29.72 52.345,29.814 53.174,29.814 C54.092,29.814 54.823,29.72 55.472,29.72 L55.567,31.192 L55.191,31.192 L55.191,30.823 C55.1,30.545 55.011,30.451 54.915,30.364 C54.738,30.275 54.549,30.176 54.366,30.176 L52.9,30.176 L52.9,32.757 L54.549,32.664 C54.738,32.664 54.823,32.664 54.915,32.567 C55.011,32.567 55.1,32.471 55.1,32.293 L55.1,31.924 L55.472,31.924 C55.472,32.293 55.38,32.471 55.38,32.664 C55.472,33.117 55.472,33.486 55.472,33.848 L55.1,33.848 L55.1,33.486 C55.1,33.213 54.915,33.117 54.549,33.117 L52.993,33.031 L52.993,35.328 C53.081,35.515 53.081,35.608 53.174,35.688 C53.255,35.785 53.442,35.785 53.63,35.785 L54.738,35.785 C55.1,35.785 55.38,35.688 55.472,35.424 C55.655,35.143 55.655,34.868 55.655,34.592 L56.108,34.592 L55.936,36.242 C54.915,36.242 54.092,36.154 53.63,36.154 C52.807,36.154 51.983,36.242 50.971,36.242 L50.971,35.873 L51.608,35.873 C51.89,35.873 52.062,35.873 52.062,35.688 C52.164,35.608 52.258,35.328 52.258,35.049 L52.258,31.824 C52.258,31.377 52.258,31.008 52.164,30.731 C52.164,30.451 52.062,30.275 51.983,30.176 C51.89,30.176 51.701,30.09 51.425,30.09 L50.971,30.09" id="Fill-2" sketch:type="MSShapeGroup"></path>
                <path d="M62.173,30.09 C61.625,30.09 61.169,30.176 60.8,30.451 C60.339,30.643 60.064,30.92 59.874,31.285 C59.601,31.65 59.505,32.115 59.419,32.567 C59.419,33.117 59.601,33.676 59.874,34.132 C60.158,34.592 60.525,34.961 60.981,35.236 C61.435,35.515 61.901,35.608 62.352,35.608 L62.542,35.608 C62.902,35.608 63.184,35.608 63.374,35.515 C63.647,35.424 63.831,35.328 64.01,35.236 C64.198,35.143 64.282,34.961 64.38,34.68 L64.747,33.848 L65.114,34.039 L64.104,35.974 C64.01,36.242 63.374,36.428 62.173,36.428 C61.435,36.428 60.886,36.242 60.339,35.974 C59.787,35.608 59.419,35.236 59.146,34.68 C58.862,34.132 58.684,33.58 58.684,33.031 C58.684,32.381 58.862,31.824 59.146,31.285 C59.505,30.731 59.874,30.364 60.433,30.09 C60.981,29.72 61.523,29.628 62.173,29.628 L62.722,29.628 C62.902,29.72 63.098,29.72 63.374,29.814 C63.647,29.814 63.917,29.907 64.01,29.907 L64.566,29.907 L64.566,31.471 L64.198,31.471 C64.198,31.377 64.198,31.285 64.104,31.192 C64.104,31.008 64.01,30.823 63.917,30.731 C63.831,30.545 63.555,30.364 63.272,30.275 C62.999,30.176 62.63,30.09 62.173,30.09" id="Fill-3" sketch:type="MSShapeGroup"></path>
                <path d="M70.167,33.127 L69.335,33.127 L69.335,34.947 C69.335,35.229 69.429,35.424 69.524,35.608 C69.608,35.785 69.807,35.877 70.167,35.877 L70.348,35.877 L70.348,36.242 C69.893,36.242 69.429,36.158 69.25,36.158 L68.7,36.158 C68.512,36.242 68.239,36.242 67.956,36.242 L67.501,36.242 L67.501,35.877 L68.05,35.877 C68.325,35.877 68.429,35.877 68.512,35.692 C68.512,35.608 68.606,35.424 68.606,35.049 L68.606,31.65 C68.606,30.823 68.512,30.364 68.325,30.271 C68.325,30.176 68.239,30.176 68.05,30.176 L67.595,30.176 L67.595,29.72 C67.687,29.814 67.868,29.814 68.05,29.814 L68.874,29.814 C69.429,29.814 69.807,29.814 70.081,29.72 L70.348,29.72 L70.348,30.176 L69.335,30.176 L69.335,32.757 C69.429,32.757 69.524,32.852 69.608,32.852 L69.807,32.852 C69.987,32.852 70.167,32.757 70.348,32.757 L70.348,33.393 L70.167,33.127 L70.167,33.127 Z M70.348,29.72 L70.348,30.176 C70.538,30.271 70.715,30.271 70.81,30.364 C70.999,30.545 71.18,30.731 71.273,31.008 C71.366,31.192 71.366,31.377 71.366,31.558 C71.366,31.824 71.273,32.02 71.18,32.2 C70.999,32.381 70.81,32.567 70.622,32.66 C70.538,32.66 70.44,32.757 70.348,32.757 L70.348,33.393 C70.538,33.676 70.622,33.852 70.81,34.039 C70.999,34.403 71.273,34.68 71.637,35.049 C71.908,35.424 72.183,35.785 72.554,36.158 C72.829,36.517 73.204,36.801 73.468,37.069 L73.746,36.886 C72.741,35.692 71.823,34.316 71.086,32.852 C71.366,32.757 71.637,32.471 71.823,32.293 C72.004,32.02 72.09,31.65 72.09,31.285 C72.09,31.008 72.004,30.731 71.823,30.451 C71.73,30.271 71.454,30.09 71.273,29.907 C70.999,29.814 70.715,29.72 70.348,29.72 L70.348,29.72 Z M70.348,35.877 L70.538,35.877 L70.538,36.242 L70.348,36.242 L70.348,35.877 Z" id="Fill-4" sketch:type="MSShapeGroup"></path>
                <path d="M70.167,33.127 L69.335,33.127 L69.335,34.947 C69.335,35.229 69.429,35.424 69.524,35.608 C69.608,35.785 69.807,35.877 70.167,35.877 L70.348,35.877 L70.348,36.242 C69.893,36.242 69.429,36.158 69.25,36.158 L68.7,36.158 C68.512,36.242 68.239,36.242 67.956,36.242 L67.501,36.242 L67.501,35.877 L68.05,35.877 C68.325,35.877 68.429,35.877 68.512,35.692 C68.512,35.608 68.606,35.424 68.606,35.049 L68.606,31.65 C68.606,30.823 68.512,30.364 68.325,30.271 C68.325,30.176 68.239,30.176 68.05,30.176 L67.595,30.176 L67.595,29.72 C67.687,29.814 67.868,29.814 68.05,29.814 L68.874,29.814 C69.429,29.814 69.807,29.814 70.081,29.72 L70.348,29.72 L70.348,30.176 L69.335,30.176 L69.335,32.757 C69.429,32.757 69.524,32.852 69.608,32.852 L69.807,32.852 C69.987,32.852 70.167,32.757 70.348,32.757 L70.348,33.393 L70.167,33.127 L70.167,33.127 Z M70.348,29.72 L70.348,30.176 C70.538,30.271 70.715,30.271 70.81,30.364 C70.999,30.545 71.18,30.731 71.273,31.008 C71.366,31.192 71.366,31.377 71.366,31.558 C71.366,31.824 71.273,32.02 71.18,32.2 C70.999,32.381 70.81,32.567 70.622,32.66 C70.538,32.66 70.44,32.757 70.348,32.757 L70.348,33.393 C70.538,33.676 70.622,33.852 70.81,34.039 C70.999,34.403 71.273,34.68 71.637,35.049 C71.908,35.424 72.183,35.785 72.554,36.158 C72.829,36.517 73.204,36.801 73.468,37.069 L73.746,36.886 C72.741,35.692 71.823,34.316 71.086,32.852 C71.366,32.757 71.637,32.471 71.823,32.293 C72.004,32.02 72.09,31.65 72.09,31.285 C72.09,31.008 72.004,30.731 71.823,30.451 C71.73,30.271 71.454,30.09 71.273,29.907 C70.999,29.814 70.715,29.72 70.348,29.72 L70.348,29.72 Z M70.348,35.877 L70.538,35.877 L70.538,36.242 L70.348,36.242 L70.348,35.877 Z" id="Fill-5" sketch:type="MSShapeGroup"></path>
                <path d="M69.335,32.757 C69.429,32.757 69.524,32.852 69.626,32.852 L69.799,32.852 C70.081,32.852 70.348,32.757 70.622,32.664 C70.81,32.567 70.999,32.381 71.18,32.2 C71.273,32.02 71.366,31.824 71.366,31.558 C71.366,31.377 71.366,31.192 71.273,31.008 C71.18,30.731 70.999,30.545 70.81,30.364 C70.622,30.275 70.348,30.176 69.987,30.176 L69.335,30.176 L69.335,32.757 L69.335,32.757 Z M70.167,33.117 L69.335,33.117 L69.335,34.961 C69.335,35.236 69.429,35.424 69.524,35.608 C69.626,35.785 69.799,35.873 70.167,35.873 L70.538,35.873 L70.538,36.242 C69.899,36.242 69.524,36.154 69.25,36.154 L68.7,36.154 C68.512,36.242 68.239,36.242 67.968,36.242 L67.501,36.242 L67.501,35.873 L68.05,35.873 C68.325,35.873 68.429,35.873 68.512,35.688 C68.512,35.608 68.606,35.424 68.606,35.049 L68.606,31.65 C68.606,30.823 68.512,30.364 68.325,30.275 C68.325,30.176 68.239,30.176 68.05,30.176 L67.595,30.176 L67.595,29.72 C67.687,29.814 67.868,29.814 68.05,29.814 L68.874,29.814 C69.429,29.814 69.799,29.814 70.081,29.72 L70.348,29.72 C70.715,29.72 70.999,29.814 71.273,29.907 C71.454,30.09 71.73,30.275 71.823,30.451 C72.004,30.731 72.09,31.008 72.09,31.285 C72.09,31.65 72.004,32.02 71.823,32.293 C71.637,32.471 71.366,32.757 71.086,32.852 C71.823,34.318 72.741,35.688 73.746,36.886 L73.468,37.069 C73.204,36.801 72.829,36.517 72.562,36.154 C72.183,35.785 71.908,35.424 71.637,35.049 C71.273,34.68 70.999,34.403 70.81,34.039 C70.622,33.761 70.348,33.486 70.167,33.117 L70.167,33.117 Z" id="Fill-6" sketch:type="MSShapeGroup"></path>
                <path d="M75.864,30.09 L75.864,29.72 C76.507,29.72 77.243,29.814 78.067,29.814 C78.991,29.814 79.706,29.72 80.374,29.72 L80.46,31.192 L80.083,31.192 L80.083,30.823 C79.997,30.545 79.905,30.451 79.817,30.364 C79.627,30.275 79.44,30.176 79.268,30.176 L77.792,30.176 L77.792,32.757 L79.44,32.664 C79.627,32.664 79.706,32.664 79.817,32.567 C79.905,32.567 79.997,32.471 79.997,32.293 L79.997,31.924 L80.374,31.924 C80.374,32.293 80.272,32.471 80.272,32.664 C80.374,33.117 80.374,33.486 80.374,33.848 L79.997,33.848 L79.997,33.486 C79.997,33.213 79.817,33.117 79.44,33.117 L77.888,33.031 L77.888,35.328 C77.974,35.515 77.974,35.608 78.067,35.688 C78.163,35.785 78.343,35.785 78.522,35.785 L79.627,35.785 C79.997,35.785 80.272,35.688 80.374,35.424 C80.546,35.143 80.546,34.868 80.546,34.592 L81.003,34.592 L80.822,36.242 C79.817,36.242 78.991,36.154 78.522,36.154 C77.696,36.154 76.874,36.242 75.864,36.242 L75.864,35.873 L76.507,35.873 C76.781,35.873 76.963,35.873 76.963,35.688 C77.058,35.608 77.149,35.328 77.149,35.049 L77.149,31.824 C77.149,31.377 77.149,31.008 77.058,30.731 C77.058,30.451 76.963,30.275 76.874,30.176 C76.781,30.176 76.601,30.09 76.327,30.09 L75.864,30.09" id="Fill-7" sketch:type="MSShapeGroup"></path>
                <path d="M84.039,31.192 L83.67,31.096 L83.67,29.72 C84.405,29.814 85.419,29.814 86.618,29.814 C87.89,29.814 88.91,29.814 89.835,29.72 L89.835,31.096 L89.466,31.096 C89.466,30.91 89.466,30.731 89.38,30.643 C89.38,30.545 89.38,30.451 89.279,30.364 C89.185,30.364 88.997,30.271 88.815,30.271 L87.261,30.271 L87.261,35.424 C87.347,35.608 87.442,35.692 87.53,35.785 C87.724,35.877 87.89,35.877 88.259,35.877 L88.64,35.877 L88.64,36.242 C87.805,36.242 87.161,36.158 86.798,36.158 C86.423,36.158 85.875,36.242 85.145,36.242 L85.145,35.877 L85.608,35.877 C85.875,35.877 86.062,35.877 86.251,35.785 C86.336,35.692 86.423,35.608 86.423,35.515 L86.423,30.271 L84.501,30.271 C84.312,30.271 84.124,30.364 84.124,30.451 C84.039,30.545 84.039,30.731 83.943,31.008 C84.039,31.008 84.039,31.096 84.039,31.192" id="Fill-8" sketch:type="MSShapeGroup"></path>
                <path d="M101.865,31.558 C101.763,31.921 101.683,32.293 101.495,32.66 C101.41,33.127 101.219,33.486 101.04,33.943 C100.954,34.403 100.764,34.868 100.671,35.229 C100.584,35.608 100.491,36.059 100.399,36.428 L99.934,36.428 C99.841,35.966 99.753,35.515 99.566,35.049 C99.48,34.592 99.291,34.132 99.102,33.676 C98.922,33.127 98.741,32.66 98.561,32.2 C98.37,31.744 98.191,31.285 98.003,30.823 C97.918,30.545 97.918,30.451 97.824,30.364 C97.736,30.271 97.736,30.176 97.642,30.176 C97.546,30.09 97.369,30.09 97.183,30.09 L97.183,29.72 C97.546,29.72 97.918,29.814 98.467,29.814 C98.922,29.814 99.291,29.72 99.666,29.72 L99.666,30.176 L99.383,30.176 C99.202,30.176 99.102,30.176 99.018,30.271 C98.834,30.271 98.834,30.451 98.834,30.643 C98.834,30.731 98.834,31.008 98.922,31.285 L100.215,35.049 L101.588,31.008 L101.588,30.545 C101.588,30.271 101.41,30.176 101.132,30.176 L100.764,30.176 L100.764,29.72 C101.132,29.814 101.495,29.814 101.956,29.814 C102.515,29.814 102.876,29.814 103.245,29.72 L103.245,30.176 L102.602,30.176 C102.515,30.271 102.515,30.364 102.421,30.451 C102.421,30.451 102.515,30.545 102.515,30.643 L102.515,30.823 L103.974,34.773 L105.269,31.008 C105.269,30.731 105.361,30.643 105.361,30.545 C105.361,30.364 105.269,30.271 105.175,30.271 C105.079,30.176 104.985,30.176 104.808,30.176 L104.351,30.176 L104.351,29.72 C104.525,29.72 104.9,29.814 105.543,29.814 C106.092,29.814 106.457,29.72 106.634,29.72 L106.634,30.09 L106.457,30.09 C106.272,30.09 106.185,30.176 106.092,30.271 C105.997,30.364 105.909,30.451 105.909,30.643 C105.816,30.823 105.816,31.008 105.732,31.096 C105.636,31.471 105.543,31.744 105.361,32.115 C105.269,32.471 105.175,32.945 104.9,33.486 C104.701,34.132 104.525,34.592 104.437,35.049 C104.256,35.515 104.152,35.966 103.974,36.428 L103.697,36.428 C103.517,35.966 103.425,35.515 103.245,35.143 C103.058,34.68 102.975,34.226 102.778,33.77 C102.602,33.301 102.421,32.852 102.325,32.471 C102.138,32.115 102.052,31.824 101.865,31.558" id="Fill-9" sketch:type="MSShapeGroup"></path>
                <path d="M108.392,32.852 C108.392,32.381 108.392,31.921 108.578,31.558 C108.759,31.192 109.034,30.823 109.306,30.545 C109.677,30.176 110.038,30.001 110.405,29.814 C110.776,29.628 111.236,29.535 111.692,29.535 L111.787,29.535 L111.787,30.09 C111.236,30.09 110.776,30.176 110.405,30.451 C110.038,30.643 109.677,31.008 109.495,31.377 C109.306,31.824 109.13,32.293 109.13,32.757 C109.13,33.301 109.215,33.852 109.495,34.316 C109.677,34.773 109.95,35.229 110.405,35.515 C110.776,35.785 111.236,35.966 111.692,35.966 L111.787,35.966 L111.787,36.428 C111.143,36.428 110.513,36.242 110.038,35.966 C109.495,35.608 109.13,35.143 108.759,34.68 C108.475,34.132 108.392,33.486 108.392,32.852 M111.787,29.535 C112.337,29.628 112.887,29.72 113.436,30.09 C113.992,30.364 114.369,30.823 114.728,31.285 C114.998,31.824 115.181,32.381 115.181,33.031 C115.181,33.77 114.998,34.316 114.728,34.868 C114.455,35.323 113.992,35.785 113.436,35.966 C112.982,36.242 112.433,36.428 111.787,36.428 L111.787,35.966 C112.337,35.966 112.706,35.785 113.171,35.608 C113.535,35.323 113.803,35.049 113.992,34.592 C114.266,34.226 114.369,33.676 114.369,33.031 C114.369,32.66 114.266,32.293 114.18,31.921 C113.992,31.558 113.803,31.285 113.631,31.008 C113.356,30.731 113.072,30.451 112.791,30.364 C112.433,30.176 112.157,30.09 111.787,30.09 L111.787,29.535" id="Fill-10" sketch:type="MSShapeGroup"></path>
                <path d="M108.392,32.852 C108.392,32.381 108.392,31.921 108.578,31.558 C108.759,31.192 109.034,30.823 109.306,30.545 C109.677,30.176 110.038,30.001 110.405,29.814 C110.776,29.628 111.236,29.535 111.692,29.535 L111.787,29.535 L111.787,30.09 C111.236,30.09 110.776,30.176 110.405,30.451 C110.038,30.643 109.677,31.008 109.495,31.377 C109.306,31.824 109.13,32.293 109.13,32.757 C109.13,33.301 109.215,33.852 109.495,34.316 C109.677,34.773 109.95,35.229 110.405,35.515 C110.776,35.785 111.236,35.966 111.692,35.966 L111.787,35.966 L111.787,36.428 C111.143,36.428 110.513,36.242 110.038,35.966 C109.495,35.608 109.13,35.143 108.759,34.68 C108.475,34.132 108.392,33.486 108.392,32.852 L108.392,32.852 Z M111.787,29.535 C112.337,29.628 112.887,29.72 113.436,30.09 C113.992,30.364 114.369,30.823 114.728,31.285 C114.998,31.824 115.181,32.381 115.181,33.031 C115.181,33.77 114.998,34.316 114.728,34.868 C114.455,35.323 113.992,35.785 113.436,35.966 C112.982,36.242 112.433,36.428 111.787,36.428 L111.787,35.966 C112.337,35.966 112.706,35.785 113.171,35.608 C113.535,35.323 113.803,35.049 113.992,34.592 C114.266,34.226 114.369,33.676 114.369,33.031 C114.369,32.66 114.266,32.293 114.18,31.921 C113.992,31.558 113.803,31.285 113.631,31.008 C113.356,30.731 113.072,30.451 112.791,30.364 C112.433,30.176 112.157,30.09 111.787,30.09 L111.787,29.535 L111.787,29.535 Z" id="Fill-11" sketch:type="MSShapeGroup"></path>
                <path d="M109.13,32.757 C109.13,33.307 109.215,33.848 109.495,34.318 C109.677,34.773 109.95,35.236 110.405,35.515 C110.776,35.785 111.236,35.974 111.692,35.974 L111.787,35.974 C112.337,35.974 112.706,35.785 113.171,35.608 C113.535,35.328 113.803,35.049 113.992,34.592 C114.266,34.226 114.369,33.676 114.369,33.031 C114.369,32.664 114.266,32.293 114.18,31.924 C113.992,31.558 113.803,31.285 113.631,31.008 C113.356,30.731 113.072,30.451 112.811,30.364 C112.433,30.176 112.157,30.09 111.787,30.09 C111.236,30.09 110.776,30.176 110.405,30.451 C110.038,30.643 109.677,31.008 109.495,31.377 C109.306,31.824 109.13,32.293 109.13,32.757 M108.392,32.852 C108.392,32.381 108.392,31.924 108.578,31.558 C108.759,31.192 109.034,30.823 109.306,30.545 C109.677,30.176 110.038,30.001 110.405,29.814 C110.776,29.628 111.236,29.535 111.692,29.535 C112.337,29.535 112.887,29.72 113.436,30.09 C113.992,30.364 114.369,30.823 114.738,31.285 C114.998,31.824 115.181,32.381 115.181,33.031 C115.181,33.761 114.998,34.318 114.738,34.868 C114.455,35.328 113.992,35.785 113.436,35.974 C112.982,36.242 112.433,36.428 111.787,36.428 C111.143,36.428 110.513,36.242 110.038,35.974 C109.495,35.608 109.13,35.143 108.759,34.68 C108.475,34.132 108.392,33.486 108.392,32.852" id="Fill-12" sketch:type="MSShapeGroup"></path>
                <path d="M120.323,33.127 L119.494,33.127 L119.494,34.947 C119.494,35.229 119.593,35.424 119.688,35.608 C119.782,35.785 119.954,35.877 120.323,35.877 L120.513,35.877 L120.513,36.242 C120.048,36.242 119.688,36.158 119.403,36.158 L118.861,36.158 C118.677,36.242 118.408,36.242 118.125,36.242 L117.671,36.242 L117.671,35.877 L118.306,35.877 C118.492,35.877 118.59,35.877 118.677,35.692 C118.769,35.608 118.769,35.424 118.769,35.049 L118.769,31.65 C118.769,30.823 118.677,30.364 118.492,30.271 C118.492,30.176 118.408,30.176 118.213,30.176 L117.763,30.176 L117.763,29.72 C117.945,29.814 118.03,29.814 118.213,29.814 L119.043,29.814 C119.593,29.814 119.954,29.814 120.236,29.72 L120.513,29.72 L120.513,30.176 L119.494,30.176 L119.494,32.757 C119.593,32.757 119.688,32.852 119.782,32.852 L119.954,32.852 C120.136,32.852 120.323,32.757 120.513,32.757 L120.513,33.393 C120.513,33.307 120.418,33.213 120.323,33.127 L120.323,33.127 Z M120.513,29.72 L120.513,30.176 C120.701,30.271 120.878,30.271 120.975,30.364 C121.161,30.545 121.334,30.731 121.429,31.008 C121.523,31.192 121.523,31.377 121.523,31.558 C121.523,31.824 121.429,32.02 121.334,32.2 C121.248,32.381 121.067,32.567 120.794,32.66 C120.701,32.66 120.605,32.757 120.513,32.757 L120.513,33.393 C120.701,33.676 120.878,33.852 120.975,34.039 C121.248,34.403 121.429,34.68 121.806,35.049 C122.082,35.424 122.352,35.785 122.713,36.158 C122.995,36.517 123.366,36.801 123.728,37.069 L124.003,36.886 C122.897,35.692 121.972,34.316 121.248,32.852 C121.523,32.757 121.806,32.471 121.972,32.293 C122.162,32.02 122.252,31.65 122.252,31.285 C122.252,31.008 122.162,30.731 122.082,30.451 C121.893,30.271 121.71,30.09 121.429,29.907 C121.161,29.814 120.878,29.72 120.513,29.72 L120.513,29.72 Z M120.513,35.877 L120.702,35.877 L120.702,36.242 L120.513,36.242 L120.513,35.877 Z" id="Fill-13" sketch:type="MSShapeGroup"></path>
                <path d="M120.323,33.127 L119.494,33.127 L119.494,34.947 C119.494,35.229 119.593,35.424 119.688,35.608 C119.782,35.785 119.954,35.877 120.323,35.877 L120.513,35.877 L120.513,36.242 C120.048,36.242 119.688,36.158 119.403,36.158 L118.861,36.158 C118.677,36.242 118.408,36.242 118.125,36.242 L117.671,36.242 L117.671,35.877 L118.306,35.877 C118.492,35.877 118.59,35.877 118.677,35.692 C118.769,35.608 118.769,35.424 118.769,35.049 L118.769,31.65 C118.769,30.823 118.677,30.364 118.492,30.271 C118.492,30.176 118.408,30.176 118.213,30.176 L117.763,30.176 L117.763,29.72 C117.945,29.814 118.03,29.814 118.213,29.814 L119.043,29.814 C119.593,29.814 119.954,29.814 120.236,29.72 L120.513,29.72 L120.513,30.176 L119.494,30.176 L119.494,32.757 C119.593,32.757 119.688,32.852 119.782,32.852 L119.954,32.852 C120.136,32.852 120.323,32.757 120.513,32.757 L120.513,33.393 C120.513,33.307 120.418,33.213 120.323,33.127 L120.323,33.127 Z M120.513,29.72 L120.513,30.176 C120.701,30.271 120.878,30.271 120.975,30.364 C121.161,30.545 121.334,30.731 121.429,31.008 C121.523,31.192 121.523,31.377 121.523,31.558 C121.523,31.824 121.429,32.02 121.334,32.2 C121.248,32.381 121.067,32.567 120.794,32.66 C120.701,32.66 120.605,32.757 120.513,32.757 L120.513,33.393 C120.701,33.676 120.878,33.852 120.975,34.039 C121.248,34.403 121.429,34.68 121.806,35.049 C122.082,35.424 122.352,35.785 122.713,36.158 C122.995,36.517 123.366,36.801 123.728,37.069 L124.003,36.886 C122.897,35.692 121.972,34.316 121.248,32.852 C121.523,32.757 121.806,32.471 121.972,32.293 C122.162,32.02 122.252,31.65 122.252,31.285 C122.252,31.008 122.162,30.731 122.082,30.451 C121.893,30.271 121.71,30.09 121.429,29.907 C121.161,29.814 120.878,29.72 120.513,29.72 L120.513,29.72 Z M120.513,35.877 L120.702,35.877 L120.702,36.242 L120.513,36.242 L120.513,35.877 Z" id="Fill-14" sketch:type="MSShapeGroup"></path>
                <path d="M119.494,32.757 C119.593,32.757 119.688,32.852 119.782,32.852 L119.954,32.852 C120.323,32.852 120.605,32.757 120.794,32.664 C121.067,32.567 121.248,32.381 121.343,32.2 C121.429,32.02 121.523,31.824 121.523,31.558 C121.523,31.377 121.523,31.192 121.429,31.008 C121.343,30.731 121.161,30.545 120.975,30.364 C120.794,30.275 120.513,30.176 120.136,30.176 L119.494,30.176 L119.494,32.757 L119.494,32.757 Z M120.323,33.117 L119.494,33.117 L119.494,34.961 C119.494,35.236 119.593,35.424 119.688,35.608 C119.782,35.785 119.954,35.873 120.323,35.873 L120.701,35.873 L120.701,36.242 C120.136,36.242 119.688,36.154 119.411,36.154 L118.861,36.154 C118.677,36.242 118.408,36.242 118.125,36.242 L117.671,36.242 L117.671,35.873 L118.306,35.873 C118.492,35.873 118.59,35.873 118.677,35.688 C118.769,35.608 118.769,35.424 118.769,35.049 L118.769,31.65 C118.769,30.823 118.677,30.364 118.492,30.275 C118.492,30.176 118.408,30.176 118.213,30.176 L117.763,30.176 L117.763,29.72 C117.945,29.814 118.03,29.814 118.213,29.814 L119.043,29.814 C119.593,29.814 119.954,29.814 120.236,29.72 L120.513,29.72 C120.878,29.72 121.161,29.814 121.429,29.907 C121.71,30.09 121.893,30.275 122.082,30.451 C122.162,30.731 122.252,31.008 122.252,31.285 C122.252,31.65 122.162,32.02 121.972,32.293 C121.806,32.471 121.523,32.757 121.248,32.852 C121.972,34.318 122.897,35.688 124.01,36.886 L123.728,37.069 C123.366,36.801 122.995,36.517 122.713,36.154 C122.352,35.785 122.082,35.424 121.806,35.049 C121.429,34.68 121.248,34.403 120.975,34.039 C120.794,33.761 120.605,33.486 120.323,33.117 L120.323,33.117 Z" id="Fill-15" sketch:type="MSShapeGroup"></path>
                <path d="M130.898,35.515 C131.085,35.424 131.172,35.229 131.259,35.049 C131.259,34.773 131.347,34.68 131.347,34.592 L131.816,34.68 C131.626,35.049 131.438,35.608 131.347,36.242 C130.529,36.242 129.603,36.158 128.6,36.158 C127.674,36.158 126.942,36.242 126.3,36.242 L126.3,35.877 L126.764,35.877 C126.942,35.877 127.125,35.785 127.225,35.692 C127.305,35.515 127.305,35.323 127.305,35.049 L127.305,30.731 C127.225,30.451 127.225,30.364 127.125,30.271 C127.038,30.176 126.859,30.09 126.486,30.09 L126.3,30.09 L126.3,29.72 C126.486,29.72 126.942,29.814 127.774,29.814 C128.6,29.814 129.157,29.72 129.238,29.72 L129.238,30.176 L128.785,30.176 C128.318,30.176 128.046,30.451 128.046,31.096 L128.046,34.403 C128.046,34.68 128.046,34.947 128.138,35.143 C128.224,35.323 128.224,35.424 128.318,35.515 C128.419,35.608 128.6,35.608 128.689,35.692 C129.061,35.785 129.321,35.785 129.787,35.877 C130.339,35.785 130.7,35.692 130.898,35.515" id="Fill-16" sketch:type="MSShapeGroup"></path>
                <path d="M134.568,30.09 L134.39,30.09 L134.39,29.72 C134.846,29.72 135.221,29.814 135.584,29.814 C135.763,29.814 136.131,29.814 136.586,29.72 L138.239,29.72 L138.239,30.275 C137.968,30.176 137.697,30.09 137.321,30.09 L137.056,30.09 L136.216,30.176 L136.216,34.773 C136.216,35.236 136.404,35.515 136.586,35.785 C136.866,35.974 137.236,36.059 137.786,36.059 L138.239,36.059 L138.239,36.428 C138.147,36.517 137.968,36.517 137.786,36.517 C137.599,36.517 137.321,36.428 136.962,36.428 C136.687,36.428 136.312,36.335 136.044,36.335 C135.669,36.242 135.393,36.242 135.221,36.242 L134.39,36.242 L134.39,35.873 L134.932,35.873 C135.02,35.873 135.221,35.873 135.307,35.785 C135.393,35.688 135.488,35.515 135.488,35.424 L135.488,31.744 C135.488,31.192 135.393,30.823 135.393,30.643 C135.393,30.364 135.307,30.275 135.117,30.176 C135.02,30.176 134.846,30.09 134.568,30.09 M138.239,29.72 C138.608,29.814 138.983,29.814 139.251,30.001 C139.718,30.176 140.084,30.364 140.36,30.643 C140.632,31.008 140.813,31.377 140.917,31.744 C141.087,32.115 141.175,32.567 141.175,33.031 C141.175,33.486 141.087,33.954 141.002,34.318 C140.813,34.773 140.632,35.143 140.36,35.424 C140.084,35.785 139.718,36.059 139.251,36.242 C138.983,36.335 138.608,36.428 138.239,36.428 L138.239,36.059 C138.516,35.974 138.702,35.873 138.887,35.785 C139.251,35.688 139.527,35.424 139.718,35.143 C139.897,34.961 139.988,34.592 140.084,34.318 C140.18,33.954 140.268,33.58 140.268,33.213 C140.268,32.757 140.18,32.381 140.084,32.02 C139.897,31.65 139.718,31.285 139.442,31.008 C139.157,30.731 138.887,30.545 138.516,30.364 C138.428,30.275 138.337,30.275 138.239,30.275 L138.239,29.72" id="Fill-17" sketch:type="MSShapeGroup"></path>
                <path d="M134.568,30.09 L134.39,30.09 L134.39,29.72 C134.846,29.72 135.221,29.814 135.584,29.814 C135.763,29.814 136.131,29.814 136.586,29.72 L138.239,29.72 L138.239,30.275 C137.968,30.176 137.697,30.09 137.321,30.09 L137.056,30.09 L136.216,30.176 L136.216,34.773 C136.216,35.236 136.404,35.515 136.586,35.785 C136.866,35.974 137.236,36.059 137.786,36.059 L138.239,36.059 L138.239,36.428 C138.147,36.517 137.968,36.517 137.786,36.517 C137.599,36.517 137.321,36.428 136.962,36.428 C136.687,36.428 136.312,36.335 136.044,36.335 C135.669,36.242 135.393,36.242 135.221,36.242 L134.39,36.242 L134.39,35.873 L134.932,35.873 C135.02,35.873 135.221,35.873 135.307,35.785 C135.393,35.688 135.488,35.515 135.488,35.424 L135.488,31.744 C135.488,31.192 135.393,30.823 135.393,30.643 C135.393,30.364 135.307,30.275 135.117,30.176 C135.02,30.176 134.846,30.09 134.568,30.09 L134.568,30.09 Z M138.239,29.72 C138.608,29.814 138.983,29.814 139.251,30.001 C139.718,30.176 140.084,30.364 140.36,30.643 C140.632,31.008 140.813,31.377 140.917,31.744 C141.087,32.115 141.175,32.567 141.175,33.031 C141.175,33.486 141.087,33.954 141.002,34.318 C140.813,34.773 140.632,35.143 140.36,35.424 C140.084,35.785 139.718,36.059 139.251,36.242 C138.983,36.335 138.608,36.428 138.239,36.428 L138.239,36.059 C138.516,35.974 138.702,35.873 138.887,35.785 C139.251,35.688 139.527,35.424 139.718,35.143 C139.897,34.961 139.988,34.592 140.084,34.318 C140.18,33.954 140.268,33.58 140.268,33.213 C140.268,32.757 140.18,32.381 140.084,32.02 C139.897,31.65 139.718,31.285 139.442,31.008 C139.157,30.731 138.887,30.545 138.516,30.364 C138.428,30.275 138.337,30.275 138.239,30.275 L138.239,29.72 L138.239,29.72 Z" id="Fill-18" sketch:type="MSShapeGroup"></path>
                <path d="M136.216,30.176 L136.216,34.773 C136.216,35.229 136.404,35.515 136.586,35.785 C136.866,35.966 137.236,36.059 137.786,36.059 C138.239,36.059 138.608,35.966 138.887,35.785 C139.251,35.692 139.527,35.424 139.718,35.143 C139.897,34.947 139.988,34.592 140.084,34.316 C140.18,33.943 140.268,33.58 140.268,33.213 C140.268,32.757 140.18,32.381 140.084,32.02 C139.897,31.65 139.718,31.285 139.442,31.008 C139.157,30.731 138.887,30.545 138.516,30.364 C138.147,30.176 137.786,30.09 137.321,30.09 L137.056,30.09 L136.216,30.176 L136.216,30.176 Z M134.568,30.09 L134.39,30.09 L134.39,29.72 C134.846,29.72 135.221,29.814 135.584,29.814 C135.763,29.814 136.131,29.814 136.586,29.72 L137.786,29.72 C138.337,29.72 138.797,29.814 139.251,30.001 C139.718,30.176 140.084,30.364 140.36,30.643 C140.632,31.008 140.813,31.377 140.917,31.744 C141.087,32.115 141.175,32.567 141.175,33.031 C141.175,33.486 141.087,33.943 141.002,34.316 C140.813,34.773 140.632,35.143 140.36,35.424 C140.084,35.785 139.718,36.059 139.251,36.242 C138.887,36.428 138.337,36.517 137.786,36.517 C137.599,36.517 137.321,36.428 136.962,36.428 C136.687,36.428 136.312,36.335 136.044,36.335 C135.669,36.242 135.393,36.242 135.221,36.242 L134.39,36.242 L134.39,35.877 L134.932,35.877 C135.031,35.877 135.221,35.877 135.307,35.785 C135.393,35.692 135.488,35.515 135.488,35.424 L135.488,31.744 C135.488,31.192 135.393,30.823 135.393,30.643 C135.393,30.364 135.307,30.271 135.117,30.176 C135.031,30.176 134.846,30.09 134.568,30.09 L134.568,30.09 Z" id="Fill-19" sketch:type="MSShapeGroup"></path>
                <path d="M7.651,10.77 L7.651,15.301 C7.651,17.477 7.651,18.152 9.847,18.152 L9.847,18.654 L0.882,18.654 L0.882,18.152 C3.38,18.152 3.38,17.477 3.38,15.301 L3.38,4.231 C3.38,2.044 3.38,1.385 0.882,1.385 L0.882,0.881 L9.765,0.881 L9.765,1.385 C7.651,1.385 7.651,2.053 7.651,4.236 L7.651,9.43 L14.044,4.316 C15.208,3.317 15.627,2.891 15.627,2.381 C15.627,1.461 14.631,1.385 13.624,1.385 L13.624,0.881 L20.578,0.881 L20.578,1.385 C19.406,1.385 18.647,1.969 17.388,2.978 L11.44,7.747 L17.548,15.301 C18.985,17.152 19.899,18.152 21.503,18.152 L21.503,18.654 L12.194,18.654 L12.194,18.152 C12.7,18.152 13.624,18.068 13.624,17.406 C13.624,16.813 12.61,15.555 12.194,15.137 L8.333,10.272 L7.651,10.77" id="Fill-20" sketch:type="MSShapeGroup"></path>
                <path d="M26.2,13.624 L25.522,15.05 C25.282,15.639 25.03,16.228 25.03,16.726 C25.03,17.984 26.02,18.068 27.374,18.152 L27.374,18.654 L21.495,18.654 L21.495,18.152 C23.259,18.068 24.105,15.883 24.69,14.465 L29.301,4.156 L29.301,6.582 L26.618,12.619 L29.301,12.619 L29.301,13.624 L26.2,13.624 L26.2,13.624 Z M29.301,4.156 L30.891,0.545 L31.23,0.545 L37.694,15.386 C38.192,16.557 38.862,18.152 40.366,18.152 L40.366,18.654 L31.737,18.654 L31.737,18.152 C32.488,18.152 33.825,18.152 33.825,17.317 C33.825,16.891 33.745,16.647 33.581,16.306 L32.402,13.624 L29.301,13.624 L29.301,12.619 L31.991,12.619 L29.301,6.582 L29.301,4.156 L29.301,4.156 Z" id="Fill-21" sketch:type="MSShapeGroup"></path>
                <path d="M47.834,15.301 C47.834,17.484 47.834,18.152 50.355,18.152 L50.355,18.654 L41.119,18.654 L41.119,18.152 C43.729,18.152 43.729,17.484 43.729,15.301 L43.729,4.236 C43.729,2.053 43.729,1.38 41.119,1.38 L41.119,0.881 L50.516,0.881 L50.516,1.969 L47.834,1.969 L47.834,9.684 L49.091,9.684 C49.677,9.684 50.104,9.607 50.516,9.526 L50.516,12.707 L49.011,10.604 L47.834,10.604 L47.834,15.301 L47.834,15.301 Z M50.516,0.881 L51.022,0.881 C55.055,0.881 57.644,2.467 57.644,5.908 C57.644,8.176 55.815,9.854 53.616,10.272 L58.233,16.647 C58.914,17.647 59.326,18.152 60.33,18.152 L60.33,18.654 L54.706,18.654 L50.516,12.707 L50.516,9.526 C52.619,9.1 53.292,7.747 53.292,5.908 C53.292,3.479 52.364,2.301 50.516,1.969 L50.516,0.881 L50.516,0.881 Z" id="Fill-22" sketch:type="MSShapeGroup"></path>
                <path d="M77.519,0.881 L84.74,0.881 L84.74,1.385 C82.218,1.385 82.218,2.053 82.218,4.236 L82.218,15.301 C82.218,17.477 82.218,18.152 84.74,18.152 L84.74,18.654 L75.431,18.654 L75.431,18.152 C77.944,18.152 77.944,17.477 77.944,15.301 L77.944,2.562 L71.231,18.654 L70.899,18.654 L64.024,2.725 L64.024,15.972 C64.024,17.477 64.697,18.152 66.539,18.152 L66.539,18.654 L60.503,18.654 L60.503,18.152 C62.26,18.152 63.013,17.477 63.013,15.972 L63.013,4.236 C63.013,2.053 63.013,1.385 60.503,1.385 L60.503,0.881 L67.711,0.881 L72.741,12.619 L77.519,0.881" id="Fill-23" sketch:type="MSShapeGroup"></path>
                <path d="M90.274,13.624 L89.603,15.05 C89.35,15.639 89.097,16.228 89.097,16.726 C89.097,17.984 90.108,18.068 91.446,18.152 L91.446,18.654 L85.491,18.654 L85.491,18.152 C87.341,18.068 88.173,15.883 88.765,14.465 L93.376,4.156 L93.376,6.582 L90.688,12.619 L93.376,12.619 L93.376,13.624 L90.274,13.624 L90.274,13.624 Z M93.376,4.156 L94.974,0.545 L95.228,0.545 L101.763,15.386 C102.26,16.557 102.942,18.152 104.45,18.152 L104.45,18.654 L95.814,18.654 L95.814,18.152 C96.559,18.152 97.918,18.152 97.918,17.317 C97.918,16.891 97.824,16.647 97.657,16.306 L96.486,13.624 L93.376,13.624 L93.376,12.619 L96.06,12.619 L93.376,6.582 L93.376,4.156 L93.376,4.156 Z" id="Fill-24" sketch:type="MSShapeGroup"></path>
                <path d="M104.45,18.654 L104.45,0.795 L106.207,0.795 L106.207,10.02 L115.35,0.795 L117.282,0.795 L110.149,7.92 L118.451,18.654 L116.442,18.654 L108.968,8.934 L106.207,11.693 L106.207,18.654 L104.45,18.654" id="Fill-25" sketch:type="MSShapeGroup"></path>
                <path d="M119.381,18.654 L126.415,0.795 L127.341,0.795 L127.341,2.381 L123.735,11.693 L127.341,11.693 L127.341,13.031 L123.316,13.031 L121.142,18.654 L119.381,18.654 L119.381,18.654 Z M127.341,0.795 L128.352,0.795 L135.233,18.654 L133.544,18.654 L131.447,13.031 L127.341,13.031 L127.341,11.693 L130.869,11.693 L127.341,2.227 L127.341,2.381 L127.341,0.795 L127.341,0.795 Z" id="Fill-26" sketch:type="MSShapeGroup"></path>
                <path d="M137.567,18.654 L137.567,0.795 L140.18,0.795 L146.04,16.638 L151.83,0.795 L154.431,0.795 L154.431,18.654 L152.676,18.654 L152.676,2.639 L146.806,18.654 L145.201,18.654 L139.33,2.639 L139.33,18.654 L137.567,18.654" id="Fill-27" sketch:type="MSShapeGroup"></path>
                <path d="M158.448,18.654 L158.448,0.795 L170.36,0.795 L170.36,2.14 L160.137,2.14 L160.137,8.598 L169.365,8.598 L169.365,10.106 L160.137,10.106 L160.137,17.317 L170.606,17.317 L170.606,18.654 L158.448,18.654" id="Fill-28" sketch:type="MSShapeGroup"></path>
                <path d="M171.963,0.795 L185.118,0.795 L185.118,2.14 L179.419,2.14 L179.419,18.654 L177.663,18.654 L177.663,2.14 L171.963,2.14 L171.963,0.795" id="Fill-29" sketch:type="MSShapeGroup"></path>
                <path d="M46.468,29.907 C46.287,29.907 46.004,30.001 45.817,30.176 C45.638,30.364 45.446,30.553 45.446,30.823 C45.446,31.377 45.731,31.824 46.372,32.115 L47.025,32.381 C47.479,32.567 47.747,32.945 48.023,33.307 C48.303,33.676 48.398,34.132 48.398,34.5 C48.398,34.868 48.303,35.236 48.216,35.515 C48.023,35.785 47.841,36.059 47.566,36.242 C47.29,36.428 46.924,36.517 46.468,36.517 C46.192,36.517 45.911,36.428 45.542,36.335 C45.182,36.158 44.897,36.059 44.812,36.059 L44.812,35.688 C44.897,35.515 44.897,35.424 44.897,35.323 C44.897,34.961 44.812,34.592 44.812,34.226 L45.266,34.226 L45.266,34.68 C45.266,35.049 45.362,35.424 45.638,35.688 C45.911,35.966 46.192,36.059 46.564,36.059 C46.924,36.059 47.206,35.966 47.39,35.785 C47.653,35.515 47.747,35.236 47.747,34.868 C47.747,34.316 47.39,33.852 46.743,33.486 L46.004,33.031 C45.182,32.567 44.812,32.012 44.812,31.285 C44.812,30.92 44.897,30.553 45.086,30.364 C45.266,30.09 45.446,29.907 45.638,29.814 C45.911,29.628 46.192,29.628 46.564,29.628 C46.743,29.628 47.025,29.628 47.479,29.72 L47.841,29.72 L47.841,31.008 L47.39,31.008 L47.39,30.92 C47.39,30.823 47.39,30.643 47.29,30.553 C47.29,30.364 47.206,30.176 47.025,30.09 C46.924,30.001 46.743,29.907 46.468,29.907" id="Fill-30" sketch:type="MSShapeGroup"></path>
                <path d="M50.971,30.09 L50.971,29.72 C51.608,29.72 52.345,29.814 53.174,29.814 C54.092,29.814 54.823,29.72 55.472,29.72 L55.567,31.192 L55.191,31.192 L55.191,30.823 C55.1,30.545 55.011,30.451 54.915,30.364 C54.738,30.275 54.549,30.176 54.366,30.176 L52.9,30.176 L52.9,32.757 L54.549,32.664 C54.738,32.664 54.823,32.664 54.915,32.567 C55.011,32.567 55.1,32.471 55.1,32.293 L55.1,31.924 L55.472,31.924 C55.472,32.293 55.38,32.471 55.38,32.664 C55.472,33.117 55.472,33.486 55.472,33.848 L55.1,33.848 L55.1,33.486 C55.1,33.213 54.915,33.117 54.549,33.117 L52.993,33.031 L52.993,35.328 C53.081,35.515 53.081,35.608 53.174,35.688 C53.255,35.785 53.442,35.785 53.63,35.785 L54.738,35.785 C55.1,35.785 55.38,35.688 55.472,35.424 C55.655,35.143 55.655,34.868 55.655,34.592 L56.108,34.592 L55.936,36.242 C54.915,36.242 54.092,36.154 53.63,36.154 C52.807,36.154 51.983,36.242 50.971,36.242 L50.971,35.873 L51.608,35.873 C51.89,35.873 52.062,35.873 52.062,35.688 C52.164,35.608 52.258,35.328 52.258,35.049 L52.258,31.824 C52.258,31.377 52.258,31.008 52.164,30.731 C52.164,30.451 52.062,30.275 51.983,30.176 C51.89,30.176 51.701,30.09 51.425,30.09 L50.971,30.09" id="Fill-31" sketch:type="MSShapeGroup"></path>
                <path d="M62.173,30.09 C61.625,30.09 61.169,30.176 60.8,30.451 C60.339,30.643 60.064,30.92 59.874,31.285 C59.601,31.65 59.505,32.115 59.419,32.567 C59.419,33.117 59.601,33.676 59.874,34.132 C60.158,34.592 60.525,34.961 60.981,35.236 C61.435,35.515 61.901,35.608 62.352,35.608 L62.542,35.608 C62.902,35.608 63.184,35.608 63.374,35.515 C63.647,35.424 63.831,35.328 64.01,35.236 C64.198,35.143 64.282,34.961 64.38,34.68 L64.747,33.848 L65.114,34.039 L64.104,35.974 C64.01,36.242 63.374,36.428 62.173,36.428 C61.435,36.428 60.886,36.242 60.339,35.974 C59.787,35.608 59.419,35.236 59.146,34.68 C58.862,34.132 58.684,33.58 58.684,33.031 C58.684,32.381 58.862,31.824 59.146,31.285 C59.505,30.731 59.874,30.364 60.433,30.09 C60.981,29.72 61.523,29.628 62.173,29.628 L62.722,29.628 C62.902,29.72 63.098,29.72 63.374,29.814 C63.647,29.814 63.917,29.907 64.01,29.907 L64.566,29.907 L64.566,31.471 L64.198,31.471 C64.198,31.377 64.198,31.285 64.104,31.192 C64.104,31.008 64.01,30.823 63.917,30.731 C63.831,30.545 63.555,30.364 63.272,30.275 C62.999,30.176 62.63,30.09 62.173,30.09" id="Fill-32" sketch:type="MSShapeGroup"></path>
                <path d="M69.335,32.757 C69.429,32.757 69.524,32.852 69.626,32.852 L69.799,32.852 C70.081,32.852 70.348,32.757 70.622,32.664 C70.81,32.567 70.999,32.381 71.18,32.2 C71.273,32.02 71.366,31.824 71.366,31.558 C71.366,31.377 71.366,31.192 71.273,31.008 C71.18,30.731 70.999,30.545 70.81,30.364 C70.622,30.275 70.348,30.176 69.987,30.176 L69.335,30.176 L69.335,32.757 L69.335,32.757 Z M70.167,33.117 L69.335,33.117 L69.335,34.961 C69.335,35.236 69.429,35.424 69.524,35.608 C69.626,35.785 69.799,35.873 70.167,35.873 L70.538,35.873 L70.538,36.242 C69.899,36.242 69.524,36.154 69.25,36.154 L68.7,36.154 C68.512,36.242 68.239,36.242 67.968,36.242 L67.501,36.242 L67.501,35.873 L68.05,35.873 C68.325,35.873 68.429,35.873 68.512,35.688 C68.512,35.608 68.606,35.424 68.606,35.049 L68.606,31.65 C68.606,30.823 68.512,30.364 68.325,30.275 C68.325,30.176 68.239,30.176 68.05,30.176 L67.595,30.176 L67.595,29.72 C67.687,29.814 67.868,29.814 68.05,29.814 L68.874,29.814 C69.429,29.814 69.799,29.814 70.081,29.72 L70.348,29.72 C70.715,29.72 70.999,29.814 71.273,29.907 C71.454,30.09 71.73,30.275 71.823,30.451 C72.004,30.731 72.09,31.008 72.09,31.285 C72.09,31.65 72.004,32.02 71.823,32.293 C71.637,32.471 71.366,32.757 71.086,32.852 C71.823,34.318 72.741,35.688 73.746,36.886 L73.468,37.069 C73.204,36.801 72.829,36.517 72.562,36.154 C72.183,35.785 71.908,35.424 71.637,35.049 C71.273,34.68 70.999,34.403 70.81,34.039 C70.622,33.761 70.348,33.486 70.167,33.117 L70.167,33.117 Z" id="Fill-33" sketch:type="MSShapeGroup"></path>
                <path d="M75.864,30.09 L75.864,29.72 C76.507,29.72 77.243,29.814 78.067,29.814 C78.991,29.814 79.706,29.72 80.374,29.72 L80.46,31.192 L80.083,31.192 L80.083,30.823 C79.997,30.545 79.905,30.451 79.817,30.364 C79.627,30.275 79.44,30.176 79.268,30.176 L77.792,30.176 L77.792,32.757 L79.44,32.664 C79.627,32.664 79.706,32.664 79.817,32.567 C79.905,32.567 79.997,32.471 79.997,32.293 L79.997,31.924 L80.374,31.924 C80.374,32.293 80.272,32.471 80.272,32.664 C80.374,33.117 80.374,33.486 80.374,33.848 L79.997,33.848 L79.997,33.486 C79.997,33.213 79.817,33.117 79.44,33.117 L77.888,33.031 L77.888,35.328 C77.974,35.515 77.974,35.608 78.067,35.688 C78.163,35.785 78.343,35.785 78.522,35.785 L79.627,35.785 C79.997,35.785 80.272,35.688 80.374,35.424 C80.546,35.143 80.546,34.868 80.546,34.592 L81.003,34.592 L80.822,36.242 C79.817,36.242 78.991,36.154 78.522,36.154 C77.696,36.154 76.874,36.242 75.864,36.242 L75.864,35.873 L76.507,35.873 C76.781,35.873 76.963,35.873 76.963,35.688 C77.058,35.608 77.149,35.328 77.149,35.049 L77.149,31.824 C77.149,31.377 77.149,31.008 77.058,30.731 C77.058,30.451 76.963,30.275 76.874,30.176 C76.781,30.176 76.601,30.09 76.327,30.09 L75.864,30.09" id="Fill-34" sketch:type="MSShapeGroup"></path>
                <path d="M84.039,31.192 L83.67,31.096 L83.67,29.72 C84.405,29.814 85.419,29.814 86.618,29.814 C87.89,29.814 88.91,29.814 89.835,29.72 L89.835,31.096 L89.466,31.096 C89.466,30.91 89.466,30.731 89.38,30.643 C89.38,30.545 89.38,30.451 89.279,30.364 C89.185,30.364 88.997,30.271 88.815,30.271 L87.261,30.271 L87.261,35.424 C87.347,35.608 87.442,35.692 87.53,35.785 C87.724,35.877 87.89,35.877 88.259,35.877 L88.64,35.877 L88.64,36.242 C87.805,36.242 87.161,36.158 86.798,36.158 C86.423,36.158 85.875,36.242 85.145,36.242 L85.145,35.877 L85.608,35.877 C85.875,35.877 86.062,35.877 86.251,35.785 C86.336,35.692 86.423,35.608 86.423,35.515 L86.423,30.271 L84.501,30.271 C84.312,30.271 84.124,30.364 84.124,30.451 C84.039,30.545 84.039,30.731 83.943,31.008 C84.039,31.008 84.039,31.096 84.039,31.192" id="Fill-35" sketch:type="MSShapeGroup"></path>
                <path d="M101.865,31.558 C101.763,31.921 101.683,32.293 101.495,32.66 C101.41,33.127 101.219,33.486 101.04,33.943 C100.954,34.403 100.764,34.868 100.671,35.229 C100.584,35.608 100.491,36.059 100.399,36.428 L99.934,36.428 C99.841,35.966 99.753,35.515 99.566,35.049 C99.48,34.592 99.291,34.132 99.102,33.676 C98.922,33.127 98.741,32.66 98.561,32.2 C98.37,31.744 98.191,31.285 98.003,30.823 C97.918,30.545 97.918,30.451 97.824,30.364 C97.736,30.271 97.736,30.176 97.642,30.176 C97.546,30.09 97.369,30.09 97.183,30.09 L97.183,29.72 C97.546,29.72 97.918,29.814 98.467,29.814 C98.922,29.814 99.291,29.72 99.666,29.72 L99.666,30.176 L99.383,30.176 C99.202,30.176 99.102,30.176 99.018,30.271 C98.834,30.271 98.834,30.451 98.834,30.643 C98.834,30.731 98.834,31.008 98.922,31.285 L100.215,35.049 L101.588,31.008 L101.588,30.545 C101.588,30.271 101.41,30.176 101.132,30.176 L100.764,30.176 L100.764,29.72 C101.132,29.814 101.495,29.814 101.956,29.814 C102.515,29.814 102.876,29.814 103.245,29.72 L103.245,30.176 L102.602,30.176 C102.515,30.271 102.515,30.364 102.421,30.451 C102.421,30.451 102.515,30.545 102.515,30.643 L102.515,30.823 L103.974,34.773 L105.269,31.008 C105.269,30.731 105.361,30.643 105.361,30.545 C105.361,30.364 105.269,30.271 105.175,30.271 C105.079,30.176 104.985,30.176 104.808,30.176 L104.351,30.176 L104.351,29.72 C104.525,29.72 104.9,29.814 105.543,29.814 C106.092,29.814 106.457,29.72 106.634,29.72 L106.634,30.09 L106.457,30.09 C106.272,30.09 106.185,30.176 106.092,30.271 C105.997,30.364 105.909,30.451 105.909,30.643 C105.816,30.823 105.816,31.008 105.732,31.096 C105.636,31.471 105.543,31.744 105.361,32.115 C105.269,32.471 105.175,32.945 104.9,33.486 C104.701,34.132 104.525,34.592 104.437,35.049 C104.256,35.515 104.152,35.966 103.974,36.428 L103.697,36.428 C103.517,35.966 103.425,35.515 103.245,35.143 C103.058,34.68 102.975,34.226 102.778,33.77 C102.602,33.301 102.421,32.852 102.325,32.471 C102.138,32.115 102.052,31.824 101.865,31.558" id="Fill-36" sketch:type="MSShapeGroup"></path>
                <path d="M109.13,32.757 C109.13,33.307 109.215,33.848 109.495,34.318 C109.677,34.773 109.95,35.236 110.405,35.515 C110.776,35.785 111.236,35.974 111.692,35.974 L111.787,35.974 C112.337,35.974 112.706,35.785 113.171,35.608 C113.535,35.328 113.803,35.049 113.992,34.592 C114.266,34.226 114.369,33.676 114.369,33.031 C114.369,32.664 114.266,32.293 114.18,31.924 C113.992,31.558 113.803,31.285 113.631,31.008 C113.356,30.731 113.072,30.451 112.811,30.364 C112.433,30.176 112.157,30.09 111.787,30.09 C111.236,30.09 110.776,30.176 110.405,30.451 C110.038,30.643 109.677,31.008 109.495,31.377 C109.306,31.824 109.13,32.293 109.13,32.757 L109.13,32.757 Z M108.392,32.852 C108.392,32.381 108.392,31.924 108.578,31.558 C108.759,31.192 109.034,30.823 109.306,30.545 C109.677,30.176 110.038,30.001 110.405,29.814 C110.776,29.628 111.236,29.535 111.692,29.535 C112.337,29.535 112.887,29.72 113.436,30.09 C113.992,30.364 114.369,30.823 114.738,31.285 C114.998,31.824 115.181,32.381 115.181,33.031 C115.181,33.761 114.998,34.318 114.738,34.868 C114.455,35.328 113.992,35.785 113.436,35.974 C112.982,36.242 112.433,36.428 111.787,36.428 C111.143,36.428 110.513,36.242 110.038,35.974 C109.495,35.608 109.13,35.143 108.759,34.68 C108.475,34.132 108.392,33.486 108.392,32.852 L108.392,32.852 Z" id="Fill-37" sketch:type="MSShapeGroup"></path>
                <path d="M119.494,32.757 C119.593,32.757 119.688,32.852 119.782,32.852 L119.954,32.852 C120.323,32.852 120.605,32.757 120.794,32.664 C121.067,32.567 121.248,32.381 121.343,32.2 C121.429,32.02 121.523,31.824 121.523,31.558 C121.523,31.377 121.523,31.192 121.429,31.008 C121.343,30.731 121.161,30.545 120.975,30.364 C120.794,30.275 120.513,30.176 120.136,30.176 L119.494,30.176 L119.494,32.757 L119.494,32.757 Z M120.323,33.117 L119.494,33.117 L119.494,34.961 C119.494,35.236 119.593,35.424 119.688,35.608 C119.782,35.785 119.954,35.873 120.323,35.873 L120.701,35.873 L120.701,36.242 C120.136,36.242 119.688,36.154 119.411,36.154 L118.861,36.154 C118.677,36.242 118.408,36.242 118.125,36.242 L117.671,36.242 L117.671,35.873 L118.306,35.873 C118.492,35.873 118.59,35.873 118.677,35.688 C118.769,35.608 118.769,35.424 118.769,35.049 L118.769,31.65 C118.769,30.823 118.677,30.364 118.492,30.275 C118.492,30.176 118.408,30.176 118.213,30.176 L117.763,30.176 L117.763,29.72 C117.945,29.814 118.03,29.814 118.213,29.814 L119.043,29.814 C119.593,29.814 119.954,29.814 120.236,29.72 L120.513,29.72 C120.878,29.72 121.161,29.814 121.429,29.907 C121.71,30.09 121.893,30.275 122.082,30.451 C122.162,30.731 122.252,31.008 122.252,31.285 C122.252,31.65 122.162,32.02 121.972,32.293 C121.806,32.471 121.523,32.757 121.248,32.852 C121.972,34.318 122.897,35.688 124.01,36.886 L123.728,37.069 C123.366,36.801 122.995,36.517 122.713,36.154 C122.352,35.785 122.082,35.424 121.806,35.049 C121.429,34.68 121.248,34.403 120.975,34.039 C120.794,33.761 120.605,33.486 120.323,33.117 L120.323,33.117 Z" id="Fill-38" sketch:type="MSShapeGroup"></path>
                <path d="M130.898,35.515 C131.085,35.424 131.172,35.229 131.259,35.049 C131.259,34.773 131.347,34.68 131.347,34.592 L131.816,34.68 C131.626,35.049 131.438,35.608 131.347,36.242 C130.529,36.242 129.603,36.158 128.6,36.158 C127.674,36.158 126.942,36.242 126.3,36.242 L126.3,35.877 L126.764,35.877 C126.942,35.877 127.125,35.785 127.225,35.692 C127.305,35.515 127.305,35.323 127.305,35.049 L127.305,30.731 C127.225,30.451 127.225,30.364 127.125,30.271 C127.038,30.176 126.859,30.09 126.486,30.09 L126.3,30.09 L126.3,29.72 C126.486,29.72 126.942,29.814 127.774,29.814 C128.6,29.814 129.157,29.72 129.238,29.72 L129.238,30.176 L128.785,30.176 C128.318,30.176 128.046,30.451 128.046,31.096 L128.046,34.403 C128.046,34.68 128.046,34.947 128.138,35.143 C128.224,35.323 128.224,35.424 128.318,35.515 C128.419,35.608 128.6,35.608 128.689,35.692 C129.061,35.785 129.321,35.785 129.787,35.877 C130.339,35.785 130.7,35.692 130.898,35.515" id="Fill-39" sketch:type="MSShapeGroup"></path>
                <path d="M136.216,30.176 L136.216,34.773 C136.216,35.229 136.404,35.515 136.586,35.785 C136.866,35.966 137.236,36.059 137.786,36.059 C138.239,36.059 138.608,35.966 138.887,35.785 C139.251,35.692 139.527,35.424 139.718,35.143 C139.897,34.947 139.988,34.592 140.084,34.316 C140.18,33.943 140.268,33.58 140.268,33.213 C140.268,32.757 140.18,32.381 140.084,32.02 C139.897,31.65 139.718,31.285 139.442,31.008 C139.157,30.731 138.887,30.545 138.516,30.364 C138.147,30.176 137.786,30.09 137.321,30.09 L137.056,30.09 L136.216,30.176 L136.216,30.176 Z M134.568,30.09 L134.39,30.09 L134.39,29.72 C134.846,29.72 135.221,29.814 135.584,29.814 C135.763,29.814 136.131,29.814 136.586,29.72 L137.786,29.72 C138.337,29.72 138.797,29.814 139.251,30.001 C139.718,30.176 140.084,30.364 140.36,30.643 C140.632,31.008 140.813,31.377 140.917,31.744 C141.087,32.115 141.175,32.567 141.175,33.031 C141.175,33.486 141.087,33.943 141.002,34.316 C140.813,34.773 140.632,35.143 140.36,35.424 C140.084,35.785 139.718,36.059 139.251,36.242 C138.887,36.428 138.337,36.517 137.786,36.517 C137.599,36.517 137.321,36.428 136.962,36.428 C136.687,36.428 136.312,36.335 136.044,36.335 C135.669,36.242 135.393,36.242 135.221,36.242 L134.39,36.242 L134.39,35.877 L134.932,35.877 C135.031,35.877 135.221,35.877 135.307,35.785 C135.393,35.692 135.488,35.515 135.488,35.424 L135.488,31.744 C135.488,31.192 135.393,30.823 135.393,30.643 C135.393,30.364 135.307,30.271 135.117,30.176 C135.031,30.176 134.846,30.09 134.568,30.09 L134.568,30.09 Z" id="Fill-40" sketch:type="MSShapeGroup"></path>
            </g>
        </g>
    </g>
</svg>