<?xml version="1.0" encoding="UTF-8"?> <svg xmlns="http://www.w3.org/2000/svg" viewBox="0 0 32 32"><defs><style>.cls-1{fill:#231f20;}</style></defs><title>Product</title><g id="Layer_1" data-name="Layer 1"><path class="cls-1" d="M24.55,8.32H7.45a.63.63,0,0,0-.63.62l1.44,21.8a.63.63,0,0,0,.63.62H23.11a.63.63,0,0,0,.63-.62l1.44-21.8A.63.63,0,0,0,24.55,8.32Zm-8.39,17.5c-3,.07-5.52-2.95-5.61-6.74s2.28-6.93,5.29-7,5.52,2.95,5.61,6.74S19.17,25.75,16.16,25.82Z"></path><path class="cls-1" d="M20.58,21.5S17.41,18.84,17,18.63s-1-1.06-1.88-.28-3.73,3.16-3.73,3.16S12.94,25.4,16,25.32C19.45,25.24,20.58,21.5,20.58,21.5Z"></path><path class="cls-1" d="M17.87,5.33c0,1.9-1.27,2.17-1.87,2.17s-1.87-.27-1.87-2.17S16,.64,16,.64,17.87,3.43,17.87,5.33Z"></path></g></svg> 