<?xml version="1.0" encoding="UTF-8"?> <svg xmlns="http://www.w3.org/2000/svg" xmlns:xlink="http://www.w3.org/1999/xlink" viewBox="0 0 32 32"><defs><style>.cls-1{fill:none;}.cls-2{fill:#231f20;}.cls-3{clip-path:url(#clip-path);}</style><clipPath id="clip-path"><rect class="cls-1" x="6.24" y="0.64" width="6.46" height="9.57"></rect></clipPath></defs><title>Product</title><g id="Layer_1" data-name="Layer 1"><path class="cls-2" d="M26,31.22H5.27v-.49H25.94a3.7,3.7,0,0,0,2-2.24h.53a3.92,3.92,0,0,1-2.42,2.72Z"></path><path class="cls-2" d="M26,31.36H5.13v-.77H25.91a3.56,3.56,0,0,0,1.91-2.15l0-.09h.82l-.06.18a4,4,0,0,1-2.52,2.82ZM5.41,31.08H26a3.8,3.8,0,0,0,2.27-2.45h-.24A3.79,3.79,0,0,1,26,30.86H5.41Z"></path><rect class="cls-2" x="24.15" y="23.44" width="0.32" height="7.73" transform="translate(-12.15 24.64) rotate(-44.15)"></rect><path class="cls-2" d="M22.07,25.48a.47.47,0,0,1-.35-.15L8.83,12.49a.5.5,0,0,1,0-.7.48.48,0,0,1,.7,0L22.42,24.63a.5.5,0,0,1-.35.85Z"></path><g class="cls-3"><path class="cls-2" d="M8.28-1.08H8a1,1,0,0,1-.32.7A1.2,1.2,0,0,0,7.3.5a1.22,1.22,0,0,0,.39.89,1,1,0,0,1,.32.7.93.93,0,0,1-.32.7,1.24,1.24,0,0,0-.39.89h0a1.2,1.2,0,0,0,.39.88,1,1,0,0,1,.32.7,1,1,0,0,1-.32.7,1.2,1.2,0,0,0-.39.88h0a1.24,1.24,0,0,0,.39.89.93.93,0,0,1,.32.7,1,1,0,0,1-.32.7A1.2,1.2,0,0,0,7.3,10h.28a1,1,0,0,1,.32-.7,1.19,1.19,0,0,0,.38-.88,1.24,1.24,0,0,0-.38-.89.93.93,0,0,1,0-1.4,1.22,1.22,0,0,0,.38-.89h0a1.24,1.24,0,0,0-.38-.89.93.93,0,0,1-.32-.7A1,1,0,0,1,7.9,3a1.19,1.19,0,0,0,.38-.88h0a1.19,1.19,0,0,0-.38-.88A1,1,0,0,1,7.58.5,1,1,0,0,1,7.9-.2,1.19,1.19,0,0,0,8.28-1.08Z"></path><path class="cls-2" d="M9.75-1.08H9.47a1,1,0,0,1-.32.7A1.19,1.19,0,0,0,8.77.5a1.22,1.22,0,0,0,.38.89,1,1,0,0,1,.32.7.93.93,0,0,1-.32.7,1.24,1.24,0,0,0-.38.89h0a1.19,1.19,0,0,0,.38.88.93.93,0,0,1,0,1.4,1.19,1.19,0,0,0-.38.88h0a1.24,1.24,0,0,0,.38.89.93.93,0,0,1,.32.7,1,1,0,0,1-.32.7,1.19,1.19,0,0,0-.38.88H9a1,1,0,0,1,.32-.7,1.2,1.2,0,0,0,.39-.88,1.24,1.24,0,0,0-.39-.89.93.93,0,0,1,0-1.4,1.22,1.22,0,0,0,.39-.89h0a1.24,1.24,0,0,0-.39-.89A1,1,0,0,1,9,3.68,1,1,0,0,1,9.36,3a1.2,1.2,0,0,0,.39-.88h0a1.2,1.2,0,0,0-.39-.88A1,1,0,0,1,9,.5a1,1,0,0,1,.32-.7A1.2,1.2,0,0,0,9.75-1.08Z"></path><path class="cls-2" d="M10.82,1.21A1,1,0,0,1,10.51.5a.94.94,0,0,1,.31-.7,1.16,1.16,0,0,0,.39-.88h-.28a.94.94,0,0,1-.31.7,1.16,1.16,0,0,0-.39.88,1.18,1.18,0,0,0,.39.89.94.94,0,0,1,.31.7.92.92,0,0,1-.31.7,1.2,1.2,0,0,0-.39.89h0a1.16,1.16,0,0,0,.39.88.95.95,0,0,1,0,1.4,1.16,1.16,0,0,0-.39.88h0a1.2,1.2,0,0,0,.39.89.92.92,0,0,1,.31.7.94.94,0,0,1-.31.7,1.16,1.16,0,0,0-.39.88h.28a1,1,0,0,1,.31-.7,1.16,1.16,0,0,0,.39-.88,1.2,1.2,0,0,0-.39-.89.95.95,0,0,1,0-1.4,1.18,1.18,0,0,0,.39-.89h0a1.2,1.2,0,0,0-.39-.89,1,1,0,0,1-.31-.7,1,1,0,0,1,.31-.7,1.16,1.16,0,0,0,.39-.88h0A1.16,1.16,0,0,0,10.82,1.21Z"></path></g></g></svg> 