<?xml version="1.0" encoding="UTF-8"?> <svg xmlns="http://www.w3.org/2000/svg" viewBox="0 0 32 32"><defs><style>.cls-1{fill:#231f20;}</style></defs><title>Product</title><g id="Layer_1" data-name="Layer 1"><path class="cls-1" d="M18.18,31.57H12a.89.89,0,0,1-.88-.89v-16a.89.89,0,0,1,.88-.89h6.16a.88.88,0,0,1,.88.89v16A.88.88,0,0,1,18.18,31.57ZM12,14a.67.67,0,0,0-.66.67v16a.66.66,0,0,0,.66.66h6.16a.65.65,0,0,0,.66-.66v-16a.66.66,0,0,0-.66-.67Z"></path><rect class="cls-1" x="13.17" y="9.58" width="3.87" height="3.74" rx="0.09"></rect><path class="cls-1" d="M19,30.14,18.87,14.3l-.39-.43-6.92.07-.33.39s.09,10.33,0,14.1c0,3.6.37,2.9.37,2.9s5.87.18,6.66,0S19,30.14,19,30.14Zm-3.79-4.69c-1.38,0-2.53-1.35-2.57-3.09s1.05-3.17,2.43-3.2,2.53,1.35,2.57,3.09S16.55,25.42,15.17,25.45Z"></path><path class="cls-1" d="M17.2,23.47s-1.45-1.21-1.62-1.31-.47-.49-.87-.13S13,23.48,13,23.48s.7,1.78,2.1,1.75A2.48,2.48,0,0,0,17.2,23.47Z"></path><path class="cls-1" d="M15.13,11.76l-.08,0a.23.23,0,0,1-.15-.31L18.47.82a.25.25,0,0,1,.31-.16.26.26,0,0,1,.16.32L15.37,11.59A.27.27,0,0,1,15.13,11.76Z"></path><path class="cls-1" d="M15.06,12.09h0a.25.25,0,0,1-.24-.25L15,.56a.25.25,0,0,1,.25-.25h0a.26.26,0,0,1,.25.26l-.23,11.28A.25.25,0,0,1,15.06,12.09Z"></path><path class="cls-1" d="M15.07,11.76a.25.25,0,0,1-.23-.17L11.27,1a.25.25,0,0,1,.15-.32.26.26,0,0,1,.32.16l3.57,10.61a.25.25,0,0,1-.16.31Z"></path></g></svg> 