<?xml version="1.0" encoding="UTF-8"?> <svg xmlns="http://www.w3.org/2000/svg" viewBox="0 0 32 32"><defs><style>.cls-1{fill:#231f20;}.cls-2{fill:#060304;}</style></defs><title>Product</title><g id="Layer_1" data-name="Layer 1"><path class="cls-1" d="M2.5,22a.32.32,0,0,1-.09,0c-.23-.1-.15-.39,0-.77C3.57,17.81,8.1,9.53,9.28,8.31S13.81,6.85,14.09,7l.12,0V7.3l-.15.06c-2.1.8-3.69,1.82-4.24,2.73L9,11.6C3.56,21,2.81,22,2.5,22ZM12.87,7.42a6.59,6.59,0,0,0-3.3,1.17c-1.1,1.14-5.41,9-6.69,12.43,1.24-1.79,4.42-7.33,5.73-9.62.45-.79.77-1.34.88-1.52A7.76,7.76,0,0,1,12.87,7.42Z"></path><ellipse class="cls-1" cx="2.16" cy="22.39" rx="0.89" ry="0.98"></ellipse><path class="cls-1" d="M29.5,22C29.19,22,28.44,21,23,11.59l-.86-1.5c-.55-.91-2.14-1.93-4.24-2.73l-.13-.05,0-.29L17.91,7c.28-.11,3.67.18,4.81,1.35s5.71,9.5,6.88,12.87c.14.38.22.67,0,.77A.32.32,0,0,1,29.5,22ZM19.13,7.42a7.76,7.76,0,0,1,3.38,2.46c.11.18.43.73.87,1.51,1.32,2.29,4.49,7.84,5.74,9.63-1.28-3.41-5.59-11.29-6.69-12.43A6.59,6.59,0,0,0,19.13,7.42Z"></path><ellipse class="cls-1" cx="29.84" cy="22.39" rx="0.89" ry="0.98"></ellipse><path class="cls-2" d="M23.18,14.48a16.49,16.49,0,0,0-4.91-7.07l-.05-.69.38-.26,2-2.92L20,2.94l.15-.84-.79-.18-.21-.83-.8.12L17.91.48l-.75.33L16.6.19,16,.62,15.4.19l-.56.62L14.09.48l-.43.73-.8-.12-.21.83-.79.18.15.84-.58.6,2,2.92.38.26,0,.69a16.49,16.49,0,0,0-4.91,7.07c-2.21,6.3-4.1,17.19-4.1,17.19s8,0,11.28,0,11.28,0,11.28,0S25.39,20.78,23.18,14.48Zm-7,10.84c-2.63.06-4.82-2.58-4.9-5.89s2-6,4.62-6.1,4.82,2.58,4.9,5.89S18.76,25.26,16.14,25.32Z"></path><path class="cls-1" d="M20,21.55S17.23,19.23,16.9,19s-.89-.93-1.64-.24S12,21.56,12,21.56s1.33,3.39,4,3.32C19,24.81,20,21.55,20,21.55Z"></path></g></svg> 