<?xml version="1.0" encoding="UTF-8"?> <svg xmlns="http://www.w3.org/2000/svg" viewBox="0 0 32 32"><defs><style>.cls-1{fill:#231f20;}</style></defs><title>Product</title><g id="Layer_1" data-name="Layer 1"><rect class="cls-1" x="14.77" y="12.99" width="4.38" height="4.13" rx="0.4"></rect><path class="cls-1" d="M10.14,18c0,1.25-.84,1.43-1.24,1.43S7.67,19.22,7.67,18A7.59,7.59,0,0,1,8.9,14.86,7.56,7.56,0,0,1,10.14,18Z"></path><path class="cls-1" d="M8.94,14.3l-.5-.59,1-1.83,5.88-5.7,1.46,1.39-5.7,5.74Zm-.1-.64.19.23,1.9-.87,5.38-5.44-1-.94L9.7,12.1Z"></path><path class="cls-1" d="M13.52,5,18,9.39,20.2,7.31s-.36-2.08,0-2.78a17.63,17.63,0,0,1,2.05-2.25A1.47,1.47,0,0,0,22.09.66a1.22,1.22,0,0,0-1.56,0s-1.75,2-2.38,2.12a15,15,0,0,1-2.61-.07Z"></path><path class="cls-1" d="M18,9.62,13.29,5l2.18-2.43h.08a15.71,15.71,0,0,0,2.56.07A9.71,9.71,0,0,0,20.41.55a1.35,1.35,0,0,1,1.79,0,1.59,1.59,0,0,1,.23,1.82l0,0a17.45,17.45,0,0,0-2,2.21,6.16,6.16,0,0,0,0,2.67l0,.09ZM13.75,5,18,9.16,20,7.25a5.94,5.94,0,0,1,.07-2.8,16.31,16.31,0,0,1,2.06-2.27A1.28,1.28,0,0,0,22,.78c-.57-.57-1.31,0-1.34,0-.16.19-1.78,2-2.45,2.15a13.52,13.52,0,0,1-2.58-.06Z"></path><polygon class="cls-1" points="13.38 10.82 10.77 10.82 9.57 12 8.64 13.69 8.99 14.09 10.92 13.22 13.38 10.82"></polygon><rect class="cls-1" x="14.54" y="14.71" width="4.85" height="0.75" rx="0.36"></rect><rect class="cls-1" x="14.54" y="13.65" width="4.85" height="0.75" rx="0.36"></rect><path class="cls-1" d="M19.18,15.94H14.74c-.16,0-2.17,1.34-2.17,2.58v12.8a.28.28,0,0,0,.28.28h8.22a.28.28,0,0,0,.28-.28V18.52C21.35,17.28,19.34,15.94,19.18,15.94ZM17.06,28.3c-1.9,0-3.49-1.86-3.54-4.26s1.44-4.37,3.34-4.41,3.49,1.86,3.54,4.25S19,28.25,17.06,28.3Z"></path><path class="cls-1" d="M19.85,25.57s-2-1.68-2.24-1.81-.64-.67-1.18-.18-2.36,2-2.36,2S15,28,17,28C19.14,27.93,19.85,25.57,19.85,25.57Z"></path></g></svg> 