<?xml version="1.0" encoding="UTF-8"?> <svg xmlns="http://www.w3.org/2000/svg" viewBox="0 0 32 32"><defs><style>.cls-1{fill:#231f20;}</style></defs><title>Product</title><g id="Layer_1" data-name="Layer 1"><path class="cls-1" d="M17.41,22.69c0,1.42-1,1.63-1.41,1.63s-1.41-.21-1.41-1.63A8.57,8.57,0,0,1,16,19.16,8.57,8.57,0,0,1,17.41,22.69Z"></path><path class="cls-1" d="M13.62,7.82h-.28A1.12,1.12,0,0,1,13.72,7,.94.94,0,0,0,14,6.3a.9.9,0,0,0-.3-.67,1.15,1.15,0,0,1,0-1.71.9.9,0,0,0,.3-.67.94.94,0,0,0-.3-.67,1.14,1.14,0,0,1-.38-.85,1.16,1.16,0,0,1,.38-.85A.92.92,0,0,0,14,.21h.28a1.16,1.16,0,0,1-.38.85.9.9,0,0,0,0,1.34,1.15,1.15,0,0,1,0,1.71.89.89,0,0,0,0,1.33,1.15,1.15,0,0,1,0,1.71A.9.9,0,0,0,13.62,7.82Z"></path><path class="cls-1" d="M12.17,7.82H11.9A1.12,1.12,0,0,1,12.27,7a.94.94,0,0,0,.3-.67.9.9,0,0,0-.3-.67,1.17,1.17,0,0,1,0-1.71.9.9,0,0,0,.3-.67.94.94,0,0,0-.3-.67,1.13,1.13,0,0,1-.37-.85,1.15,1.15,0,0,1,.37-.85.92.92,0,0,0,.3-.67h.28a1.16,1.16,0,0,1-.38.85.9.9,0,0,0,0,1.34,1.15,1.15,0,0,1,0,1.71.89.89,0,0,0,0,1.33,1.15,1.15,0,0,1,0,1.71A.9.9,0,0,0,12.17,7.82Z"></path><path class="cls-1" d="M15.07,7.82h-.28A1.12,1.12,0,0,1,15.17,7a.94.94,0,0,0,.3-.67.9.9,0,0,0-.3-.67,1.15,1.15,0,0,1,0-1.71.9.9,0,0,0,.3-.67.94.94,0,0,0-.3-.67,1.14,1.14,0,0,1-.38-.85,1.16,1.16,0,0,1,.38-.85.92.92,0,0,0,.3-.67h.27a1.15,1.15,0,0,1-.37.85.9.9,0,0,0,0,1.34,1.17,1.17,0,0,1,0,1.71.89.89,0,0,0,0,1.33,1.17,1.17,0,0,1,0,1.71A.9.9,0,0,0,15.07,7.82Z"></path><path class="cls-1" d="M16.52,7.82h-.28A1.15,1.15,0,0,1,16.61,7a.91.91,0,0,0,.31-.67.87.87,0,0,0-.31-.67,1.17,1.17,0,0,1,0-1.71.87.87,0,0,0,.31-.67.91.91,0,0,0-.31-.67,1.17,1.17,0,0,1-.37-.85,1.19,1.19,0,0,1,.37-.85.89.89,0,0,0,.31-.67h.27a1.19,1.19,0,0,1-.37.85.9.9,0,0,0,0,1.34,1.17,1.17,0,0,1,0,1.71.89.89,0,0,0,0,1.33,1.17,1.17,0,0,1,0,1.71A.9.9,0,0,0,16.52,7.82Z"></path><path class="cls-1" d="M18,7.82H17.7A1.12,1.12,0,0,1,18.08,7a.94.94,0,0,0,.3-.67.9.9,0,0,0-.3-.67,1.15,1.15,0,0,1,0-1.71.9.9,0,0,0,.3-.67.94.94,0,0,0-.3-.67,1.14,1.14,0,0,1-.38-.85,1.16,1.16,0,0,1,.38-.85.92.92,0,0,0,.3-.67h.28a1.16,1.16,0,0,1-.38.85.9.9,0,0,0,0,1.34,1.15,1.15,0,0,1,0,1.71.89.89,0,0,0,0,1.33,1.15,1.15,0,0,1,0,1.71A.9.9,0,0,0,18,7.82Z"></path><path class="cls-1" d="M19.43,7.82h-.28A1.12,1.12,0,0,1,19.53,7a.94.94,0,0,0,.3-.67.9.9,0,0,0-.3-.67,1.15,1.15,0,0,1,0-1.71.9.9,0,0,0,.3-.67.94.94,0,0,0-.3-.67,1.14,1.14,0,0,1-.38-.85,1.16,1.16,0,0,1,.38-.85.92.92,0,0,0,.3-.67h.27a1.15,1.15,0,0,1-.37.85.9.9,0,0,0,0,1.34,1.17,1.17,0,0,1,0,1.71.89.89,0,0,0,0,1.33,1.17,1.17,0,0,1,0,1.71A.9.9,0,0,0,19.43,7.82Z"></path><path class="cls-1" d="M6.31,14.73,7,28.3a.46.46,0,0,0,.49.43h.75l.13,2.76a.38.38,0,0,0,.38.36H23.26a.38.38,0,0,0,.38-.36l.13-2.76h.75A.46.46,0,0,0,25,28.3l.68-13.57ZM22.08,25H9.92l-.37-7.87h12.9Z"></path><path class="cls-1" d="M25.76,14.19v-4a.13.13,0,0,0-.13-.13H6.37a.13.13,0,0,0-.13.13v4Z"></path></g></svg> 