<svg id="Layer_1" data-name="Layer 1" xmlns="http://www.w3.org/2000/svg" viewBox="0 0 100 100"><defs><style>.cls-1{fill:#dcdedf;}</style></defs><title>Untitled-2</title><g id="Rectangle_578" data-name="Rectangle 578"><path class="cls-1" d="M25.12,3.08V25h-22v-22h22m3-3H.17V28h28V.08Z"/></g><g id="Rectangle_582" data-name="Rectangle 582"><path class="cls-1" d="M25.12,39V61h-22V39h22m3-3H.17V64h28V36Z"/></g><g id="Rectangle_585" data-name="Rectangle 585"><path class="cls-1" d="M25.12,75v22h-22V75h22m3-3H.17v28h28V72Z"/></g><g id="Rectangle_579" data-name="Rectangle 579"><path class="cls-1" d="M61.06,3.08V25h-22v-22h22m3-3H36.11V28h28V.08Z"/></g><g id="Rectangle_581" data-name="Rectangle 581"><path class="cls-1" d="M61.06,39V61h-22V39h22m3-3H36.11V64h28V36Z"/></g><g id="Rectangle_584" data-name="Rectangle 584"><path class="cls-1" d="M61.06,75v22h-22V75h22m3-3H36.11v28h28V72Z"/></g><g id="Rectangle_580" data-name="Rectangle 580"><path class="cls-1" d="M97,3.08V25h-22v-22H97m3-3H72.05V28h28V.08Z"/></g><g id="Rectangle_583" data-name="Rectangle 583"><path class="cls-1" d="M97,39V61h-22V39H97m3-3H72.05V64h28V36Z"/></g><g id="Rectangle_586" data-name="Rectangle 586"><path class="cls-1" d="M97,75v22h-22V75H97m3-3H72.05v28h28V72Z"/></g></svg>