<svg xmlns="http://www.w3.org/2000/svg" xmlns:xlink="http://www.w3.org/1999/xlink" width="215" height="21" viewBox="0 0 215 21">
  <defs>
    <clipPath id="clip-Logo_white2">
      <rect width="215" height="21"/>
    </clipPath>
  </defs>
  <g id="Logo_white2" data-name="Logo white2" clip-path="url(#clip-Logo_white2)">
    <rect width="215" height="21"/>
    <path id="Path_465" data-name="Path 465" d="M64.187,43.036l-.749-.315a1.473,1.473,0,0,1-1.013-1.4,1,1,0,0,1,.4-.681,1.064,1.064,0,0,1,.673-.289.792.792,0,0,1,.57.187h0a.5.5,0,0,1,.264.443h0a.579.579,0,0,1,.077.349v.349h.749v-1.7h-.519a5.356,5.356,0,0,0-1.013-.153,1.89,1.89,0,0,0-1.124.221,1.754,1.754,0,0,0-.664.664,1.7,1.7,0,0,0-.358,1.149,2.359,2.359,0,0,0,1.447,2.129l.851.536A1.822,1.822,0,0,1,64.9,46.034a1.252,1.252,0,0,1-.426,1,1.192,1.192,0,0,1-.851.289,1.277,1.277,0,0,1-1-.4,1.49,1.49,0,0,1-.4-1.1v-.647h-.749v.111a4.172,4.172,0,0,0,.06.656,5.108,5.108,0,0,1,.051.63.681.681,0,0,1-.1.383v.579H61.6a3.2,3.2,0,0,1,.851.315l.255.068a3.278,3.278,0,0,0,.851.153,2.444,2.444,0,0,0,1.345-.341,2.9,2.9,0,0,0,.783-.851h0a3.662,3.662,0,0,0,.221-1.218,2.469,2.469,0,0,0-.451-1.456A2.954,2.954,0,0,0,64.187,43.036Z" transform="translate(-10.29 -33.775)" fill="#fff"/>
    <path id="Path_466" data-name="Path 466" d="M75.366,45.73a1.524,1.524,0,0,1-.2.911h0c-.051.145-.179.349-.749.349h-1.3c-.187,0-.392,0-.468-.077a.485.485,0,0,1-.1-.187.618.618,0,0,0-.077-.187V43.984l1.7.1c.451,0,.536.119.536.324v.536h.647v-.111a6.283,6.283,0,0,0-.111-1.388,1.056,1.056,0,0,1,0-.264,3.108,3.108,0,0,0,.068-.6v-.043h-.647v.536c0,.145-.051.213-.1.213h0c-.077.077-.136.077-.358.077l-1.822.1V40.689H74a1.379,1.379,0,0,1,.579.2,1,1,0,0,1,.281.468v.511H75.5l-.119-1.924h-.1a10.074,10.074,0,0,0-1.107.043c-.392.043-.988.068-1.567.068a10.826,10.826,0,0,1-1.447-.06,7.77,7.77,0,0,0-1.132-.051H69.9v.647h.639a1.541,1.541,0,0,1,.46.068h.136a.851.851,0,0,1,.153.536h0a4.342,4.342,0,0,1,.111,1.354V46.3a1.209,1.209,0,0,1-.179.673h0c0,.094-.068.111-.426.111h-.851v.639h.043a15.31,15.31,0,0,0,1.7-.06,11.263,11.263,0,0,1,1.4-.043h.851c.5,0,1.132.068,1.839.068h.094l.238-2.137h-.758Z" transform="translate(-11.541 -33.795)" fill="#fff"/>
    <path id="Path_467" data-name="Path 467" d="M87.128,45.794c-.1.3-.2.485-.383.579A5.408,5.408,0,0,1,86,46.7a2.435,2.435,0,0,1-.92.094h-.213a2.835,2.835,0,0,1-1.558-.417,3.627,3.627,0,0,1-1.771-2.989,3.593,3.593,0,0,1,.528-1.473A1.848,1.848,0,0,1,83.084,41h0a2.444,2.444,0,0,1,1.541-.4,4.062,4.062,0,0,1,1.26.2,1.3,1.3,0,0,1,.69.485h0a.69.69,0,0,1,.179.46v.043h0a.29.29,0,0,1,.077.247v.1h.639v-2h-.843a2.486,2.486,0,0,0-.562-.077,2.71,2.71,0,0,0-.366-.1,1.4,1.4,0,0,1-.349-.1h-.7a3.457,3.457,0,0,0-2.078.545,3.755,3.755,0,0,0-1.55,1.439,4.479,4.479,0,0,0-.553,2.086,4.36,4.36,0,0,0,.553,1.975,3.815,3.815,0,0,0,1.439,1.55A4.649,4.649,0,0,0,84.651,48c.988,0,2.188-.1,2.35-.588l1.235-2.35-.63-.315Z" transform="translate(-13.111 -33.782)" fill="#fff"/>
    <path id="Path_468" data-name="Path 468" d="M97,43.724a3.134,3.134,0,0,0,.775-.6h0a2.231,2.231,0,0,0,.341-1.235,1.88,1.88,0,0,0-.732-1.524l-.238-.213h0l-.417-.128h-.06a2.554,2.554,0,0,0-.468-.068h-.511a4.811,4.811,0,0,1-1.362.1H93.314c-.179,0-.383,0-.46-.077l-.179-.187v.9h.851v.068h.06c.077,0,.255.264.255,1.516v3.968a2.555,2.555,0,0,1-.068.579,1.157,1.157,0,0,0,0,.145c-.068.128-.119.136-.434.136H92.59v.639h.647a2.35,2.35,0,0,0,.851-.1h.988c.23,0,.519.06.851.068h.417V47.07h-.536c-.46,0-.588-.136-.656-.264a1.5,1.5,0,0,1-.2-.707v-2h.792a4.664,4.664,0,0,0,.366.545,2.9,2.9,0,0,0,.366.485l.1.179.077.128a1.778,1.778,0,0,1,.119.145.926.926,0,0,0,.111.145l.094.1c.145.162.3.315.477.494a11.581,11.581,0,0,0,1.039,1.311,5.39,5.39,0,0,0,.749.775l.332.307.06.06.494-.324-.077-.094A23.841,23.841,0,0,1,97,43.724Zm-.528-2.861.145.153.068.077.077.085.077.119v.06a1.609,1.609,0,0,1,.094.213,1.311,1.311,0,0,1,.094.6,1.345,1.345,0,0,1-.187.681,3.032,3.032,0,0,1-.587.5h-.094l-.238.077H95.6a1.218,1.218,0,0,1-.289.051h-.221a.264.264,0,0,1-.111,0l-.1-.043v-2.81h.647A2.094,2.094,0,0,1,96.473,40.863Z" transform="translate(-14.912 -33.773)" fill="#fff"/>
    <path id="Path_469" data-name="Path 469" d="M109.492,45.73a1.465,1.465,0,0,1-.2.911h0c-.051.153-.187.358-.758.358h-1.294c-.179,0-.383,0-.46-.077a.434.434,0,0,1-.1-.187,1.1,1.1,0,0,0-.085-.187V43.993l1.7.1c.451,0,.536.119.536.324v.536h.639v-.111a6.812,6.812,0,0,0-.1-1.388,1.6,1.6,0,0,1,0-.264,2.555,2.555,0,0,0,.068-.6v-.051h-.639v.536c0,.145-.06.213-.111.213h0c-.068.077-.136.077-.358.077l-1.814.1V40.689h1.609a1.456,1.456,0,0,1,.579.2.979.979,0,0,1,.272.468v.511h.656L109.5,39.94h-.094a10.227,10.227,0,0,0-1.115.043c-.4.043-.988.068-1.567.068s-1.022-.06-1.465-.06-.775-.051-1.132-.051H104v.647h.647a1.524,1.524,0,0,1,.451.068h.136a.792.792,0,0,1,.162.536h0a4.343,4.343,0,0,1,.1,1.252V46.2a1.149,1.149,0,0,1-.187.673h0c0,.094-.068.111-.426.111h-.851v.639h.111a15.387,15.387,0,0,0,1.7-.06,11.31,11.31,0,0,1,1.4-.043h.851c.511,0,1.141.068,1.848.068h.094l.238-2.137h-.758Z" transform="translate(-16.606 -33.795)" fill="#fff"/>
    <path id="Path_470" data-name="Path 470" d="M118.265,40.049a30.072,30.072,0,0,1-3.406-.111h-.119v1.814l.639.162v-.136a.358.358,0,0,0-.085-.281.908.908,0,0,1,.068-.23.579.579,0,0,1,.094-.272h0v-.043a.451.451,0,0,1,.358-.111h2.146V46.8c0,.06-.094.162-.17.23a1.465,1.465,0,0,1-.681.094h-.647v.639h.111a7.369,7.369,0,0,0,1.294-.068,1.86,1.86,0,0,1,.63,0h.656c.4,0,.911.068,1.49.068h.111v-.639h-.536a1.8,1.8,0,0,1-.8-.094,1.362,1.362,0,0,1-.272-.366V40.841h1.7a1.285,1.285,0,0,1,.324.06h.162a.323.323,0,0,1,.051.221v.043h0c.077.077.077.281.077.46v.111h.639V39.93h-.119A34.241,34.241,0,0,1,118.265,40.049Z" transform="translate(-18.202 -33.794)" fill="#fff"/>
    <path id="Path_471" data-name="Path 471" d="M144.058,39.972a6.311,6.311,0,0,1-.954.077,8.99,8.99,0,0,1-1.073-.077h-.426v.749h.639c.221,0,.281,0,.358.077h0c.051,0,.1.077.1.213a.307.307,0,0,1,0,.094,1.26,1.26,0,0,0-.077.426l-1.4,4.1-1.6-4.317v-.187a.46.46,0,0,0-.077-.221l.068-.111a.639.639,0,0,1,.06-.1h.851v-.8h-.136a5.654,5.654,0,0,1-1.473.111,5.3,5.3,0,0,1-1.371-.111h-.128v.783h.536c.375,0,.426.153.426.324v.519l-1.49,4.419-1.4-4.1a2.333,2.333,0,0,1-.1-.715c0-.281,0-.324.111-.324h.043c.068-.077.136-.077.349-.077h.434v-.749h-.111a5.532,5.532,0,0,0-.613,0,6.814,6.814,0,0,1-.758.06,6.5,6.5,0,0,1-.851-.068c-.213,0-.409-.043-.613-.043h-.1v.647h.1a.9.9,0,0,1,.468.068h.051a.732.732,0,0,0,.111.145c.051.051.068.1.111.255l.077.238.639,1.609v.051c.2.511.417,1.039.622,1.7h0a10.752,10.752,0,0,1,.519,1.584,8.581,8.581,0,0,1,.426,1.584v.085h.707v-.077c.051-.221.111-.46.162-.707s.111-.477.162-.69.1-.358.162-.553a7.952,7.952,0,0,0,.264-.937.953.953,0,0,1,.145-.349,6.3,6.3,0,0,0,.392-1.149,5.3,5.3,0,0,0,.366-1.047c.068.128.136.264.2.417s.119.272.187.4a12.3,12.3,0,0,0,.545,1.516c.1.264.187.536.264.8s.162.536.272.851a5.824,5.824,0,0,1,.3.8c.068.221.145.46.238.69v.068h.46v-.068A7.679,7.679,0,0,0,141.5,47c.085-.307.153-.528.264-.851s.17-.639.29-1.013c.077-.238.162-.5.238-.775a6.361,6.361,0,0,0,.5-1.465v-.145a5.33,5.33,0,0,0,.434-1.184.7.7,0,0,0,.119-.281,1.551,1.551,0,0,1,.094-.255v-.043a.656.656,0,0,1,.536-.536h.324V39.81h-.111Q144.119,39.889,144.058,39.972Z" transform="translate(-20.954 -33.776)" fill="#fff"/>
    <path id="Path_472" data-name="Path 472" d="M154.665,40.357a3.627,3.627,0,0,0-1.882-.647h-.213a3.5,3.5,0,0,0-1.558.341,4.572,4.572,0,0,0-1.3.851,4.76,4.76,0,0,0-.851,1.209,3.405,3.405,0,0,0-.23,1.55,4.777,4.777,0,0,0,.451,2.205h0a6.7,6.7,0,0,0,1.516,1.507,3.174,3.174,0,0,0,.451.221l.145.051.366.119h.187l.349.068h.7a2.427,2.427,0,0,0,.247,0h.2a1.7,1.7,0,0,0,.3-.06h.2a1.973,1.973,0,0,0,.315-.111l.153-.051a4.363,4.363,0,0,0,.443-.23,3.065,3.065,0,0,0,1.558-1.345,4.614,4.614,0,0,0,.553-2.188,4.5,4.5,0,0,0-.562-2.1,4.666,4.666,0,0,0-1.533-1.388Zm.485,5.3a2.554,2.554,0,0,1-.92,1.115l-.2.077a3.406,3.406,0,0,1-1.354.332h-.111a2.435,2.435,0,0,1-1.448-.519,2.648,2.648,0,0,1-1.039-1.354,3.449,3.449,0,0,1-.409-1.771,4.385,4.385,0,0,1,.417-1.558,2.554,2.554,0,0,1,1.039-1.039,2.452,2.452,0,0,1,1.55-.4,2.35,2.35,0,0,1,1.141.315,2.758,2.758,0,0,1,.911.707,8.417,8.417,0,0,1,.63,1.039,5.422,5.422,0,0,1,.213,1.26,2.92,2.92,0,0,1-.409,1.754Z" transform="translate(-23.233 -33.761)" fill="#fff"/>
    <path id="Path_473" data-name="Path 473" d="M165.758,43.739a2.937,2.937,0,0,0,.792-.639,2.231,2.231,0,0,0,.341-1.235,3.534,3.534,0,0,0-.213-1v-.043a5.806,5.806,0,0,0-.766-.656h0l-.417-.128h-.06a2.554,2.554,0,0,0-.468-.068h-.519a4.777,4.777,0,0,1-1.362.1h-1.013a.8.8,0,0,1-.485-.1l-.162-.077v.851h.851v.068h.06c.077,0,.264.264.264,1.516v3.968c0,.375,0,.6-.077.673h0c-.085.153-.128.153-.341.153h-.851v.639h.639a2.393,2.393,0,0,0,.851-.1h.622a3.518,3.518,0,0,1,.468.043c.2,0,.443.051.707.06h.426v-.639h-.536c-.46,0-.587-.136-.647-.264a1.405,1.405,0,0,1-.2-.707V44.113h.8l.162.221h0l.281.383.077.094.187.281.162.23a7.668,7.668,0,0,0,.8.945,11.318,11.318,0,0,0,1.115,1.379,5.78,5.78,0,0,0,1.2,1.09h.06l.485-.324-.085-.094A20.129,20.129,0,0,1,165.758,43.739Zm-.238-.7h0a.681.681,0,0,1-.111.111h0a.8.8,0,0,1-.153.1H165.2a.443.443,0,0,1-.128.051.562.562,0,0,0-.179.068.469.469,0,0,1-.111.043h-.349a1.286,1.286,0,0,1-.3.051h-.213a.264.264,0,0,1-.111,0l-.1-.043v-2.81h.639a2.027,2.027,0,0,1,.9.2l.145.145a.853.853,0,0,1,.111.136,1.6,1.6,0,0,1,.1.153h0a.952.952,0,0,1,.094.213,1.209,1.209,0,0,1,.1.6,1.439,1.439,0,0,1-.2.707.8.8,0,0,1-.085.281Z" transform="translate(-25.122 -33.788)" fill="#fff"/>
    <path id="Path_474" data-name="Path 474" d="M179.059,45.737a.306.306,0,0,1,0,.094,1.057,1.057,0,0,0-.077.417.954.954,0,0,1-.375.468h0a2.384,2.384,0,0,1-1.209.4c-.247-.051-.451-.077-.63-.1a5.414,5.414,0,0,1-.613-.1.638.638,0,0,0-.23-.111.528.528,0,0,1-.17-.085.486.486,0,0,1-.1-.187.623.623,0,0,0-.094-.213,2.111,2.111,0,0,1-.094-.809V41.7c0-.647.247-.962.749-.962h.647V39.99h-.3a13.915,13.915,0,0,1-1.524.094,11.29,11.29,0,0,1-1.4-.085h-.434v.647h.324c.409,0,.6.094.673.179a.448.448,0,0,1,.119.255l.068.221v5.024a1.643,1.643,0,0,1-.085.69.766.766,0,0,1-.451.17h-.647v.639h.111a10.074,10.074,0,0,0,1.107-.043c.392-.043,1-.06,1.575-.06s1.2,0,1.763.051.988.051,1.456.051h.085V47.73a5.885,5.885,0,0,1,.528-1.788l.06-.119-.8-.162Z" transform="translate(-26.887 -33.803)" fill="#fff"/>
    <path id="Path_475" data-name="Path 475" d="M192.05,42.388a3.849,3.849,0,0,0-.664-1.337,2.768,2.768,0,0,0-.622-.451,5.3,5.3,0,0,0-.707-.324,2.061,2.061,0,0,0-.8-.255l-.315-.051h-2.052a5.432,5.432,0,0,1-1.158.111,4.965,4.965,0,0,1-.6-.051,7.332,7.332,0,0,0-.792-.06h-.1v.647h.315a1.541,1.541,0,0,1,.46.068h.162c.162.085.238.162.238.434v.332a6.207,6.207,0,0,1,.077.954v4.257a.732.732,0,0,1-.187.358.579.579,0,0,1-.349.077H184.2v.639h1.064a3.678,3.678,0,0,1,.971.111,3.96,3.96,0,0,1,.519.051,4.317,4.317,0,0,0,.553.051,3.227,3.227,0,0,1,.622.068,1.848,1.848,0,0,0,.341,0,1.9,1.9,0,0,0,.315,0,3.679,3.679,0,0,0,1.439-.315,3.023,3.023,0,0,0,1.362-.894,3.942,3.942,0,0,0,.775-1.337,6.487,6.487,0,0,0,.213-1.524,3.406,3.406,0,0,0-.324-1.558Zm-1.209,3.15a2.087,2.087,0,0,1-.366.783,1.6,1.6,0,0,1-.92.707l-.383.179a2.606,2.606,0,0,1-.851.136,2.444,2.444,0,0,1-1.32-.29,1.856,1.856,0,0,1-.417-1.1V40.685l.851-.094h.324a2.9,2.9,0,0,1,.962.179h.213l.17.077a3.755,3.755,0,0,1,1.047.732,4.385,4.385,0,0,1,.724,1.124,5.446,5.446,0,0,1,.213,1.371,5.2,5.2,0,0,1-.213,1.252Z" transform="translate(-28.52 -33.8)" fill="#fff"/>
  </g>
</svg>
