<svg id="Layer_1" data-name="Layer 1" xmlns="http://www.w3.org/2000/svg" viewBox="0 0 257 51.11"><defs><style>.cls-1{fill:#fff;}</style></defs><title>LOGO Typo-KMKM</title><path class="cls-1" d="M51.82,21.16,43,.81h-.46L40.33,5.75,34,19.89c-.8,2-2,4.95-4.36,5.06-2.19,0-3.45-1.38-5.41-3.91L15.84,10.7,24,4.14C25.73,2.76,26.76,2,28.37,2V1.27H18.83V2c1.38,0,2.76.11,2.76,1.38C21.59,4,21,4.6,19.41,6l-8.74,7V5.87c0-3,0-3.91,2.87-3.91V1.27H1.36V2c3.45,0,3.45.92,3.45,3.91V21c0,3,0,3.91-3.45,3.91v.69h12.3V25c-3,0-3-.92-3-3.91V14.83l.92-.69,5.29,6.67c.57.58,1.95,2.3,1.95,3.11s-1.26,1-1.95,1v.69h20.8V25c-1.84-.11-3.22-.23-3.22-1.95a6.57,6.57,0,0,1,.69-2.3l.92-2h8.51l1.61,3.68a2.74,2.74,0,0,1,.34,1.38C46.53,25,44.69,25,43.66,25v.69H55.5V25C53.43,25,52.51,22.77,51.82,21.16Zm-11.49-3.8H36.65l3.68-8.27L44,17.36Z"/><path class="cls-1" d="M80,22.88l-6.32-8.74c3-.57,5.52-2.87,5.52-6,0-4.72-3.56-6.9-9.08-6.9H56.53V2c3.57,0,3.57.92,3.57,3.91V21c0,3,0,3.91-3.57,3.91v.69H69.18V25C65.73,25,65.73,24,65.73,21V14.6h1.61l2.07,2.88,5.75,8.16h7.7V25C81.48,25,80.91,24.26,80,22.88ZM69.41,13.11a8.84,8.84,0,0,1-2,.23H65.73V2.76h3.68c2.53.46,3.79,2.07,3.79,5.41C73.2,10.7,72.28,12.54,69.41,13.11Z"/><path class="cls-1" d="M99.87,17.36,93,1.27H83.09V2c3.45,0,3.45.92,3.45,3.91V22c0,2.07-1,3-3.45,3v.69h8.28V25c-2.53,0-3.45-.92-3.45-3V3.8l9.42,21.84h.46L107,3.57V21c0,3,0,3.91-3.45,3.91v.69h12.76V25c-3.45,0-3.45-.92-3.45-3.91V5.87c0-3,0-3.91,3.45-3.91V1.27h-9.89Z"/><path class="cls-1" d="M160.91,1.16h-2.64L145.74,13.8V1.16h-2.42V25c-2.07,0-3-2.18-3.68-3.79l-9-20.35h-.35l-2.18,4.94-6.32,14.14c-.81,2-2,4.95-4.48,5.06v.69h8.16V25c-1.84-.11-3.22-.23-3.22-1.95a6.36,6.36,0,0,1,.69-2.3l.92-2h8.5L134,22.42a2.75,2.75,0,0,1,.35,1.38c0,1.15-1.84,1.15-2.88,1.15v.69h14.26V16.1l3.79-3.8,10.23,13.34h2.76L151.14,10.93Zm-32.76,16.2h-3.68l3.68-8.27,3.68,8.27Z"/><path class="cls-1" d="M174.7,1.16h-1.26l-9.65,24.48h2.41l3-7.7h11.15l2.87,7.7h2.3L176.08,1.16Zm0,14.94h-4.94L174.7,3.34V3.11l4.83,13Z"/><polygon class="cls-1" points="200.34 22.88 192.29 1.16 188.73 1.16 188.73 25.64 191.14 25.64 191.14 3.68 199.19 25.64 201.38 25.64 209.42 3.68 209.42 25.64 211.84 25.64 211.84 1.16 208.27 1.16 200.34 22.88"/><polygon class="cls-1" points="219.65 13.91 232.3 13.91 232.3 11.85 219.65 11.85 219.65 2.99 233.68 2.99 233.68 1.16 217.35 1.16 217.35 25.64 234.02 25.64 234.02 23.8 219.65 23.8 219.65 13.91"/><polygon class="cls-1" points="235.86 1.16 235.86 2.99 243.68 2.99 243.68 25.64 246.09 25.64 246.09 2.99 253.91 2.99 253.91 1.16 235.86 1.16"/><path class="cls-1" d="M64.66,43.6l-.88-.37a1.73,1.73,0,0,1-1.19-1.65,1.18,1.18,0,0,1,.47-.8,1.25,1.25,0,0,1,.79-.34.93.93,0,0,1,.67.22l0,0a.59.59,0,0,1,.31.52v0l0,0a.68.68,0,0,1,.09.41V42h.88v-2h-.61A6.29,6.29,0,0,0,64,39.82a2.22,2.22,0,0,0-1.32.26,2.06,2.06,0,0,0-.78.78,2,2,0,0,0-.42,1.35,2.77,2.77,0,0,0,1.7,2.5l1,.63a2.14,2.14,0,0,1,1.32,1.78A1.47,1.47,0,0,1,65,48.29a1.4,1.4,0,0,1-1,.34,1.5,1.5,0,0,1-1.17-.47,1.75,1.75,0,0,1-.47-1.29v-.76h-.88v.13a4.9,4.9,0,0,0,.07.77,6,6,0,0,1,.06.74.8.8,0,0,1-.12.45v.68h.13a3.76,3.76,0,0,1,1,.37l.3.08a3.85,3.85,0,0,0,1,.18,2.87,2.87,0,0,0,1.58-.4,3.4,3.4,0,0,0,.92-1v0a4.3,4.3,0,0,0,.26-1.43,2.9,2.9,0,0,0-.53-1.71A3.47,3.47,0,0,0,64.66,43.6Z"/><path class="cls-1" d="M76.32,46.74a1.79,1.79,0,0,1-.23,1.07l0,0c-.06.17-.21.41-.88.41H73.68c-.22,0-.46,0-.55-.09a.57.57,0,0,1-.12-.22c0-.06-.05-.13-.09-.22v-3l2,.12c.53,0,.63.14.63.38v.63h.76v-.13a7.38,7.38,0,0,0-.13-1.63,1.24,1.24,0,0,1,0-.31,3.65,3.65,0,0,0,.08-.7V43h-.76v.63c0,.17-.06.25-.12.25h0l0,0c-.09.09-.16.09-.42.09l-2.14.12V40.82h1.89a1.62,1.62,0,0,1,.68.23,1.18,1.18,0,0,1,.33.55v.6h.76l-.14-2.26h-.12c-.4,0-.84,0-1.3.05s-1.16.08-1.84.08-1.16,0-1.7-.07-.91-.06-1.33-.06H69.9v.76h.75a1.81,1.81,0,0,1,.54.08l.16,0a1,1,0,0,1,.18.63v0A5.1,5.1,0,0,1,71.66,43v4.41a1.42,1.42,0,0,1-.21.79l0,0v0c0,.11-.08.13-.5.13h-1v.75H70c.73,0,1.39,0,2-.07s1.1-.05,1.64-.05l1,0c.59,0,1.33.08,2.16.08h.11l.28-2.51h-.89Z"/><path class="cls-1" d="M88.29,46.83c-.12.35-.23.57-.45.68a6.35,6.35,0,0,1-.87.38,2.86,2.86,0,0,1-1.08.11h-.25a3.33,3.33,0,0,1-1.83-.49A4.26,4.26,0,0,1,81.73,44a4.22,4.22,0,0,1,.62-1.73,2.17,2.17,0,0,1,1.19-1.07l0,0a2.87,2.87,0,0,1,1.81-.47,4.77,4.77,0,0,1,1.48.24,1.53,1.53,0,0,1,.81.57l0,0a.81.81,0,0,1,.21.54v.05l0,0a.34.34,0,0,1,.09.29v.12h.75V40.19H87.9l-.2,0a2.92,2.92,0,0,0-.66-.09,3.18,3.18,0,0,0-.43-.12,1.64,1.64,0,0,1-.41-.12h-.82a4.06,4.06,0,0,0-2.44.64,4.41,4.41,0,0,0-1.82,1.69,5.26,5.26,0,0,0-.65,2.45,5.12,5.12,0,0,0,.65,2.32,4.48,4.48,0,0,0,1.69,1.82,5.46,5.46,0,0,0,2.57.64c1.16,0,2.57-.12,2.76-.69l1.45-2.76-.74-.37Z"/><path class="cls-1" d="M97.77,44.41a3.68,3.68,0,0,0,.91-.71l0,0a2.62,2.62,0,0,0,.4-1.45A2.11,2.11,0,0,0,98.72,41a2.09,2.09,0,0,0-.5-.54l-.28-.25,0,0-.49-.15-.07,0a3,3,0,0,0-.55-.08h-.6a5.65,5.65,0,0,1-1.6.12H93.44c-.21,0-.45,0-.54-.09l-.21-.22v1.06h1v.08l.07,0c.09,0,.3.31.3,1.78v4.66a3,3,0,0,1-.08.68,1.36,1.36,0,0,0,0,.17c-.08.15-.14.16-.51.16h-.88v.75h.76a2.76,2.76,0,0,0,1-.12h.73l.43,0c.27,0,.61.07,1,.08H97v-.75h-.63c-.54,0-.69-.16-.77-.31a1.76,1.76,0,0,1-.24-.83V44.85h.93a5.48,5.48,0,0,0,.43.64,3.41,3.41,0,0,0,.43.57l.12.21.09.15a2.09,2.09,0,0,1,.14.17,1.09,1.09,0,0,0,.13.17l.11.12c.17.19.35.37.56.58A13.6,13.6,0,0,0,99.52,49a6.33,6.33,0,0,0,.88.91l.39.36.07.07.58-.38-.09-.11A28,28,0,0,1,97.77,44.41Zm-.62-3.36.17.18.08.09.09.1.09.14,0,.07a1.89,1.89,0,0,1,.11.25,1.54,1.54,0,0,1,.11.7,1.58,1.58,0,0,1-.22.8,3.56,3.56,0,0,1-.69.59l-.11,0-.28.09h-.08l-.29,0a1.43,1.43,0,0,1-.34.06h-.26a.31.31,0,0,1-.13,0l-.12-.05v-3.3h.76A2.46,2.46,0,0,1,97.15,41.05Z"/><path class="cls-1" d="M110.45,46.74a1.72,1.72,0,0,1-.24,1.07v0c-.06.18-.22.42-.89.42H107.8c-.21,0-.45,0-.54-.09a.51.51,0,0,1-.12-.22,1.29,1.29,0,0,0-.1-.22v-3l2,.12c.53,0,.63.14.63.38v.63h.75v-.13a8,8,0,0,0-.12-1.63,1.88,1.88,0,0,1,0-.31,3,3,0,0,0,.08-.7V43h-.75v.63c0,.17-.07.25-.13.25h0l0,0c-.08.09-.16.09-.42.09l-2.13.12V40.82h1.89a1.71,1.71,0,0,1,.68.23,1.15,1.15,0,0,1,.32.55v.6h.77l-.15-2.26h-.11c-.41,0-.84,0-1.31.05s-1.16.08-1.84.08S106,40,105.48,40s-.91-.06-1.33-.06H104v.76h.76a1.79,1.79,0,0,1,.53.08l.16,0a.93.93,0,0,1,.19.63v0a5.1,5.1,0,0,1,.12,1.47v4.41a1.35,1.35,0,0,1-.22.79l0,0v0c0,.11-.08.13-.5.13h-1v.75h.13c.73,0,1.38,0,2-.07s1.1-.05,1.64-.05c.25,0,.59,0,1,0,.6,0,1.34.08,2.17.08h.11l.28-2.51h-.89Z"/><path class="cls-1" d="M118.88,40.07a35.32,35.32,0,0,1-4-.13l-.14,0v2.13l.75.19v-.16a.42.42,0,0,0-.1-.33c0-.1.06-.19.08-.27a.68.68,0,0,1,.11-.32l0,0v-.05A.53.53,0,0,1,116,41h2.52v7c0,.07-.11.19-.2.27a1.72,1.72,0,0,1-.8.11h-.76v.75h.13c.59,0,1.1,0,1.52-.08s.54,0,.74,0,.46,0,.77,0c.47,0,1.07.08,1.75.08h.13v-.75h-.63a2.11,2.11,0,0,1-.94-.11,1.6,1.6,0,0,1-.32-.43V41h2a1.51,1.51,0,0,1,.38.07l.19,0a.38.38,0,0,1,.06.26v.05l0,0c.09.09.09.33.09.54v.13h.75V39.93h-.14C122,40.07,120.64,40.07,118.88,40.07Z"/><path class="cls-1" d="M145.94,40a7.41,7.41,0,0,1-1.12.09,10.56,10.56,0,0,1-1.26-.09l-.37,0h-.13v.88h.75c.26,0,.33,0,.42.09l0,0h0c.06,0,.12.09.12.25a.36.36,0,0,1,0,.11,1.48,1.48,0,0,0-.09.5l-1.65,4.81-1.88-5.07v-.22a.54.54,0,0,0-.09-.26l.08-.13a.75.75,0,0,1,.07-.12h1V39.9l-.16,0a6.64,6.64,0,0,1-1.73.13,6.22,6.22,0,0,1-1.61-.13l-.15,0v.92h.63c.44,0,.5.18.5.38v.61L137.52,47l-1.65-4.81a2.74,2.74,0,0,1-.12-.84c0-.33,0-.38.13-.38h.05l0,0c.08-.09.16-.09.41-.09h.51v-.88h-.13A6.5,6.5,0,0,0,136,40a8,8,0,0,1-.89.07,7.63,7.63,0,0,1-1-.08c-.25,0-.48-.05-.72-.05h-.12v.76h.12a1.06,1.06,0,0,1,.55.08l0,0H134l0,0a.86.86,0,0,0,.13.17c.06.06.08.12.13.3l.09.28.75,1.89,0,.06c.24.6.49,1.22.73,2l0,0a12.63,12.63,0,0,1,.61,1.86,10.08,10.08,0,0,1,.5,1.86l0,.1h.83l0-.09c.06-.26.13-.54.19-.83s.13-.56.19-.81.12-.42.19-.65a9.34,9.34,0,0,0,.31-1.1c0-.14.11-.28.17-.41a7.4,7.4,0,0,0,.46-1.35,6.23,6.23,0,0,0,.43-1.23c.08.15.16.31.24.49s.14.32.22.47a14.44,14.44,0,0,0,.64,1.78c.12.31.22.63.31.94s.19.63.32,1a6.84,6.84,0,0,1,.35.94c.08.26.17.54.28.81l0,.08h.54l0-.08c.13-.32.22-.64.32-1s.18-.62.31-1,.2-.75.34-1.19c.09-.28.19-.59.28-.91a7.47,7.47,0,0,0,.59-1.72l0-.17a6.26,6.26,0,0,0,.51-1.39.82.82,0,0,0,.14-.33,1.82,1.82,0,0,1,.11-.3v-.05a.77.77,0,0,1,.63-.63h.38v-.76h-.13A3.67,3.67,0,0,0,145.94,40Z"/><path class="cls-1" d="M155.72,40.47a4.26,4.26,0,0,0-2.21-.76v0h-.11l-.14,0v0h0a4.11,4.11,0,0,0-1.83.4,5.37,5.37,0,0,0-1.53,1,5.59,5.59,0,0,0-1,1.42,4,4,0,0,0-.27,1.82,5.61,5.61,0,0,0,.53,2.59l0,0a7.87,7.87,0,0,0,1.78,1.77,3.73,3.73,0,0,0,.53.26l.17.06.43.14.22,0,.41.08.25,0c.11,0,.21,0,.32,0h.25a2.85,2.85,0,0,0,.29,0l.24,0a2,2,0,0,0,.35-.07l.23,0a2.32,2.32,0,0,0,.37-.13l.18-.06a5.12,5.12,0,0,0,.52-.27,3.6,3.6,0,0,0,1.83-1.58,5.42,5.42,0,0,0,.65-2.57,5.29,5.29,0,0,0-.66-2.47A5.48,5.48,0,0,0,155.72,40.47Zm.57,6.22A3,3,0,0,1,155.21,48l-.23.09a4,4,0,0,1-1.59.39h-.13a2.86,2.86,0,0,1-1.7-.61,3.11,3.11,0,0,1-1.22-1.59,4.05,4.05,0,0,1-.48-2.08,5.15,5.15,0,0,1,.49-1.83,3,3,0,0,1,1.22-1.22,2.88,2.88,0,0,1,1.82-.47,2.76,2.76,0,0,1,1.34.37,3.24,3.24,0,0,1,1.07.83,9.89,9.89,0,0,1,.74,1.22,6.37,6.37,0,0,1,.25,1.48,3.43,3.43,0,0,1-.48,2.06Z"/><path class="cls-1" d="M166.53,44.41a3.45,3.45,0,0,0,.93-.75,2.62,2.62,0,0,0,.4-1.45,4.15,4.15,0,0,0-.25-1.18l0-.05a6.82,6.82,0,0,0-.9-.77h0l-.49-.15-.07,0a3,3,0,0,0-.55-.08h-.61a5.61,5.61,0,0,1-1.6.12H162.2a.94.94,0,0,1-.57-.12l-.19-.09v1h1v.08l.07,0c.09,0,.31.31.31,1.78v4.66c0,.44,0,.7-.09.79l0,0c-.1.18-.15.18-.4.18h-1v.75h.75a2.81,2.81,0,0,0,1-.12h.73a4.13,4.13,0,0,1,.55.05c.24,0,.52.06.83.07h.5v-.75h-.63c-.54,0-.69-.16-.76-.31a1.65,1.65,0,0,1-.24-.83V44.85H165l.19.26v0l0,0,.33.45.09.11.22.33.19.27a9,9,0,0,0,.94,1.11A13.29,13.29,0,0,0,168.27,49a6.79,6.79,0,0,0,1.41,1.28l.07,0,.57-.38-.1-.11A23.64,23.64,0,0,1,166.53,44.41Zm-.28-.82,0,0a.8.8,0,0,1-.13.13h0a.94.94,0,0,1-.18.12l-.06,0a.52.52,0,0,1-.15.06.66.66,0,0,0-.21.08.55.55,0,0,1-.13.05h-.13l-.28,0a1.51,1.51,0,0,1-.35.06h-.25a.31.31,0,0,1-.13,0l-.12-.05v-3.3h.75a2.38,2.38,0,0,1,1.06.23l.17.17a1,1,0,0,1,.13.16.08.08,0,0,1,0,0,1.88,1.88,0,0,1,.12.18s0,0,0,0a1.12,1.12,0,0,1,.11.25,1.42,1.42,0,0,1,.12.7,1.69,1.69,0,0,1-.24.83A.94.94,0,0,1,166.25,43.59Z"/><path class="cls-1" d="M180.08,46.74a.36.36,0,0,1,0,.11,1.24,1.24,0,0,0-.09.49,1.12,1.12,0,0,1-.44.55l0,0a2.8,2.8,0,0,1-1.42.47c-.29-.06-.53-.09-.74-.12a6.36,6.36,0,0,1-.72-.12.75.75,0,0,0-.27-.13.62.62,0,0,1-.2-.1.57.57,0,0,1-.12-.22c0-.07-.06-.15-.11-.25a2.48,2.48,0,0,1-.11-.95V42c0-.76.29-1.13.88-1.13h.76v-.88h-.13l-.22,0a16.34,16.34,0,0,1-1.79.11,13.26,13.26,0,0,1-1.64-.1l-.38,0h-.13v.76h.38c.48,0,.7.11.79.21s.09.12.14.3l.08.26v5.9a1.93,1.93,0,0,1-.1.81.9.9,0,0,1-.53.2h-.76v.75h.13c.4,0,.84,0,1.3-.05s1.17-.07,1.85-.07,1.41,0,2.07.06,1.16.06,1.71.06h.1l0-.11a6.91,6.91,0,0,1,.62-2.1l.07-.14-.94-.19Z"/><path class="cls-1" d="M193.42,42.81a4.52,4.52,0,0,0-.78-1.57,3.25,3.25,0,0,0-.73-.53,6.22,6.22,0,0,0-.83-.38,2.42,2.42,0,0,0-.94-.3l-.37-.06v0h-.1l-.15,0v0h-2.16a6.38,6.38,0,0,1-1.36.13,5.83,5.83,0,0,1-.71-.06,8.61,8.61,0,0,0-.93-.07h-.12v.76h.37a1.81,1.81,0,0,1,.54.08l.19,0c.19.1.28.19.28.51,0,.1,0,.22,0,.39a7.29,7.29,0,0,1,.09,1.12v5a.86.86,0,0,1-.22.42.68.68,0,0,1-.41.09h-.88v.75h1.25a4.32,4.32,0,0,1,1.14.13,4.65,4.65,0,0,1,.61.06,5.07,5.07,0,0,0,.65.06,3.79,3.79,0,0,1,.73.08,2.17,2.17,0,0,0,.4,0,2.23,2.23,0,0,0,.37,0,4.32,4.32,0,0,0,1.69-.37A3.55,3.55,0,0,0,192.64,48a4.63,4.63,0,0,0,.91-1.57,7.62,7.62,0,0,0,.25-1.79A4,4,0,0,0,193.42,42.81ZM192,46.51a2.45,2.45,0,0,1-.43.92,1.88,1.88,0,0,1-1.08.83l-.45.21a3.06,3.06,0,0,1-1,.16,2.87,2.87,0,0,1-1.55-.34A2.18,2.18,0,0,1,187,47V40.81l1-.11h.38a3.4,3.4,0,0,1,1.13.21v0h.11l.14,0v0l.2.09a4.41,4.41,0,0,1,1.23.86,5.15,5.15,0,0,1,.85,1.32,6.4,6.4,0,0,1,.25,1.61,6.11,6.11,0,0,1-.25,1.47Z"/></svg>