<svg xmlns="http://www.w3.org/2000/svg" xmlns:xlink="http://www.w3.org/1999/xlink" width="215" height="21" viewBox="0 0 215 21">
  <defs>
    <clipPath id="clip-Logo_white">
      <rect width="215" height="21"/>
    </clipPath>
  </defs>
  <g id="Logo_white" data-name="Logo white" clip-path="url(#clip-Logo_white)">
    <rect width="215" height="21"/>
    <path id="Path_457" data-name="Path 457" d="M44.325,18.137,36.815.81h-.392L34.541,5.016l-5.39,12.04c-.681,1.7-1.7,4.215-3.712,4.308-1.865,0-2.938-1.175-4.606-3.329l-7.144-8.8,6.948-5.586c1.473-1.175,2.35-1.822,3.721-1.822V1.2H16.235v.622c1.175,0,2.35.094,2.35,1.175,0,.528-.5,1.039-1.856,2.231l-7.442,5.96V5.118c0-2.554,0-3.329,2.444-3.329V1.2H1.36v.622C4.3,1.823,4.3,2.607,4.3,5.152V18c0,2.554,0,3.329-2.938,3.329v.588H11.833v-.511c-2.554,0-2.554-.783-2.554-3.329v-5.33l.783-.588,4.5,5.679c.485.494,1.66,1.958,1.66,2.648s-1.073.851-1.66.851v.588h17.71v-.519c-1.567-.094-2.742-.2-2.742-1.66a5.594,5.594,0,0,1,.588-1.958l.783-1.7h7.246l1.371,3.133a2.333,2.333,0,0,1,.289,1.175c.009,1.013-1.558,1.013-2.435,1.013v.588H47.458v-.588C45.7,21.407,44.912,19.508,44.325,18.137ZM34.541,14.9H31.408L34.541,7.86,37.666,14.9Z" transform="translate(-1.36 -0.983)" fill="#fff"/>
    <path id="Path_458" data-name="Path 458" d="M76.514,19.666l-5.381-7.442a5.415,5.415,0,0,0,4.7-5.109C75.833,3.1,72.8,1.24,68.1,1.24H56.53v.647c3.04,0,3.04.783,3.04,3.329V18.065c0,2.554,0,3.329-3.04,3.329v.588H67.3v-.511c-2.938,0-2.938-.851-2.938-3.406V12.615h1.371L67.5,15.068l4.9,6.948h6.556v-.545C77.774,21.471,77.289,20.841,76.514,19.666ZM67.5,11.347a7.527,7.527,0,0,1-1.7.2h-1.43V2.534H67.5c2.154.392,3.227,1.763,3.227,4.606C70.724,9.295,69.94,10.861,67.5,11.347Z" transform="translate(-9.555 -1.047)" fill="#fff"/>
    <path id="Path_459" data-name="Path 459" d="M97.377,14.97l-5.85-13.7H83.09v.622c2.938,0,2.938.783,2.938,3.329v13.7c0,1.763-.851,2.554-2.938,2.554v.588h7.05v-.588c-2.154,0-2.938-.783-2.938-2.554V3.424l8.021,18.6h.392l7.833-18.792V18.069c0,2.554,0,3.329-2.938,3.329v.588h10.865v-.511c-2.938,0-2.938-.783-2.938-3.329V5.187c0-2.554,0-3.329,2.938-3.329V1.27h-8.421Z" transform="translate(-13.5 -1.051)" fill="#fff"/>
    <path id="Path_460" data-name="Path 460" d="M154.434,1.115h-2.248L141.517,11.878V1.115h-2.061v20.3c-1.763,0-2.554-1.856-3.133-3.227L128.66.86h-.3l-1.856,4.206-5.381,12.04c-.69,1.7-1.7,4.215-3.815,4.308V22h6.948v-.588c-1.567-.094-2.742-.2-2.742-1.66A5.416,5.416,0,0,1,122.1,17.8l.783-1.7h7.237l1.4,3.125a2.341,2.341,0,0,1,.3,1.175c0,.979-1.567.979-2.452.979v.588h12.142V13.836l3.227-3.236,8.71,11.358h2.35L146.115,9.434ZM126.54,14.909h-3.133l3.133-7.042,3.133,7.042Z" transform="translate(-18.583 -0.99)" fill="#fff"/>
    <path id="Path_461" data-name="Path 461" d="M173.079,1.16h-1.073L163.79,22h2.052l2.554-6.556h9.494L180.334,22h1.958L174.254,1.16Zm0,12.721h-4.206l4.206-10.865v-.2l4.113,11.069Z" transform="translate(-25.488 -1.035)" fill="#fff"/>
    <path id="Path_462" data-name="Path 462" d="M198.615,19.654,191.761,1.16H188.73V22h2.052V3.306L197.636,22H199.5l6.846-18.7V22h2.061V1.16h-3.04Z" transform="translate(-29.192 -1.035)" fill="#fff"/>
    <path id="Path_463" data-name="Path 463" d="M219.308,12.016h10.771V10.262H219.308V2.718h11.946V1.16h-13.9V22h14.194V20.437H219.308Z" transform="translate(-33.444 -1.035)" fill="#fff"/>
    <path id="Path_464" data-name="Path 464" d="M235.86,1.16V2.718h6.658V22h2.052V2.718h6.658V1.16Z" transform="translate(-36.193 -1.035)" fill="#fff"/>
  </g>
</svg>
