<svg xmlns="http://www.w3.org/2000/svg" xmlns:xlink="http://www.w3.org/1999/xlink" width="200" height="187" viewBox="0 0 200 187">
  <defs>
    <clipPath id="clip-Artboard_2">
      <rect width="200" height="187"/>
    </clipPath>
  </defs>
  <g id="Artboard_2" data-name="Artboard – 2" clip-path="url(#clip-Artboard_2)">
    <g id="Group_2275" data-name="Group 2275" transform="translate(-0.272 2)">
      <g id="Group_2237" data-name="Group 2237" transform="translate(111.689 49.064)">
        <path id="Path_2006" data-name="Path 2006" d="M749.252,87.432c.783-.137,1.551-.35,2.328-.521,1.375-.306,1.9-.951,1.911-2.524a3.209,3.209,0,0,0-.766-2.417c-.555-.541-1.108-1.093-1.68-1.622-.255-.235-.428-.516-.834-.624a3.127,3.127,0,0,0-3.322,1.022,4.952,4.952,0,0,0-1.193,4.383C746.148,87.168,747.258,87.782,749.252,87.432Z" transform="translate(-745.583 -79.598)"/>
      </g>
      <g id="Group_2238" data-name="Group 2238" transform="translate(64.221 57.021)">
        <path id="Path_2007" data-name="Path 2007" d="M726.432,88.139a1.78,1.78,0,0,0,1.1,1.291,3.986,3.986,0,0,0,1.712.22c.577,0,.947.037,1.306,0a3.689,3.689,0,0,0,3.016-1.375c.707-1.027.709-2.8-.181-3.5-.746-.592-1.551-1.113-2.348-1.636a1.549,1.549,0,0,0-1.776-.012q-1.237.8-2.419,1.671a1.825,1.825,0,0,0-.65,1.377A6.415,6.415,0,0,0,726.432,88.139Z" transform="translate(-726.176 -82.851)"/>
      </g>
      <g id="Group_2239" data-name="Group 2239" transform="translate(64.328 38.478)">
        <path id="Path_2008" data-name="Path 2008" d="M729.815,82.339a1.766,1.766,0,0,0,1.688-.5c.563-.763,1.392-1.242,1.943-2a1.325,1.325,0,0,0-.02-1.874c-.587-.707-1.257-1.348-1.854-2.05a2.156,2.156,0,0,0-3.028-.049,12.773,12.773,0,0,1-1.519,1.416,1.849,1.849,0,0,0-.79,1.785C726.4,80.507,727.822,82.566,729.815,82.339Z" transform="translate(-726.22 -75.27)"/>
      </g>
      <g id="Group_2240" data-name="Group 2240" transform="translate(107.464 64.605)">
        <path id="Path_2009" data-name="Path 2009" d="M744.172,87.823c-.071.227-.142.455-.193.685-.33,1.458.007,2.563,1.005,3.18a11.137,11.137,0,0,0,1.463.746,2.487,2.487,0,0,0,3.332-.775c1-1.167,1.064-1.781.323-3.07a3.075,3.075,0,0,1-.228-.6c-.523-1.631-1.074-2.028-2.828-2.04C745.255,85.938,744.651,86.331,744.172,87.823Z" transform="translate(-743.856 -85.952)"/>
      </g>
      <g id="Group_2241" data-name="Group 2241" transform="translate(50.665 57.355)">
        <path id="Path_2010" data-name="Path 2010" d="M723.89,94.017a1.64,1.64,0,0,0,1.316-1.453c.362-1.859-.323-6.768-.981-8.529a1.608,1.608,0,0,0-1.729-1.042,1.827,1.827,0,0,0-1.7,1.321,4.971,4.971,0,0,0-.157,1.272c.213,1.519.612,6.171,1.512,7.529A1.648,1.648,0,0,0,723.89,94.017Z" transform="translate(-720.634 -82.988)"/>
      </g>
      <g id="Group_2242" data-name="Group 2242" transform="translate(53.788 72.471)">
        <path id="Path_2011" data-name="Path 2011" d="M721.931,90.753A7.716,7.716,0,0,0,722.9,94.9c.592,1.277.912,1.47,1.908,1.147h0a2.018,2.018,0,0,0,1.044-2.226c-.193-.949-.283-1.923-.5-2.867-.306-1.34-.756-1.71-1.969-1.783A1.582,1.582,0,0,0,721.931,90.753Z" transform="translate(-721.911 -89.168)"/>
      </g>
      <g id="Group_2243" data-name="Group 2243" transform="translate(84.362 64.192)">
        <path id="Path_2012" data-name="Path 2012" d="M736.6,98.23a4.2,4.2,0,0,0-.934,1.663,11.057,11.057,0,0,1-.724,2.737,5.265,5.265,0,0,0-.521,2.894c.012.33.11.653.127.981a3.522,3.522,0,0,0,2.287,2.955,8.008,8.008,0,0,0,2.155.142,18.429,18.429,0,0,0,3.705-.23,3.051,3.051,0,0,0,2.524-4.273,4.983,4.983,0,0,1-.459-1.92,3.49,3.49,0,0,0-.5-1.837,13.138,13.138,0,0,1-1.57-3.64.521.521,0,0,1-.017-.068,3.613,3.613,0,0,1,.771-2.93,3.506,3.506,0,0,0,.993-1.536,10.738,10.738,0,0,0-.007-4.1,4.628,4.628,0,0,0-3.551-3.287c-1.536.1-3.373.179-4.28,2a3.578,3.578,0,0,0,0,3.485c.323.912.687.964.837,1.578.406,1.7.034,2.791-.291,4.41A2.267,2.267,0,0,1,736.6,98.23Z" transform="translate(-734.411 -85.783)"/>
      </g>
      <g id="Group_2244" data-name="Group 2244" transform="translate(26.621 32.201)">
        <path id="Path_2013" data-name="Path 2013" d="M713.779,124.863a9.342,9.342,0,0,0,7.46,3.1,32.876,32.876,0,0,0,3.3-.218,23.986,23.986,0,0,1,4.092-.179,2.3,2.3,0,0,0,2.194-1.047,4.075,4.075,0,0,0,3.583-2.079c1.541-2.554,1.238-7.225-.641-10.324-.293-2.387-2.384-2.578-3.654-2.691-3.5-.413-4.611-1.979-4.413-6.2.049-.983.4-1.959.352-2.962-.137-2.891-.266-9.859-.115-14.585l0-2.529q0-4.315-.029-8.627c0-.152.007-.308.017-.465A2.694,2.694,0,0,0,724.36,73a3.14,3.14,0,0,0-2.466-.086,2.936,2.936,0,0,0-1.485,1.541l-.739.3c-.2.046-.4.11-.609.174-.225.071-.516-.056-.653-.044a13.719,13.719,0,0,0-5.051.257c-.372.2-.389,2.138-.02,2.908.152.315,4.977-.389,5,.076.01.21.078.988-.093,1.113-.553.411-2.111.2-3.566.235-.279,0-.885.02-1.086.029-.6.215-.32,1.421-.32,1.874,0,.205.206.328.215.384.139.078.326.027.575.007.335,0,.445-.034.775-.027,2.3.039,3.375-.313,3.429.4.02.242.2,1-.1,1.142-1.067.5-4.5.059-4.738.325a4.645,4.645,0,0,0,.113,2.573c.144.252,3.3.144,4.97,0,.487-.042.824-.284,1.214.029a.773.773,0,0,1,.32.832c-.3,1.438-.176,10.065-.105,11.444l.025.406c.051.827.137,1.641.225,2.448.132,1.23.254,2.395.269,3.571.042,4.268-.377,6.306-4.38,6.538l-.421.122c-5.313,2.982-6.149,6.137-3.082,11.64Zm18.306-12.132c.09.634.183,1.269.276,1.9C731.3,114.111,731.318,113.465,732.084,112.732ZM724.093,75.6l-1.675-1.071C723.13,74.676,725.049,73.213,724.093,75.6Zm-5.758,39.352,9.564-.034,2.346,1.377a4.868,4.868,0,0,1,.34,3.818c-.059.108-.4.509-.646.8a14.337,14.337,0,0,0-1.343,1.761c-4.153.377-8,.68-11.848-.279a4.1,4.1,0,0,0-1.38-2.417C715.036,117.836,715.941,116.308,718.335,114.948Zm-2.937,7.042c.161.35.034.157.135.455a3.632,3.632,0,0,0,.127.744q.895.227,1.785.457c.025-.017.037-.039.066-.047l.11-.024a.212.212,0,0,1,.2.335,1.522,1.522,0,0,1-1.793.227c-.9-.438-.656-1.211-1.01-1.986C714.9,121.906,715.288,121.745,715.4,121.989Z" transform="translate(-710.804 -72.704)"/>
      </g>
      <g id="Group_2245" data-name="Group 2245" transform="translate(26.917 88.259)">
        <path id="Path_2014" data-name="Path 2014" d="M718.953,98.83a3.888,3.888,0,0,0-1.927-1.091c-1.289-.362-2.837-.259-3.647-1.71-.12-.21-.5-.279-.672-.367-1.1-.191-2.018.338-1.727.944.482,1,.934,2.14,2.2,2.439a14.627,14.627,0,0,1,3.483,1.328,15.326,15.326,0,0,0,4.552,1.416c.374.066.638.1.866-.254a.849.849,0,0,0-.108-1.049,2.051,2.051,0,0,0-1.174-.685A3.306,3.306,0,0,1,718.953,98.83Z" transform="translate(-710.925 -95.623)"/>
      </g>
      <g id="Group_2246" data-name="Group 2246" transform="translate(22.052 86.297)">
        <path id="Path_2015" data-name="Path 2015" d="M711.519,97.671c.54.083,1.047-.054,1.093-.748a1.99,1.99,0,0,0-1.668-2.091c-.624-.105-.318.567-1.331.753C707.711,95.932,710.289,97.483,711.519,97.671Z" transform="translate(-708.936 -94.82)"/>
      </g>
      <g id="Group_2247" data-name="Group 2247" transform="translate(125.64 162.992)">
        <path id="Path_2016" data-name="Path 2016" d="M753.906,126.177l.279.291c-.721-.215-1.336-.558-1.966.135a4.323,4.323,0,0,0-.917,2.118,1.176,1.176,0,0,0,.626,1.233c.619.259,1.414-.409,1.861-.9.506-.558,1.179-1.228.986-2.062A1.031,1.031,0,0,0,753.906,126.177Z" transform="translate(-751.287 -126.177)"/>
      </g>
      <g id="Group_2248" data-name="Group 2248" transform="translate(159.746 93.793)">
        <path id="Path_2017" data-name="Path 2017" d="M767.356,98.142a2.55,2.55,0,0,1-.633.113,2.113,2.113,0,0,0-1.145.242c-.384.235-.34.509-.347.9-.007.453.2.7.641.651a3.982,3.982,0,0,1,.514-.012.7.7,0,0,0,.528-.174,5.492,5.492,0,0,1,.651-.281c.23-.112.428-.257.665-.36a.313.313,0,0,1,.118-.034.346.346,0,0,1,.015-.144.9.9,0,0,0,.031-.55c-.146-.294-.57-.8-.78-.541h.2A3.858,3.858,0,0,0,767.356,98.142Z" transform="translate(-765.231 -97.885)"/>
      </g>
      <g id="Group_2249" data-name="Group 2249" transform="translate(167.625 90.514)">
        <path id="Path_2018" data-name="Path 2018" d="M768.7,96.633l.032-.022c.22-.2-.475.127-.223.093A.789.789,0,0,0,768.7,96.633Z" transform="translate(-768.452 -96.545)"/>
      </g>
      <g id="Group_2250" data-name="Group 2250" transform="translate(12.211 114.13)">
        <path id="Path_2019" data-name="Path 2019" d="M704.921,121.022c.027.054.152.1.2.12a2.033,2.033,0,0,0,.888.142,3.855,3.855,0,0,1,1.115.191c.242.071.477.164.719.24.3.1.607.157.908.237.271.071.538.147.814.193.186.029.379.037.565.081a3.478,3.478,0,0,1,.484.152,3.482,3.482,0,0,0,.506.183c.178.039.23-.046.3-.193a.653.653,0,0,0,.036-.416,1.508,1.508,0,0,1-.039-.183,1.348,1.348,0,0,0,0-.242,1.373,1.373,0,0,1-1.145-1.291c.019-.259.1-.5.1-.763a8.364,8.364,0,0,1,.01-1.047c.025-.183.049-.377.076-.567l.051-.254a4.572,4.572,0,0,1,.1-.457c.054-.169.127-.333.193-.5a4.479,4.479,0,0,0,.23-.563c.039-.169,0-.428.245-.372a1.014,1.014,0,0,1,.32.183,1.385,1.385,0,0,0,.5.2c.154.032.311.049.46.1.064.022.186.015.237.042.11.056.049.223.051.325a1.677,1.677,0,0,0,.24.7c.23.406.484.8.731,1.2.147.333.308.692.484,1.086.205.445.384.839.553,1.2.032.142.056.284.09.43.081.342.142.68.2,1.027a1.421,1.421,0,0,0,.137.45,1.132,1.132,0,0,0,.176.338,1.787,1.787,0,0,0,.261.137.9.9,0,0,0,.326.149l.007,0,0,.012.081.017c.3.078.577.225.893.286a10.038,10.038,0,0,0,1.007.12l2.268.489.017-.081a.551.551,0,0,0,.245,0,3.377,3.377,0,0,0,.059-.4c.027-.157.09-.252-.061-.357s-.32-.174-.47-.3a6.717,6.717,0,0,1-.67-.5c-.181-.2-.313-.421-.482-.629-.227-.284-.437-.58-.648-.873a13.4,13.4,0,0,1-1.105-2.015,3.85,3.85,0,0,1-.213-.457c-.049-.144-.078-.291-.132-.433-.1-.271-.235-.538-.328-.812a6,6,0,0,0-.186-.656c-.076-.159-.117-.32-.2-.475-.066-.12-.161-.21-.23-.325-.1-.166.015-.191.174-.2a4.009,4.009,0,0,0,.592-.081,1.966,1.966,0,0,0,.237-.056,1.994,1.994,0,0,0,.45-.291,4.938,4.938,0,0,1,.934-.492,2.624,2.624,0,0,0,.668-.306,2.063,2.063,0,0,0,.656-1.145,7.126,7.126,0,0,0,.2-1.4c.012-.367.151-.726.144-1.093a1.476,1.476,0,0,0-.47-.819,4.341,4.341,0,0,0-.956-.707c-.071-.059-.152-.115-.23-.171a1.745,1.745,0,0,1-.272-.252,3.344,3.344,0,0,0-1.213-1,3.866,3.866,0,0,0-1.039-.237c-.46-.061-.929-.064-1.387-.149a9.558,9.558,0,0,1-1.287-.426c-.127-.042-.257-.068-.384-.105a3.582,3.582,0,0,0-.577-.105,7.252,7.252,0,0,0-1.005-.034,2.523,2.523,0,0,1-.854-.193,5.224,5.224,0,0,0-1.543-.43c-.13,0-.259.01-.386,0a.392.392,0,0,1-.12-.012c-.117-.027-.117-.012-.24.061l.01,0c-.142,0-.149.1-.152.22a3.285,3.285,0,0,1-.049.44c-.02.122-.063.247,0,.345a.692.692,0,0,0,.359.228,2.256,2.256,0,0,1,.868.391.908.908,0,0,1,.3.621,1.939,1.939,0,0,1-.037.428c-.039.22.012.445-.022.665-.064.4-.093.819-.188,1.221-.059.24-.164.47-.23.709-.11.4-.2.81-.286,1.216a23.327,23.327,0,0,1-.609,2.331c-.213.631-.328,1.291-.587,1.908a3.36,3.36,0,0,0-.247.841c-.039.286-.076.575-.117.861a5.546,5.546,0,0,1-.2,1.238.687.687,0,0,1-.729.389,2.265,2.265,0,0,1-.81-.142c-.1-.039-.115-.135-.208-.012a.714.714,0,0,0-.056.213,2.9,2.9,0,0,0-.061.325,1.493,1.493,0,0,1,0,.181C704.929,120.952,704.9,120.974,704.921,121.022ZM711,113.616c.063-.269.086-.281.137-.553.081-.413.169-.824.279-1.23s.245-.837.372-1.25c.122-.4.242-.807.327-1.208.064-.3.12-.6.169-.9.015-.093.044-.186.066-.279a1.211,1.211,0,0,1,.338.034c.188.056.379.093.572.137.128.032.237.1.362.142.142.049.3.076.441.113a1.842,1.842,0,0,1,.381.108,1.022,1.022,0,0,0,.33.093.984.984,0,0,1,.438.166c.069.049.154.09.218.144a1.335,1.335,0,0,1,.1.112c.074.073.179.1.255.171s.132.127.2.188a1.827,1.827,0,0,1,.413.5,2.822,2.822,0,0,1,.12.67,1.583,1.583,0,0,1,.007.372c0,.12.034.23.039.347a3.4,3.4,0,0,1-.1.834,2.906,2.906,0,0,1-.333.849,1.538,1.538,0,0,1-.352.384,1.815,1.815,0,0,1-.59.342c-.188.059-.406.335-.594.4a1.84,1.84,0,0,0-.328.176c-.291.181-.594.064-.922.171-.21.068-.411-.171-.628-.13a1.3,1.3,0,0,1-.435,0c-.189-.024-.375-.059-.563-.083a1.1,1.1,0,0,1-.541-.174,1.13,1.13,0,0,0-.144-.12c-.059-.032-.12-.059-.14-.127C710.855,113.893,710.97,113.734,711,113.616Z" transform="translate(-704.912 -106.2)"/>
      </g>
      <g id="Group_2251" data-name="Group 2251" transform="translate(29.136 117.408)">
        <path id="Path_2020" data-name="Path 2020" d="M715.215,110.59c-.034.225-.047.453-.081.678-.047.293-.015.582-.054.876a17.9,17.9,0,0,1-.313,2.006c-.042.161-.058.328-.105.489s-.117.291-.154.445c-.078.333-.13.673-.228,1-.11.367-.156.751-.24,1.125a7.178,7.178,0,0,0-.14.942c-.059.658-.159,1.316-.259,1.969a3.523,3.523,0,0,1-.281,1.245c-.073.134-.125.286-.284.318a2.31,2.31,0,0,1-.259,0c-.093,0-.183.059-.276.061-.122,0-.2-.09-.318-.115-.193-.042-.237.051-.291.208a2.982,2.982,0,0,0-.093.389.623.623,0,0,0-.005.152c.049.154.147.127.247.069l-.017.122c.325.042.692.091,1.1.149s1.027.147,1.849.269l.66.1.027.01c.269.071.518.191.783.272a13.521,13.521,0,0,0,1.419.323c.707.139,1.421.235,2.128.379.35.073.68.205,1.037.262.237.034.3.43.528.384a3.7,3.7,0,0,1,.645-.137,2.112,2.112,0,0,1,.45.039l.4.066c.056.056.1.132.178.144a4.063,4.063,0,0,0,.391-1.3c.052-.325.135-.651.191-.978.049-.286.132-.567.191-.854.032-.157.205-.5.052-.611a1.874,1.874,0,0,0-.338-.1c-.091-.034-.181-.066-.274-.1a.747.747,0,0,0-.389-.073c-.21.054-.262.318-.364.482a1.663,1.663,0,0,1-.484.526,4.227,4.227,0,0,1-1.029.5,3.732,3.732,0,0,1-.477.125,2.313,2.313,0,0,1-.719-.1,5.446,5.446,0,0,0-.646-.122c-.267-.017-.538.022-.8,0a2.312,2.312,0,0,1-1.2-.323.872.872,0,0,1-.328-.45c-.012-.071.012-.147.005-.215-.007-.09-.047-.166-.059-.257a6.725,6.725,0,0,1,0-.8c0-.171-.007-.342,0-.511a2.236,2.236,0,0,1,.032-.291l.1-.7c.068-.543.147-1.081.262-1.622.037-.176.12-.35.152-.526s-.066-.276.166-.269a2.95,2.95,0,0,1,.641.039c.276.066.545.137.827.191.335.066.673.093,1.01.137a3.636,3.636,0,0,1,.875.23c.179.068.477.064.6.223a.83.83,0,0,1,.093.548,2.448,2.448,0,0,0-.1.462.743.743,0,0,1-.007.232c-.034.1-.125.125-.012.205.054.039.213.007.279.007a2.559,2.559,0,0,1,.411,0c.2.034.335.073.433-.157a.64.64,0,0,0,.037-.279,3.187,3.187,0,0,1,.066-.643,9.4,9.4,0,0,0,.313-1.345c.02-.3.057-.587.054-.89a3.939,3.939,0,0,1,.1-.692c.012-.088.012-.171.024-.259a.1.1,0,0,0,.027-.122.5.5,0,0,0-.2-.066,1.768,1.768,0,0,0-.316-.039c-.1-.007-.2-.054-.288-.054a.238.238,0,0,0-.056.152l-.049-.007a4.1,4.1,0,0,1-.208.648,1.892,1.892,0,0,1-.756.467,1.109,1.109,0,0,1-.665.144c-.3-.034-.617-.1-.915-.159-.156-.032-.32-.032-.477-.064-.115-.027-.22-.086-.335-.115-.233-.059-.463-.1-.693-.161-.2-.056-.4.007-.6-.032-.068-.015-.093-.069-.1-.137l.049-.325a2.082,2.082,0,0,0,.056-.205c.032-.159.032-.318.051-.479.025-.2.081-.391.091-.594,0-.044.01-.09.012-.134l.443-2.969a.277.277,0,0,1,.213-.188,1.863,1.863,0,0,1,.8.059c.354.066.709.078,1.061.174.223.061.455.069.675.135a4.666,4.666,0,0,0,.69.149,3.836,3.836,0,0,1,1.035.367.9.9,0,0,1,.587.528,1.653,1.653,0,0,1,.069.621c0,.1,0,.205,0,.308s-.071.276-.037.352a7.421,7.421,0,0,1,.771.193c.2.042.46.193.558-.064a2.071,2.071,0,0,0,.058-.651,4.874,4.874,0,0,1,.127-.939,2.938,2.938,0,0,0,.093-.756,2.857,2.857,0,0,1,.053-.677c.059-.237.088-.306-.2-.3a8.978,8.978,0,0,1-.991-.093,14.214,14.214,0,0,1-1.473-.174c-.675-.132-1.35-.254-2.023-.394-.763-.157-1.521-.35-2.275-.553a6.622,6.622,0,0,0-1.561-.249c-.32,0-.643,0-.964,0-.237,0-.465.054-.7.054a2.662,2.662,0,0,1-.426-.054,3.849,3.849,0,0,0-.492-.108l.053-.218c-.125.024-.117.242-.147.34a.933.933,0,0,0-.068.311c0,.137-.078.2-.1.325-.029.171.108.064.21.159.049.044.047.093.1.127a.452.452,0,0,0,.137.044,3.788,3.788,0,0,1,.477.213c.259.13.546.166.638.482a1.1,1.1,0,0,1-.015.369C715.308,110.138,715.249,110.355,715.215,110.59Z" transform="translate(-711.832 -107.54)"/>
      </g>
      <g id="Group_2252" data-name="Group 2252" transform="translate(44.303 119.438)">
        <path id="Path_2021" data-name="Path 2021" d="M718.04,122.71a2.021,2.021,0,0,0,0,.323c.007.262.179.335.408.379.208.039.418.017.621.059.365.073.746.073,1.118.137.343.059.678.152,1.02.205a7.318,7.318,0,0,0,.983.022c.249,0,.489.1.739.113a4.326,4.326,0,0,0,.99-.027c.362-.068.714-.147,1.062-.24a6.484,6.484,0,0,0,.99-.274,4.528,4.528,0,0,0,2.1-1.485c.051-.068.091-.142.137-.215.019-.017.042-.032.061-.051a2.142,2.142,0,0,0,.445-.526,3.457,3.457,0,0,0,.159-1.551,2.612,2.612,0,0,0-.391-1.81,4.663,4.663,0,0,0-.812-.7c-.149-.115-.313-.21-.465-.323-.171-.13-.308-.289-.47-.423-.634-.519-1.35-.929-2.005-1.414a6.12,6.12,0,0,1-.9-.707c-.117-.125-.218-.264-.323-.4a3.555,3.555,0,0,1-.384-.475.973.973,0,0,0-.541-.4.707.707,0,0,1-.311-.149,2.118,2.118,0,0,1-.206-.281,1.27,1.27,0,0,1-.134-.67,1.5,1.5,0,0,1,.34-.937,1.9,1.9,0,0,1,.611-.565,1.077,1.077,0,0,1,.35-.083.843.843,0,0,0,.489-.218,1.2,1.2,0,0,1,.56-.235,4.943,4.943,0,0,1,.511-.015.618.618,0,0,1,.093.007,1.855,1.855,0,0,0,.235.015c.059.007.118.012.174.02a.716.716,0,0,1,.162.022,2.322,2.322,0,0,1,1.247.792,2.368,2.368,0,0,1,.269.8,2.893,2.893,0,0,1,.108.707c0,.064-.025.169.017.223.059.078.237.054.318.051.32,0,.638,0,.959,0,.127,0,.389.091.46,0,.132-.171.013-.592-.012-.785-.034-.262-.052-.523-.1-.78a3.228,3.228,0,0,1-.017-.406,3.736,3.736,0,0,1-.052-.462c0-.249.005-.5,0-.746a.155.155,0,0,1,0-.049l.007-.029h0c.022-.12.071-.232-.071-.264-.086-.017-.189.007-.277-.007-.113-.017-.228-.049-.342-.069a6.529,6.529,0,0,1-.915-.215,3.9,3.9,0,0,0-1.274-.22,13.88,13.88,0,0,0-1.558.152c-.509.056-1.02.105-1.529.176a5.225,5.225,0,0,0-.553.088,5.657,5.657,0,0,0-.646.262,3.569,3.569,0,0,0-1.905,1.421,2.955,2.955,0,0,0-.306,2.583,4.486,4.486,0,0,0,.22.416c.019.1.032.2.059.289a3.858,3.858,0,0,0,.592,1.181,5.566,5.566,0,0,0,.944.983q.546.451,1.49,1.106c.093.061.169.112.256.174.127.115.252.227.377.342a9.932,9.932,0,0,1,.851.844c.12.135.23.276.352.408.139.154.3.281.44.438.208.235.414.455.6.707a1.96,1.96,0,0,1,.379.616,1.735,1.735,0,0,1,.088.411.789.789,0,0,1-.13.328,1.791,1.791,0,0,1-.6.616,4,4,0,0,1-.934.413,3.533,3.533,0,0,1-1.2.105c-.2,0-.4-.01-.6,0a5.383,5.383,0,0,1-.594.054,2.2,2.2,0,0,1-1.083-.377,2.837,2.837,0,0,1-.707-.79,2.514,2.514,0,0,1-.315-.9,1.768,1.768,0,0,0-.061-.3,2.291,2.291,0,0,0-.09-.345.21.21,0,0,0-.174-.112c.007-.093.007-.188-.054-.225s-.186.007-.252,0a.564.564,0,0,1-.2-.039,1.253,1.253,0,0,0-.629-.073c-.251.046-.281.271-.283.494s.059.428.059.655c0,.267,0,.533,0,.8v.643a3.994,3.994,0,0,1,0,.594C718.089,122.593,718.055,122.642,718.04,122.71Z" transform="translate(-718.033 -108.37)"/>
      </g>
      <g id="Group_2253" data-name="Group 2253" transform="translate(56.407 118.104)">
        <path id="Path_2022" data-name="Path 2022" d="M733.275,110.751a.326.326,0,0,0,.052.078.844.844,0,0,0,.02.11.439.439,0,0,0,.044.1c.014.039.014.081.051.108l.02,0a.192.192,0,0,0,.112.049c.286.039.553-.169.839-.166a1.49,1.49,0,0,0,.313,0c.2-.046.078-.284.039-.423-.105-.367-.242-.719-.352-1.084a8.987,8.987,0,0,1-.225-1.1c-.01-.059,0-.115,0-.174-.007-.086-.052-.159-.059-.245s-.066-.068-.13-.144c-.115.051-.081-.081-.193-.027a1.219,1.219,0,0,1-.332.09c-.4.061-.783.113-1.182.2-.472.105-.944.208-1.414.325-.364.091-.751.157-1.108.269-.318.1-.626.23-.946.315a1.728,1.728,0,0,1-.372.037c-.1,0-.179.049-.276.059a2.408,2.408,0,0,0-.325,0c-.147.034-.286.083-.435.113-.3.059-.572.2-.871.259-.443.086-.854.272-1.3.367s-.934.149-1.4.242c-.237.046-.687.081-.827.306-.11.176.046.44.14.6.049.086.1.249.139.338s-.03.032.02.1a.66.66,0,0,0,.259-.047.407.407,0,0,1,.269-.024c.208.027.421.049.631.068.443.037.567.514.67.863.08.281.173.56.262.839.09.3.112.6.215.9s.188.611.269.92c.056.218.137.423.205.636s.1.443.186.653a8.032,8.032,0,0,1,.277.871c.1.438.186.854.266,1.235.11.626.2,1.257.328,1.878.1.457.12.932.2,1.392a7.791,7.791,0,0,1,.161,1.3.751.751,0,0,1-.433.77c-.3.1-.678.064-.912.3-.081.078-.186.2-.171.316.01.071.069.13.1.2a1.081,1.081,0,0,1,.069.318c.01.181.02.237.223.271a1.922,1.922,0,0,0,1.008-.289c.355-.154.719-.323,1.086-.44l.628-.137a5.148,5.148,0,0,0,.641-.056c.394-.078.78-.2,1.174-.276.289-.056.582-.051.873-.1a6.671,6.671,0,0,0,.866-.267c.472-.144.981-.213,1.463-.308.408-.081.8-.183,1.2-.3q.183-.051.367-.088l.044-.007c.269-.054.538-.1.8-.166.6-.125,1.04-.213,1.306-.264l-.032-.135c.247-.259-.01-.744-.11-1.027-.091-.267-.117-.56-.193-.832-.061-.223-.156-.428-.225-.648-.032-.108-.064-.213-.1-.32a.837.837,0,0,1-.026-.174l-.025,0c-.047-.159-.061-.264-.284-.245-.1.007-.179.054-.274.061a1.375,1.375,0,0,0-.174,0c-.113.022-.269.049-.315.166a1.5,1.5,0,0,0-.007.492,1,1,0,0,1-.23.682,4.5,4.5,0,0,1-.841.658,3.76,3.76,0,0,1-1.367.612c-.648.11-1.3.169-1.945.269-.188.029-.379.068-.565.108-.142.032-.274.12-.413.144l-.017,0a1.817,1.817,0,0,1-.244-.423,10.191,10.191,0,0,1-.448-1.609l-.739-3.395c.029-.01.061-.015.083-.022l.054-.015.651-.142.088-.012a5.055,5.055,0,0,0,.57-.1c.193-.039.381-.1.57-.152l.24-.054a7.307,7.307,0,0,1,1.054-.154,2.214,2.214,0,0,1,.531.286.975.975,0,0,1,.313.479,1.7,1.7,0,0,0,.174.453c.137.149.521.027.7,0a1.634,1.634,0,0,0,.482-.13c.132-.059.465-.068.477-.249.007-.1-.086-.22-.127-.306-.1-.218-.184-.445-.291-.663s-.215-.416-.318-.624c-.02-.086-.042-.176-.059-.257-.061-.284-.135-.638-.216-1.066s-.141-.756-.183-.986l-.164.037c-.019-.064-.031-.174-.095-.205-.152-.071-.406.161-.533.218-.551.257-.076,1.079-.448,1.475a1.639,1.639,0,0,1-.763.411c-.357.083-.722.042-1.081.113a11.38,11.38,0,0,0-1.294.384c-.147.046-.291.1-.438.152a1.024,1.024,0,0,1-.208.059l-.174-.8v0c-.039-.291-.063-.582-.112-.871-.061-.36-.079-.724-.132-1.086-.042-.276-.147-.533-.193-.812a4.6,4.6,0,0,0-.132-.66c-.039-.13-.1-.252-.137-.379a.637.637,0,0,1,.208-.756c.3-.076.614-.154.976-.242.335-.081.651-.157.956-.225.12-.022.237-.046.362-.061.428-.054.853-.127,1.281-.179.093-.012.183-.024.274-.039h.005c.132-.022.264-.032.4-.042a1.466,1.466,0,0,1,.179.044c.032.034.064.068.1.105a1.321,1.321,0,0,1,.2.35c.039.093.083.183.118.279s.051.179.073.269l-.049-.046A.573.573,0,0,0,733.275,110.751Z" transform="translate(-722.982 -107.825)"/>
      </g>
      <g id="Group_2254" data-name="Group 2254" transform="translate(69.131 112.76)">
        <path id="Path_2023" data-name="Path 2023" d="M742.434,107.629c-.064-.2-.108-.408-.171-.611-.042-.132-.09-.262-.135-.394-.034-.1-.051-.205-.1-.3a4.431,4.431,0,0,0-.232-.489,1.244,1.244,0,0,0-.1-.139.137.137,0,0,0-.154-.046,2.37,2.37,0,0,0-.421.164c-.281.11-.568.208-.846.32-.384.152-.77.294-1.157.435a6.647,6.647,0,0,1-.934.289,14.339,14.339,0,0,0-2.262.795c-.4.159-.812.313-1.223.45-.384.13-.763.291-1.154.394-.215.056-.433.091-.646.144s-.426.115-.636.176c-.584.171-1.16.374-1.744.55a8.231,8.231,0,0,0-.905.274,4.939,4.939,0,0,0-.531.3c-.091.051-.181.11-.272.161a1.234,1.234,0,0,0-.213.142c-.066.061-.127.127-.191.191-.088,0-.181.007-.22.081s0,.108.027.164c.054.1.091.215.14.323.081.181.164.36.23.548.034.1.064.193.09.291s.091.2.125.311a4.581,4.581,0,0,0,.188.533c.039.088.088.169.12.259s.071.2.108.3a.963.963,0,0,1,.073.294c0,.039.007.115.066.108.022,0,.068-.054.078-.061l.01-.007,0,.022.382-.135c.058,0,.12,0,.179,0,.1,0,.193-.083.291-.108.081-.022.091-.049.073-.137s-.037-.186-.056-.276a3.354,3.354,0,0,1-.061-.382c-.017-.13-.059-.257-.064-.389a1.877,1.877,0,0,1,0-.2.409.409,0,0,1,.081-.186,2.606,2.606,0,0,1,.514-.509,2.739,2.739,0,0,1,.531-.328,4.661,4.661,0,0,1,.682-.227,5.876,5.876,0,0,0,.619-.276,2.384,2.384,0,0,1,.589-.2c.164-.032.335-.022.5-.054a.847.847,0,0,0,.15-.042c.027-.015.044-.042.071-.054.056-.024.1.066.115.113a.53.53,0,0,1,.017.125.846.846,0,0,0,.042.191,3.847,3.847,0,0,0,.122.44,2.658,2.658,0,0,0,.308.514,4.4,4.4,0,0,1,.284.475,1.623,1.623,0,0,1,.083.3c.032.13.061.259.1.386.064.205.171.391.247.592.083.22.164.44.245.663s.178.44.271.66l.178.514c.071.213.146.426.2.643.115.5.315.983.416,1.492.042.215.081.426.142.636.074.257.171.5.252.756.12.4.276.785.384,1.189.085.325.22.633.3.961a2.581,2.581,0,0,1,.071.643,1.459,1.459,0,0,1,0,.291.673.673,0,0,1-.113.245.761.761,0,0,1-.208.188c-.063.044-.122.034-.19.061a3.147,3.147,0,0,0-.435.2.257.257,0,0,0-.132.259c0,.054,0,.086.034.11a.721.721,0,0,0,.01.316c.015.056.042.108.054.164a1.16,1.16,0,0,0,.032.161.211.211,0,0,0,.2.105c.049,0,.1.017.144.017a.366.366,0,0,0,.156-.064c.132-.073.262-.154.4-.22.113-.056.232-.1.345-.159a2.2,2.2,0,0,1,.372-.144c.14-.039.276-.083.416-.117s.269-.059.4-.1c.235-.066.462-.166.7-.223.213-.049.423-.1.633-.161.3-.1.609-.2.91-.3.25-.088.509-.186.749-.3.11-.051.213-.11.325-.159a1.2,1.2,0,0,0,.257-.142.884.884,0,0,0,.174-.181.1.1,0,0,0,.064-.037c.071-.12-.068-.284-.127-.382a1.047,1.047,0,0,1-.129-.311c-.01-.051-.02-.093-.078-.1a.243.243,0,0,0-.081.02.681.681,0,0,1-.122,0,.5.5,0,0,0-.191.017,1.44,1.44,0,0,1-.262.09.5.5,0,0,1-.2-.022,2.073,2.073,0,0,1-.276-.066,1.912,1.912,0,0,1-.484-.186,1.161,1.161,0,0,1-.293-.323,6.182,6.182,0,0,1-.357-.939c-.061-.159-.13-.316-.191-.475-.069-.181-.125-.362-.184-.545s-.1-.367-.147-.55-.13-.377-.176-.572c-.039-.166-.081-.335-.115-.5-.031-.149-.076-.291-.12-.438s-.086-.318-.14-.472-.137-.328-.2-.489a4.393,4.393,0,0,0-.232-.438c-.078-.149-.164-.3-.247-.443a5.675,5.675,0,0,1-.482-1.176c-.064-.213-.1-.43-.161-.643a6.337,6.337,0,0,0-.25-.7c-.078-.191-.174-.374-.24-.57-.044-.122-.071-.247-.12-.364s-.105-.264-.152-.4c-.034-.1-.071-.188-.1-.286a1.355,1.355,0,0,0-.066-.225,1.6,1.6,0,0,1-.085-.225c-.034-.135-.034-.276-.081-.406a.287.287,0,0,0-.056-.086c-.044-.044-.078-.054-.022-.105a.327.327,0,0,1,.12-.061c.083-.032.166-.064.249-.093.108-.037.218-.068.325-.105.181-.066.36-.149.536-.227l.1-.049.883-.311a3.708,3.708,0,0,1,1.377-.257c.042.017.086.032.122.051a1.23,1.23,0,0,1,.387.435c.1.157.217.291.3.457a1.577,1.577,0,0,0,.223.328l.142.166a.259.259,0,0,1,.044.12c0,.037-.022.078.022.1.027.01.127-.037.132-.039a1.585,1.585,0,0,1,.259-.078c.257-.054.514-.125.771-.188a.255.255,0,0,0,.125-.076c.063-.071.056-.12.022-.205-.051-.127-.135-.237-.186-.364s-.11-.259-.164-.389C742.549,107.944,742.486,107.793,742.434,107.629Z" transform="translate(-728.184 -105.64)"/>
      </g>
      <g id="Group_2255" data-name="Group 2255" transform="translate(83.589 106.291)">
        <path id="Path_2024" data-name="Path 2024" d="M746.826,103.012c-.117-.086-.428.183-.509.235a5.213,5.213,0,0,1-.592.413c-.215.108-.445.2-.665.289a14.159,14.159,0,0,0-1.563.629,14.565,14.565,0,0,0-1.431.814,3.781,3.781,0,0,1-.577.335c-.276.127-.548.279-.83.391-.181.073-.374.112-.553.191s-.369.186-.56.271c-.413.183-.8.421-1.225.6a12.264,12.264,0,0,0-1.837,1.032c-.411.186-.81.364-1.189.533l-.279.125c-.066.012-.124.029-.2.046a1.4,1.4,0,0,0-.181.042l-.034-.1a.771.771,0,0,0-.487.812c.059.137.181.267.247.408.108.232.2.467.313.7a3.324,3.324,0,0,0,.313.523,2.254,2.254,0,0,1,.176.223,2.605,2.605,0,0,1,.129.333c.073.179.181.34.257.516a1.629,1.629,0,0,0,.127.262,2.755,2.755,0,0,1,.729-.377c.11-.042.458-.127.474-.249.012-.105-.1-.254-.147-.345a3.982,3.982,0,0,1-.161-.418,4.707,4.707,0,0,1-.213-.91c-.027-.274.078-.372.252-.565a2.252,2.252,0,0,1,.44-.426c.207-.137.437-.247.653-.377a9.314,9.314,0,0,1,1.338-.541c.174-.073.352-.137.523-.22a1.112,1.112,0,0,1,.318-.152c.11,0,.12.105.154.2a5.167,5.167,0,0,0,.323.731c.154.264.3.533.453.8l1.548,3.329q1.489,3.207,2,4.42a6.825,6.825,0,0,1,.536,1.575,1.011,1.011,0,0,1-.171.67,1.241,1.241,0,0,1-.181.083,1.14,1.14,0,0,0-.281.1c-.088.059-.142.127-.235.179-.257.137-.277.333-.125.582a.759.759,0,0,0,.208.249l.029.059.042-.022a.5.5,0,0,0,.176.042.424.424,0,0,0,.308-.061c.066-.059.11-.149.178-.21a4.028,4.028,0,0,1,.338-.259l.171-.083c.538-.264,1.04-.5,1.5-.717l.029-.015.076-.024a16.555,16.555,0,0,0,2.062-.878,2.73,2.73,0,0,0,.43-.218.914.914,0,0,0,.1-.076l.193-.083-.024-.051.034-.027c.108-.071.159-.076.068-.21a1.541,1.541,0,0,1-.232-.386c-.047-.125-.074-.247-.216-.252a1.9,1.9,0,0,0-.411.1,2.546,2.546,0,0,1-.545.039,1.44,1.44,0,0,1-.692-.078c-.3-.166-.306-.621-.48-.9-.139-.223-.294-.433-.431-.658a11.142,11.142,0,0,1-.506-1.025c-.164-.347-.3-.709-.46-1.057-.147-.315-.32-.621-.452-.944-.142-.35-.259-.719-.384-1.076-.1-.286-.247-.543-.362-.822-.071-.174-.247-.558-.3-.734a1.174,1.174,0,0,0-.286-.465,2.67,2.67,0,0,1-.494-1.062,3.7,3.7,0,0,1-.2-.619c-.037-.218-.218-.313-.266-.528-.032-.139-.145-.117-.1-.257a.489.489,0,0,0-.037-.362c-.1-.188-.433-.284-.113-.494.147-.1.306-.186.463-.271l.863-.4a7.458,7.458,0,0,1,1.375-.386c.206-.034.411-.054.614-.1a.3.3,0,0,1,.344.122,2.788,2.788,0,0,1,.482.565,2.1,2.1,0,0,1,.144.372c.027.081.056.284.145.32.1-.042.161-.142.252-.2l.035-.017,0,.007.57-.264a.925.925,0,0,0,.193-.09l.042-.02-.007-.012a.345.345,0,0,0,.044-.039c.066-.1.005-.166-.039-.272a6.827,6.827,0,0,0-.6-.944c-.139-.289-.283-.589-.445-.922a5.014,5.014,0,0,1-.316-.741l-.142.069c0-.027-.017-.049-.019-.076C746.861,103.178,746.907,103.073,746.826,103.012Zm-11.085,9.069.012,0a.552.552,0,0,1,.073.247Z" transform="translate(-734.095 -102.995)"/>
      </g>
      <g id="Group_2256" data-name="Group 2256" transform="translate(97.638 105.742)">
        <path id="Path_2025" data-name="Path 2025" d="M739.886,102.8l.022-.017,0-.007C739.834,102.742,739.807,102.881,739.886,102.8Z" transform="translate(-739.839 -102.771)"/>
      </g>
      <g id="Group_2257" data-name="Group 2257" transform="translate(97.678 102.485)">
        <path id="Path_2026" data-name="Path 2026" d="M740.156,105.448c.1.127.091.1.235.078a3.425,3.425,0,0,0,.381-.066,2.686,2.686,0,0,1,.917-.152,1.081,1.081,0,0,1,.675.435,2.243,2.243,0,0,1,.249.4c.108.213.215.406.338.609.276.462.543.929.849,1.37a6.431,6.431,0,0,0,.5.6c.2.367.413.758.66,1.208q1.255,2.3,1.9,3.544c.073.166.154.328.223.5a7.246,7.246,0,0,1,.257,1.052c.064.284.132.555.215.836a1.043,1.043,0,0,1,.039.286c0,.191-.068.254-.215.382a1.221,1.221,0,0,1-.433.225c-.083.032-.217.076-.264.159a.413.413,0,0,0,.071.372,3.019,3.019,0,0,1,.223.357c.085.169.208.3.391.188.122-.071.223-.2.345-.274.5-.318,1-.626,1.519-.917.352-.2.7-.408,1.042-.619.36-.193.736-.394,1.147-.609.56-.293.981-.514,1.257-.655l-.027-.046a.6.6,0,0,0,.2-.132c-.024-.108-.159-.215-.218-.316a1.758,1.758,0,0,0-.213-.33c-.173-.157-.535.051-.756.049a1.459,1.459,0,0,1-.712-.086,1.791,1.791,0,0,1-.484-.553,1.926,1.926,0,0,0-.286-.281c-.113-.1-.2-.218-.308-.325a4.9,4.9,0,0,1-.871-1.2c-.36-.663-.568-1.409-.952-2.062-.181-.308-.347-.624-.524-.932-.215-.379-.477-.731-.695-1.11a17.07,17.07,0,0,1-1.49-2.666c-.053-.154-.076-.306-.117-.465-.037-.137-.105-.262-.14-.4a3.586,3.586,0,0,1-.049-.391,1.682,1.682,0,0,1-.034-.44.615.615,0,0,1,.064-.108,3.6,3.6,0,0,1,.851-.587l-.02-.037a.258.258,0,0,0,.188-.056c.105-.12-.041-.186-.12-.276a.848.848,0,0,1-.171-.323c-.049-.144-.081-.294-.257-.23a1.128,1.128,0,0,0-.22.161c-.1.071-.218.117-.32.186a11.853,11.853,0,0,1-1.522,1.125c-.31.139-.694.154-.99.313-.24.127-.5.223-.744.338a10.533,10.533,0,0,0-1.462.812,3.75,3.75,0,0,0-.4.32.438.438,0,0,0-.022.223A1.866,1.866,0,0,0,740.156,105.448Z" transform="translate(-739.855 -101.439)"/>
      </g>
      <g id="Group_2258" data-name="Group 2258" transform="translate(104.768 92.892)">
        <path id="Path_2027" data-name="Path 2027" d="M759.061,107.406c-.2-.051-.374-.149-.57-.218a8.368,8.368,0,0,0-.856-.2c-.355-.078-.65.024-.983-.12s-.7-.088-1.03-.218c-.377-.149-.756-.191-1.137-.325a8.232,8.232,0,0,0-1.441-.3c-.374-.1-.8-.218-1.3-.35l-.21-.056c-.118-.046-.237-.09-.355-.132-.345-.12-.687-.237-1.027-.364-.379-.144-.756-.306-1.143-.43a4.512,4.512,0,0,0-1.037-.2,1.6,1.6,0,0,0-.445-.029c-.205.042-.3-.4-.5-.33a2.411,2.411,0,0,0-.243.105.152.152,0,0,0-.108,0,1.941,1.941,0,0,0-.457.166,3.472,3.472,0,0,1-.362.225c-.157.066-.338.024-.475.125-.115.083-.237.159-.357.242-.181.127-.349.271-.533.4a3.249,3.249,0,0,0-.44.357.461.461,0,0,1-.274.159.573.573,0,0,0-.159.037c-.1.044-.186.12-.284.169a.709.709,0,0,0-.316.257.443.443,0,0,1-.169.191c-.034.015-.073-.01-.1.027-.015.02.025.105.025.105a2.219,2.219,0,0,0,.164.367c.051.083.113.157.164.237a1.834,1.834,0,0,0,.12.208c.086.1.108.032.2-.017a2.581,2.581,0,0,1,1.137-.274c.142,0,.276-.01.418-.024a2.186,2.186,0,0,1,.283-.027.36.36,0,0,1,.23.051,1.375,1.375,0,0,1,.242.169,3.733,3.733,0,0,1,.38.619c.1.144.193.294.3.435.188.267.4.514.59.778.249.347.513.687.746,1.047.205.311.375.638.56.959.294.511.514,1.062.788,1.583.23.433.47.861.7,1.291.318.582.616,1.174.949,1.746.225.394.5.756.726,1.147.042.076.044.147.079.223a.257.257,0,0,1,.022.264,1.194,1.194,0,0,1-.394.523c-.154.093-.355.105-.516.193a.249.249,0,0,0-.086.374,2.065,2.065,0,0,1,.271.433c.071.122.132.259.291.271.1.01.2-.086.276-.142.042-.032.076-.071.115-.1a2.394,2.394,0,0,1,.321-.193c.489-.279.986-.548,1.482-.817.206-.11.409-.213.6-.338a7.041,7.041,0,0,0,.648-.46c.252-.21.489-.45.719-.682a.32.32,0,0,1,.093-.078c.037-.017.083-.017.117-.037a.157.157,0,0,0,.042-.237c-.083-.117-.2-.21-.274-.333a1.393,1.393,0,0,1-.091-.169.53.53,0,0,0-.042-.12c-.061-.068-.218-.029-.294,0a3.456,3.456,0,0,0-.433.169,2.031,2.031,0,0,1-.47.152.377.377,0,0,1-.35-.076c-.1-.071-.215-.122-.318-.193a2.958,2.958,0,0,1-.409-.374,6.986,6.986,0,0,1-1.164-1.6c-.152-.286-.328-.558-.482-.841-.071-.132-.149-.262-.217-.394a2.187,2.187,0,0,0-.117-.245c-.054-.073-.105-.147-.152-.223-.247-.4-.521-.773-.8-1.15-.181-.252-.428-.453-.619-.7a7.522,7.522,0,0,1-.509-.707c-.069-.115-.142-.22-.218-.33s-.125-.242-.193-.36a1.916,1.916,0,0,1-.115-.252,2.774,2.774,0,0,0-.156-.276c-.054-.1-.1-.191-.162-.289-.031-.051-.127-.245-.1-.3a.775.775,0,0,1,.291.029c.157.027.311.068.468.1a9.255,9.255,0,0,1,1.379.352,14.482,14.482,0,0,0,1.732.433,5.641,5.641,0,0,1,.878.306,7.042,7.042,0,0,0,.688.284,20.772,20.772,0,0,0,2.353.514c.269.054.538.1.807.159.249.056.494.13.741.2.161.044.323.083.482.135s.328.132.5.191.34.135.511.2c.156.054.313.091.465.154a9.043,9.043,0,0,0,1.1.435c.2.054.406.086.609.127.171.034.34.1.508.149.189.051.367.113.56.149a5.168,5.168,0,0,0,.6.122c.142.007.279.042.421.059.169.022.355.064.523.1.12.029.23.078.35.1.054.01.105.01.159.02a.311.311,0,0,0,.134.022c.213-.039-.049-.384-.1-.467-.088-.139-.2-.267-.3-.4-.086-.11-.183-.21-.267-.325-.105-.144-.2-.294-.306-.435a15.772,15.772,0,0,1-1.321-2.113c-.2-.367-.36-.748-.55-1.118-.274-.521-.589-1.035-.9-1.534-.467-.748-.961-1.477-1.438-2.218-.205-.32-.423-.636-.636-.951-.1-.149-.215-.286-.328-.426s-.218-.306-.325-.46c-.125-.181-.259-.362-.372-.553a3.94,3.94,0,0,1-.261-.445,3.493,3.493,0,0,1-.208-.663,2.067,2.067,0,0,1-.1-.722c.034-.227.269-.325.46-.391s.392-.076.512-.242c.1-.139-.118-.293-.206-.374-.058-.054-.12-.1-.176-.149l-.144-.23-.007,0-.035-.056c-.031-.051-.09-.12-.159-.12-.1,0-.24.144-.321.193-.159.1-.3.215-.464.311-.191.115-.384.225-.575.342-.244.149-.477.32-.717.475s-.511.325-.763.489a7.406,7.406,0,0,1-1.042.665,3.749,3.749,0,0,0-.374.183c-.054.029-.2.083-.186.166.007.064.12.132.161.166a2.36,2.36,0,0,1,.169.174,1.65,1.65,0,0,1,.23.435c.027.056.068.144.139.139a.271.271,0,0,0,.108-.056c.1-.066.188-.142.291-.2a1.2,1.2,0,0,1,.959-.042,1.109,1.109,0,0,1,.359.191,3.749,3.749,0,0,1,.343.34,7.873,7.873,0,0,1,.949,1.2,5.6,5.6,0,0,0,.516.656c.078.09.159.179.237.269a3.686,3.686,0,0,1,.289.411c.2.32.425.626.633.944a4.147,4.147,0,0,1,.245.43c.1.188.208.367.306.55s.2.389.306.577a2.363,2.363,0,0,0,.332.47,2.547,2.547,0,0,1,.255.284.871.871,0,0,1,.078.205c-.039.02-.1,0-.135-.012C759.225,107.455,759.145,107.428,759.061,107.406Z" transform="translate(-742.754 -97.517)"/>
      </g>
      <g id="Group_2259" data-name="Group 2259" transform="translate(123.354 83.502)">
        <path id="Path_2028" data-name="Path 2028" d="M761.27,96.633c-.117-.115-.254-.208-.364-.333a4.716,4.716,0,0,1-.311-.443,3.693,3.693,0,0,0-.36-.421l-.689-.944c-.081-.11-.164-.237-.247-.377l-.191-.325-.03.022-.015-.032c-.039-.1-.046-.147-.132-.051a1.89,1.89,0,0,1-.475.384c-.237.135-.482.249-.712.4-.279.179-.562.355-.849.523a5.39,5.39,0,0,0-.692.519c-.325.264-.631.548-.939.832a16.486,16.486,0,0,0-1.964,1.7c-.081.076-.166.147-.242.227-.174.183-.328.382-.485.577-.036.044-.073.086-.109.13s-.057.069-.084.1c-.161.2-.318.4-.46.614-.081.12-.161.24-.244.357s-.162.274-.245.411c-.061.1-.132.2-.191.3-.086.157-.159.325-.235.489a6.061,6.061,0,0,0-.325.8,6.732,6.732,0,0,0-.2.678,7.313,7.313,0,0,0-.1.888c-.007.093-.007.181-.007.272,0,.166-.032.333-.022.5.017.279.039.56.049.841s.071.555.108.834a5.965,5.965,0,0,0,.3,1.035,4.777,4.777,0,0,0,.408.888,4.094,4.094,0,0,0,.457.629,7.529,7.529,0,0,0,.516.558c.117.11.237.227.36.333s.255.179.379.274c.245.186.494.367.746.538a5.634,5.634,0,0,0,.655.377c.23.117.474.2.7.318a5.118,5.118,0,0,0,.744.32,3.257,3.257,0,0,0,.719.142,7.02,7.02,0,0,0,.716.032,1.881,1.881,0,0,0,.721-.059,1.4,1.4,0,0,0,.223-.12,7.925,7.925,0,0,0,2.189-.433,12.538,12.538,0,0,0,3.163-1.712,13.507,13.507,0,0,0,1.235-1.022c.409-.379.79-.758,1.145-1.132s.677-.736.971-1.079.482-.567.568-.665l-.069-.088.027-.029c.022-.02.1-.076.11-.112.007-.054-.061-.088-.1-.12a1.816,1.816,0,0,1-.205-.249,10,10,0,0,0-.651-.922,4.636,4.636,0,0,1-.536-.646c-.171-.269-.335-.538-.521-.795-.2-.279-.394-.563-.568-.859a.569.569,0,0,1-.076-.227.578.578,0,0,1,.049-.159,1.134,1.134,0,0,1,.108-.137.461.461,0,0,1,.066-.039,2.141,2.141,0,0,0,.641-.338.3.3,0,0,0,.083-.1c.022-.071-.027-.091-.083-.135-.108-.086-.215-.179-.325-.259a1.839,1.839,0,0,1-.2-.188l-.054-.076-.012.01a.719.719,0,0,1-.091-.086c-.015-.02-.03-.049-.056-.059-.105-.042-.291.213-.345.264-.289.264-.648.433-.961.668-.377.281-.746.567-1.13.837a17.556,17.556,0,0,0-1.673,1.492c-.061.056-.135.1-.2.152l0,0-.323.22c-.032,0-.059.012-.052.068,0,.027.042.064.059.088.064.083.122.174.179.264.042.071.08.142.117.215.017.039.032.093.073.113a2.086,2.086,0,0,1,.169-.159,1.323,1.323,0,0,1,.284-.132,3.376,3.376,0,0,1,.658-.147,1.477,1.477,0,0,1,1.035.34,2.41,2.41,0,0,1,.428.406c.152.2.272.413.4.624.161.259.318.519.469.783.11.193.208.406.33.589.057.086.135.157.183.247a.739.739,0,0,1,.078.142c.015.069.005.076-.044.113s-.161.056-.23.1a1.618,1.618,0,0,0-.289.23,4.387,4.387,0,0,1-.788.528c-.45.271-.893.545-1.323.849-.066.044-.127.088-.2.127-.088.051-.181.117-.272.159a1.4,1.4,0,0,1-.56.056,3.133,3.133,0,0,0-.66.029c-.186.042-.357.113-.546.137-.127.015-.257.027-.382.034-.179.01-.352-.007-.531-.01-.137,0-.272,0-.409,0-.208-.01-.421-.049-.626-.076-.049,0-.1-.022-.147-.029-.174-.066-.347-.13-.521-.213a7.662,7.662,0,0,1-2.805-2.473,6.611,6.611,0,0,1-1.5-4.784,6.148,6.148,0,0,1,2.761-4.227,7.1,7.1,0,0,1,2.148-1.14c.032,0,.064,0,.093,0a3.627,3.627,0,0,1,.479.159,2.009,2.009,0,0,1,.272.078c.068.034.122.083.193.113.152.059.286.137.433.2a2.268,2.268,0,0,1,.321.176c.078.054.157.1.232.159l.022.032a2.079,2.079,0,0,0,.159.161c.044.044.1.132.162.157.044-.02.076-.071.112-.1a1.06,1.06,0,0,1,.213-.13,1.573,1.573,0,0,0,.354-.225.655.655,0,0,1,.125-.081c.074-.034.149-.051.225-.081l-.076-.017.017-.012C761.243,96.748,761.353,96.713,761.27,96.633Z" transform="translate(-750.352 -93.678)"/>
      </g>
      <g id="Group_2260" data-name="Group 2260" transform="translate(124.98 120.507)">
        <path id="Path_2029" data-name="Path 2029" d="M762.691,113.61c-.017-.1-.022-.2-.044-.3a4.833,4.833,0,0,0-.472-1.287c-.074-.137-.176-.252-.262-.379l-.01-.02a4.312,4.312,0,0,0-.732-.988,5.213,5.213,0,0,0-.519-.519c-.188-.152-.408-.274-.609-.408a4.559,4.559,0,0,0-.685-.357,5.54,5.54,0,0,0-.675-.213c-.249-.073-.479-.22-.734-.271a5.184,5.184,0,0,0-.548-.051,3.161,3.161,0,0,0-1.243.166c-.144.046-.284.1-.423.161a5.348,5.348,0,0,0-1.475.47,2.262,2.262,0,0,0-.8.345,3.561,3.561,0,0,0-.739.536c-.115.125-.179.286-.294.411a1.65,1.65,0,0,0-.161.225,5.221,5.221,0,0,0-.479.778,3.184,3.184,0,0,1-.193.345,3.3,3.3,0,0,0-.213.455,6.885,6.885,0,0,0-.191.739,5.457,5.457,0,0,0-.137.934c-.017.149.005.3-.015.445a1.423,1.423,0,0,0-.025.308,4.944,4.944,0,0,0,.2.993,2.645,2.645,0,0,0,.218.533,1.743,1.743,0,0,1,.132.237c.041.1.063.21.1.313a4.888,4.888,0,0,0,.228.457,1.514,1.514,0,0,0,.276.384,3.532,3.532,0,0,0,.294.316,4.02,4.02,0,0,0,.445.338c.147.1.3.191.452.281.132.076.247.176.377.262.262.169.528.33.8.477a1.613,1.613,0,0,0,.418.164c.151.032.288.086.435.13.264.078.536.164.807.218a4.29,4.29,0,0,0,.829.071,4.869,4.869,0,0,0,1.533-.242,3.21,3.21,0,0,0,.771-.33c.093-.039.188-.073.281-.117a5.281,5.281,0,0,0,1.724-1.3,5.163,5.163,0,0,0,.766-1.2c.056-.083.118-.164.173-.247a1.724,1.724,0,0,0,.235-.391c.083-.235.154-.465.223-.7a4.267,4.267,0,0,0,.105-.844,2.734,2.734,0,0,0-.088-1.108C762.738,113.752,762.715,113.681,762.691,113.61Zm-1.93.516a2.657,2.657,0,0,1-.2.695,6.641,6.641,0,0,1-.188.778c-.029.09-.061.171-.093.259a2.923,2.923,0,0,1-.14.6,5.689,5.689,0,0,1-.494.9,3.608,3.608,0,0,1-.377.5l0,0a3.563,3.563,0,0,1-1.614,1.262l-.047.012c-.049.024-.1.049-.151.071a1.292,1.292,0,0,1-.271.081,2.772,2.772,0,0,1-.282.066,2.473,2.473,0,0,1-.6.056c-.2-.037-.389-.083-.585-.122-.085-.02-.174-.022-.257-.049a1.137,1.137,0,0,1-.237-.147c-.108-.071-.23-.117-.345-.179a1.861,1.861,0,0,1-.37-.35c-.058-.059-.11-.125-.166-.188-.019-.02-.047-.032-.066-.051-.049-.051-.083-.115-.13-.169s-.091-.1-.137-.157a2.041,2.041,0,0,1-.37-.531,1.572,1.572,0,0,1-.088-.328c-.019-.051-.049-.1-.068-.149-.024-.081-.034-.171-.056-.257a1.6,1.6,0,0,1-.091-.416,5.266,5.266,0,0,1-.064-.973c-.042-.108-.086-.215-.12-.325a1.8,1.8,0,0,1-.012-.648,1.125,1.125,0,0,1,.129-.577c.046-.083.117-.161.161-.249a1.708,1.708,0,0,0,.076-.235c.047-.127.088-.257.13-.387a3.838,3.838,0,0,1,.171-.4c.1-.24.157-.494.264-.726a.415.415,0,0,1,.191-.223,1.622,1.622,0,0,0,.25-.215,1.056,1.056,0,0,0,.205-.325.859.859,0,0,1,.156-.281c.086-.1.174-.186.259-.281a1.68,1.68,0,0,1,.47-.413,3.066,3.066,0,0,1,.352-.13,2.256,2.256,0,0,1,.338-.054,3.056,3.056,0,0,0,.4-.139,1.913,1.913,0,0,1,.692-.115.7.7,0,0,1,.328.068.642.642,0,0,1,.14.015c.167.042.338.081.5.132a4.063,4.063,0,0,1,.727.289,2.621,2.621,0,0,1,.753.687c.184.23.3.5.465.744a3.352,3.352,0,0,1,.391.9c.037.132.064.269.093.4a1.889,1.889,0,0,1,.017.389A6.431,6.431,0,0,1,760.761,114.126Z" transform="translate(-751.017 -108.807)"/>
      </g>
      <g id="Group_2261" data-name="Group 2261" transform="translate(138.787 122.862)">
        <path id="Path_2030" data-name="Path 2030" d="M757.126,109.814l-.464-.044c.076.01.149.027.227.039A1.536,1.536,0,0,0,757.126,109.814Z" transform="translate(-756.662 -109.77)"/>
      </g>
      <g id="Group_2262" data-name="Group 2262" transform="translate(137.023 122.573)">
        <path id="Path_2031" data-name="Path 2031" d="M767.6,111.284a.692.692,0,0,1-.323-.051c-.071-.024-.144-.037-.215-.054-.113-.029-.213-.078-.325-.11-.364-.112-1.023.164-1.363-.027a5.022,5.022,0,0,0-1.744-.4.674.674,0,0,0-.171,0c-.088.02-.054.093-.066.166-.022.147-.093.284-.125.428-.015.066-.081.232-.056.3a2.334,2.334,0,0,0,.291-.015,3.184,3.184,0,0,1,.678.1,1.578,1.578,0,0,1,.516.2.458.458,0,0,1,.159.347,4.423,4.423,0,0,1-.157,1.277c-.11.607-.178,1.22-.271,1.832-.083.548-.115,1.1-.188,1.651a5.9,5.9,0,0,1-.47,1.653,5.664,5.664,0,0,1-.291.553,3.259,3.259,0,0,1-.291.455c-.039.046-.076.1-.118.144a1.039,1.039,0,0,1-.262.154c-.154.076-.32.139-.482.2-.139.056-.276.13-.418.176a1.259,1.259,0,0,1-.406.054,2.975,2.975,0,0,1-.465-.078c-.25-.037-.506-.039-.756-.086a1.788,1.788,0,0,1-.3-.068c-.085-.032-.159-.083-.245-.117-.063-.024-.127-.034-.191-.056a.833.833,0,0,1-.269-.169,2.813,2.813,0,0,1-.416-.4,1.65,1.65,0,0,1-.249-.626c-.046-.205-.078-.416-.12-.621-.046-.227-.066-.457-.108-.685a4.056,4.056,0,0,1-.073-.565q.066-.737.22-1.866.213-1.6.384-2.583a8.507,8.507,0,0,1,.227-1.054.845.845,0,0,1,.362-.23,3.307,3.307,0,0,1,.506-.144.335.335,0,0,1,.213.022c.073.032.144.068.186-.024a1.8,1.8,0,0,0,.052-.328,1.683,1.683,0,0,1,.108-.294c-.027-.054-.2-.024-.252-.024-.167,0-.33,0-.5,0a2.7,2.7,0,0,1-.666-.137,4.276,4.276,0,0,0-.875-.144,6.388,6.388,0,0,1-.712-.105l.134.015-.048-.01a4.05,4.05,0,0,1-.428-.1,1.189,1.189,0,0,0-.161-.017l-.068-.017a2.031,2.031,0,0,0-.208-.029,1.412,1.412,0,0,0-.247-.066,1.541,1.541,0,0,0-.215.017c-.1,0-.325-.142-.377,0a.754.754,0,0,0,0,.223v.223c0,.105-.029.237.108.262a1.153,1.153,0,0,1,.222.027c.083.027.164.047.245.081.129.056.374.117.421.272a.571.571,0,0,1-.019.257c-.029.139-.061.279-.078.423-.044.384.039.78-.01,1.164-.022.179-.052.355-.069.533a4.755,4.755,0,0,1-.086.619,6.183,6.183,0,0,1-.171.633c-.113.308-.024.555-.13.868s.068.707.027,1.027c-.015.11-.088.3-.1.408-.01.081-.005.164-.01.245-.015.169-.047.335-.059.5a7.113,7.113,0,0,0,.014,1.37c.03.237.23.284.318.509a2.99,2.99,0,0,0,.379.621,2.04,2.04,0,0,0,.651.489c.2.135.381.271.589.391a1.358,1.358,0,0,0,.44.2,4.788,4.788,0,0,0,.7.218,4.991,4.991,0,0,0,.6.054c.276.007.342.215.614.191.245-.024.4.147.646.108.294-.046.582-.046.876-.081a3.766,3.766,0,0,0,.888-.183,3.6,3.6,0,0,0,1.037-.5,3.277,3.277,0,0,0,.413-.411c.127-.152.225-.335.34-.5a2.558,2.558,0,0,0,.309-.636,5.293,5.293,0,0,0,.235-.858c.09-.55.186-1.106.223-1.661.009-.154.015-.308.022-.462.12-.885.227-1.629.323-2.211.049-.308.1-.575.139-.8.032-.076.066-.147.1-.228.078-.188.14-.391.2-.587.083-.269.394-.4.641-.465a1.165,1.165,0,0,1,.526-.046c.049.01.1.056.142.064s.03.022.064-.017.024-.105.032-.139c.029-.142.034-.291.074-.428.015-.046.056-.132.034-.179C767.772,111.218,767.665,111.277,767.6,111.284Z" transform="translate(-755.941 -109.652)"/>
      </g>
      <g id="Group_2263" data-name="Group 2263" transform="translate(149.326 123.677)">
        <path id="Path_2032" data-name="Path 2032" d="M772.4,120.547a.691.691,0,0,1,.02-.247c-.044-.047-.176-.034-.237-.044a1.68,1.68,0,0,1-.353-.108c-.141-.056-.266-.142-.406-.2a1.867,1.867,0,0,1-.406-.269,6.46,6.46,0,0,1-.738-.726c-.152-.176-.267-.377-.4-.565s-.328-.2-.457-.406c-.11-.179-.228-.342-.352-.511a3.356,3.356,0,0,1-.242-.443,2.428,2.428,0,0,0-.328-.514,1.046,1.046,0,0,0-.228-.191c-.063-.042-.117-.1-.181-.135s-.054-.242-.1-.269-.137-.066-.154-.108a1.044,1.044,0,0,1,.235-.166,3.144,3.144,0,0,0,.455-.3,7.976,7.976,0,0,0,.724-.685c.066-.068.132-.137.2-.2a2.467,2.467,0,0,0,.205-.188.877.877,0,0,0,.152-.237,1.8,1.8,0,0,0,.044-.306,3.378,3.378,0,0,0,.061-.567c0-.235,0-.47,0-.707a1.7,1.7,0,0,0-.081-.457,1.3,1.3,0,0,0-.134-.3c-.066-.113-.125-.235-.2-.34a1.725,1.725,0,0,0-.394-.541,2.9,2.9,0,0,0-.367-.286,1.689,1.689,0,0,0-.379-.1c-.142-.037-.286-.049-.431-.073-.462-.088-.939-.1-1.408-.144-.49-.049-.979-.068-1.47-.1a10.557,10.557,0,0,0-1.839.115c-.306.044-.6.108-.91.142-.211.024-.421.059-.629.1a1.433,1.433,0,0,1-.308.034,1.391,1.391,0,0,0-.335,0,.088.088,0,0,0-.005.049l-.054-.081a4.085,4.085,0,0,1,.054.651c0,.073.027.144.03.218a.391.391,0,0,0,0,.12c.076-.132.249-.086.374-.061a2.042,2.042,0,0,1,.6.279c.1.059.218.113.218.245,0,.191,0,.382,0,.575a5.367,5.367,0,0,0,.059.739c.046.315.137.626.178.942a14.515,14.515,0,0,1,.142,1.876V118c0,.154.022.3.027.457s.007.316,0,.47c0,.1-.027.193-.027.291a2.221,2.221,0,0,1-.027.338,2.245,2.245,0,0,0-.027.384,2.569,2.569,0,0,1-.027.274.351.351,0,0,1-.2.306c-.1.051-.215.093-.318.134s-.193.01-.3.029a.662.662,0,0,1-.117.024c-.086,0-.076.022-.073.108,0,.127,0,.254,0,.382,0,.049-.027.24.024.259.027.012.13-.024.154-.029.1-.017.191-.044.286-.064.222-.042.453-.037.675-.073a1.473,1.473,0,0,1,.178-.015c.328-.02.648-.039.935-.051h.213c.056,0,.108-.01.162-.015l.31-.012h.068l.027,0,.4-.012.947-.022,0-.073h.017c.034,0,.086.015.105-.015s0-.137,0-.179v-.242c0-.034.022-.154-.005-.183s-.154.01-.206.017a.605.605,0,0,1-.22-.007c-.132-.022-.33-.007-.406-.142a.672.672,0,0,1-.042-.169,1.37,1.37,0,0,0-.083-.193,3.533,3.533,0,0,1-.2-.484,2.226,2.226,0,0,1-.08-.621c0-.362-.012-.724-.027-1.086-.01-.262-.044-.523-.053-.785a1.7,1.7,0,0,0-.034-.218,1.065,1.065,0,0,1-.044-.134c0-.069.076-.056.13-.054.125,0,.252,0,.377,0a2.556,2.556,0,0,0,.411-.012c.061-.01.156-.059.215-.042,0,.056.1.051.11.108,0,.093.159.213.188.3a1.576,1.576,0,0,0,.35.514c.281.289.365.587.68.841.169.135.225.352.4.484.428.553.778,1.005,1.049,1.353.105.183.237.35.342.536a1.55,1.55,0,0,1,.1.2c.02.059.007.183.061.218.034.02.149-.027.183-.027.1-.007.2,0,.3,0a3.632,3.632,0,0,0,.746-.093l.245-.012,1.685-.076v-.042h.012a.66.66,0,0,1,.093-.022.978.978,0,0,0,.12,0,.746.746,0,0,0-.022-.108A.7.7,0,0,1,772.4,120.547Zm-4.877-7.658a5.762,5.762,0,0,1-.054.841,3.762,3.762,0,0,1-.125.678.858.858,0,0,1-.146.291c-.081.093-.174.183-.262.269a3.2,3.2,0,0,1-.734.43.742.742,0,0,1-.36.139,1.518,1.518,0,0,0-.294.039c-.164.034-.322.037-.489.059a4.094,4.094,0,0,1-.756.059.335.335,0,0,1-.169-.046c-.039-.034-.025-.086-.025-.137a3.461,3.461,0,0,0-.034-.5c-.039-.276-.054-.553-.081-.832-.027-.3-.1-.589-.1-.888a2.44,2.44,0,0,0,0-.374c-.017-.115-.039-.23-.052-.347a6.046,6.046,0,0,1-.078-.695c0-.132.029-.122.027-.252s-.032-.274-.029-.413l.107-.054c-.007-.068.118-.1.169-.105.071,0,.142.007.21,0,.132-.007.274-.029.406-.046.2-.025.4-.086.6-.108a1.947,1.947,0,0,1,1.115.2,1.887,1.887,0,0,1,.638.506,3.259,3.259,0,0,1,.457.585A1.637,1.637,0,0,1,767.526,112.888Z" transform="translate(-760.971 -110.103)"/>
      </g>
      <g id="Group_2264" data-name="Group 2264" transform="translate(161.813 123.06)">
        <path id="Path_2033" data-name="Path 2033" d="M775.273,118.813a1.99,1.99,0,0,1-.088-.237c-.027-.105-.034-.213-.061-.318a8.176,8.176,0,0,0-.223-.917c-.012-.034-.037-.064-.046-.1s.007-.068-.051-.09-.13.015-.188.022a1.832,1.832,0,0,1-.2,0c-.049,0-.1,0-.147,0a.2.2,0,0,0-.117.049c-.037.022-.083.032-.105.073s-.005.13-.005.179a1.5,1.5,0,0,1,.007.433.8.8,0,0,1-.154.3.693.693,0,0,1-.311.23,1.335,1.335,0,0,0-.186.068c-.075.042-.154.093-.225.142s-.137.113-.215.159a.521.521,0,0,1-.227.056c-.213.022-.426.017-.639.044a1.24,1.24,0,0,0-.3.046c-.061.022-.127.039-.186.066a1.088,1.088,0,0,1-.428.11c-.059,0-.112,0-.152-.051s-.044-.113-.071-.164a1.85,1.85,0,0,1-.191-.492c-.076-.428-.14-.859-.213-1.284-.051-.294-.076-.589-.125-.883a4.161,4.161,0,0,1-.068-.457.783.783,0,0,0-.049-.2c-.017-.059-.02-.127-.037-.188-.024-.09-.064-.176-.09-.264-.034-.117-.068-.237-.1-.357a3.3,3.3,0,0,1-.059-.516c-.041-.594-.085-1.191-.129-1.785a2.751,2.751,0,0,0-.115-.479c-.036-.144-.117-.274-.144-.426a1.542,1.542,0,0,1-.039-.421.307.307,0,0,1,.193-.23,1.578,1.578,0,0,1,.284-.179c.088-.027.174-.076.259-.1.041-.012.1.01.13,0,.054-.017.073-.086.081-.137a.716.716,0,0,0-.046-.267,2.18,2.18,0,0,1-.061-.257c0-.029,0-.112-.03-.132s-.127.042-.156.056a4.423,4.423,0,0,1-.519.164,2.479,2.479,0,0,1-.582.132,12.238,12.238,0,0,1-1.23.113,3.841,3.841,0,0,0-1.145.134c-.13.042-.262.066-.389.113-.059.02-.2.088-.223.149.012.017.027.02.049.01l-.137.054c.036.039.027.091.032.139,0,.068.017.144.029.215a.762.762,0,0,0,.086.291c.071.088.223.059.32.059a1.353,1.353,0,0,1,.359.012c.1.027.2.051.291.086a.357.357,0,0,1,.207.281c.079.34.2.668.286,1.005.029.108.062.21.1.316s.039.2.064.3c.088.342.145.692.206,1.039.066.382.164.761.25,1.137.034.144.068.284.107.423.071.408.137.788.191,1.11v.015c-.022.245-.007.492-.007.739v.844a1.058,1.058,0,0,0,.027.384,2.442,2.442,0,0,1,.1.325c.017.064.063.2.029.254a.569.569,0,0,1-.164.117,1.306,1.306,0,0,1-.256.142c-.091.024-.2.064-.3.081s-.218-.042-.255.046c-.022.056.015.11.037.159.034.076.061.157.1.23a1.192,1.192,0,0,1,.073.218c.01.042.022.113.066.132s.115-.029.156-.039a1.216,1.216,0,0,0,.164-.032,1.449,1.449,0,0,0,.149-.076c.083-.039.166-.061.25-.1a.882.882,0,0,1,.435-.061,2.277,2.277,0,0,0,.315.034.572.572,0,0,0,.2-.056.9.9,0,0,1,.313-.024c.156,0,.3.046.453.054.1.007.213,0,.318,0,.154,0,.267-.125.4-.186a1.456,1.456,0,0,1,.55-.113,4.892,4.892,0,0,0,.628,0,2.045,2.045,0,0,0,.318-.09c.135-.039.269-.068.4-.12a5.979,5.979,0,0,1,1-.294,1.132,1.132,0,0,1,.186-.034c.1,0,.2.007.3,0s.2-.017.291-.034c.076-.012.152-.042.228-.056s.188.049.277.012c.117-.046.044-.345.014-.43C775.366,119.091,775.326,118.95,775.273,118.813Z" transform="translate(-766.076 -109.851)"/>
      </g>
      <g id="Group_2265" data-name="Group 2265" transform="translate(170.156 121.204)">
        <path id="Path_2034" data-name="Path 2034" d="M776.453,118.541a.255.255,0,0,1-.044-.061.123.123,0,0,0-.015-.073c-.061-.02-.119.017-.178.032a.754.754,0,0,1-.313-.01c-.2-.024-.687,0-.837-.13a1.625,1.625,0,0,1-.3-.406,3.22,3.22,0,0,1-.315-.844c-.1-.374-.208-.751-.333-1.118a4.326,4.326,0,0,1-.166-.656c-.039-.23-.1-.455-.144-.685-.042-.193-.1-.382-.137-.575-.051-.232-.078-.467-.122-.7s-.11-.467-.159-.7c-.054-.252-.093-.509-.142-.761-.046-.235-.063-.475-.112-.707-.041-.191-.088-.379-.125-.567-.061-.328.242-.558.5-.68a.607.607,0,0,1,.205-.054.837.837,0,0,0,.156,0c.123-.029,0-.323-.022-.408-.015-.061-.042-.12-.056-.181-.01-.042,0-.113-.037-.147-.054-.054-.115.017-.172.044a2.16,2.16,0,0,1-.34.122,14.1,14.1,0,0,1-1.462.271,6.89,6.89,0,0,0-1.084.269,2.857,2.857,0,0,0-.457.186.814.814,0,0,1-.252.078,1.176,1.176,0,0,1-.2.034c-.044,0-.134,0-.142.054l-.164.056a.691.691,0,0,1,.11.22c.039.1.049.2.086.289a1.175,1.175,0,0,1,.046.142c.027.083.127,0,.2,0s.14,0,.213,0a.479.479,0,0,1,.145-.017.844.844,0,0,1,.3.1,1.348,1.348,0,0,1,.279.186.376.376,0,0,1,.132.252c.058.316.249.587.332.9.044.159.12.3.164.457.066.237.117.479.161.722s.12.484.164.731c.044.264.137.514.2.773.127.55.331,1.074.425,1.631.056.32.093.643.137.966a5.791,5.791,0,0,0,.157.937,4.577,4.577,0,0,1,.112.538c.025.132-.225.235-.318.281a1.8,1.8,0,0,1-.22.1,1.441,1.441,0,0,1-.306.029.187.187,0,0,0-.166.142c-.036.1.015.139.063.218a1.071,1.071,0,0,1,.088.213c.02.054.025.166.078.205s.167.007.218-.015c.127-.054.225-.149.357-.2.191-.076.391-.122.587-.191.081-.027.159-.064.24-.1l.46-.117a4.451,4.451,0,0,0,.626-.132,2.812,2.812,0,0,1,.445-.108c.252-.044.819-.286,1.076-.323.1-.012.453-.024.489-.152.027-.086-.056-.235-.086-.311A.556.556,0,0,0,776.453,118.541Z" transform="translate(-769.487 -109.092)"/>
      </g>
      <g id="Group_2266" data-name="Group 2266" transform="translate(175.547 118.719)">
        <path id="Path_2035" data-name="Path 2035" d="M780,114.293a4.46,4.46,0,0,1-.281-.812c-.035-.144-.066-.291-.108-.433a1.936,1.936,0,0,0-.093-.2,1.939,1.939,0,0,1-.083-.232c-.091-.279-.2-.55-.293-.824-.022-.061-.015-.071-.088-.054-.093.024-.181.076-.274.108-.064.02-.132.034-.2.056s-.088.022-.093.1c-.014.183-.039.364-.056.548a.638.638,0,0,1-.269.514,3.352,3.352,0,0,1-1.326.489,1.369,1.369,0,0,0-.384.154.247.247,0,0,1-.184.056c-.088-.02-.076-.113-.11-.186s-.081-.127-.11-.2c-.042-.1-.073-.213-.107-.318-.1-.3-.174-.6-.272-.9-.054-.166-.118-.328-.179-.492-.051-.144-.083-.294-.135-.44-.032-.1-.078-.188-.1-.289s-.04-.191-.064-.284-.076-.24-.007-.308a.838.838,0,0,1,.151-.081l.22-.12a3.891,3.891,0,0,1,.565-.225l.078-.027c.208-.066.406-.132.624-.2a5.571,5.571,0,0,1,.983-.235.77.77,0,0,1,.35.051l.059.073a1.641,1.641,0,0,1,.2.509,1.116,1.116,0,0,0,.049.127.586.586,0,0,1,.024.161c.012.108.13.117.223.093a1.425,1.425,0,0,0,.213-.105,2.3,2.3,0,0,1,.213-.088c.039-.015.073-.039.112-.054s.12-.024.159-.054c.058-.044,0-.1-.025-.154a2.727,2.727,0,0,1-.107-.271c-.084-.235-.14-.477-.233-.707-.1-.262-.191-.526-.276-.792-.012-.034-.024-.135-.051-.159-.054-.051-.186.076-.22.1a2.325,2.325,0,0,1-.524.274c-.259.11-.53.2-.8.3-.235.088-.479.154-.717.237-.21.076-.418.159-.626.242-.458.149-1.008.328-1.661.536a12.21,12.21,0,0,1-1.286.32,2.789,2.789,0,0,1-.546.108,1.33,1.33,0,0,0-.171,0,1.68,1.68,0,0,0-.181.054c-.071.012-.1.01-.149.069s-.029.093.015.176l-.161-.188c.076.149.11.308.176.46.024.056.047.113.068.169s.027.127.073.149c.024-.157.308-.135.418-.149a1.217,1.217,0,0,1,.7.13,1.035,1.035,0,0,1,.154.083,1.95,1.95,0,0,1,.1.223l.007.039a1.31,1.31,0,0,1,.005.2.791.791,0,0,0,.1.355c.068.147.159.284.228.43.024.049.044.1.064.149.139.44.35,1.11.628,2.023.472,1.534.783,2.588.939,3.165a4.7,4.7,0,0,1,.22,1.108.836.836,0,0,1-.044.235.973.973,0,0,1-.372.254c-.107.032-.215.042-.323.081a.927.927,0,0,1-.215.054c-.068.007-.122.01-.1.1a1.022,1.022,0,0,0,.105.171,3.71,3.71,0,0,0,.191.34c.054.071.037.051.108.039a1.038,1.038,0,0,0,.123-.01.64.64,0,0,0,.154-.073.931.931,0,0,1,.274-.1c.247-.059.473-.179.712-.254a2.282,2.282,0,0,1,.288-.042,2.136,2.136,0,0,0,.277-.091c.223-.078.448-.149.668-.23.2-.073.4-.127.6-.2.093-.037.5-.208.589-.245l.514-.147-.015-.042a.221.221,0,0,0,.118-.117c.037-.1-.1-.306-.13-.4-.046-.147-.113-.159-.259-.135a7.731,7.731,0,0,1-.866.215.576.576,0,0,1-.365-.083.967.967,0,0,1-.272-.472c-.085-.237-.188-.467-.274-.7-.11-.3-.215-.589-.328-.883-.024-.064-.052-.127-.078-.191-.09-.291-.191-.614-.3-.976a.733.733,0,0,1,.171-.281.442.442,0,0,1,.122-.086l.2-.064c.188-.061.472-.149.851-.267a3.546,3.546,0,0,1,.861-.171.5.5,0,0,1,.25.147.829.829,0,0,1,.223.318,1.483,1.483,0,0,0,.2.448c.024.027.049.076.073.1.073.073.242-.061.325-.086.122-.039.247-.066.37-.108.051-.02.13-.022.169-.064s.022-.122,0-.176C780.119,114.528,780.058,114.413,780,114.293Z" transform="translate(-771.691 -108.076)"/>
      </g>
      <g id="Group_2267" data-name="Group 2267" transform="translate(183.136 115.947)">
        <path id="Path_2036" data-name="Path 2036" d="M785.539,116.108c-.076-.161-.142-.333-.225-.492s-.176-.289-.257-.433c-.159-.43-.242-.665-.235-.668l-.019.007-.015-.046a.41.41,0,0,0-.034-.157c-.066-.086-.306.1-.382.127-.1.037-.323.068-.325.205a.221.221,0,0,0,.032.088,1.016,1.016,0,0,1,.046.169c.025.115.042.232.071.347a.785.785,0,0,1-.191.611,1.09,1.09,0,0,1-.279.227c-.108.073-.215.152-.325.223a4.218,4.218,0,0,1-.57.245,1.519,1.519,0,0,1-.448.142c-.149.022-.306.029-.453.066s-.291.113-.44.149a.594.594,0,0,0-.222.071c-.091.061-.105.076-.176-.027-.154-.223-.313-.438-.455-.67a3.527,3.527,0,0,1-.218-.494c-.071-.171-.145-.34-.215-.511s-.1-.374-.166-.563c-.057-.154-.1-.313-.157-.467-.073-.183-.154-.36-.213-.548-.027-.088-.073-.154.037-.181a4,4,0,0,0,.489-.164c.218-.088.416-.208.628-.311.049-.024.1-.051.152-.076.068-.024.13-.044.2-.064.049-.015.1-.027.147-.044l.112-.034c.081-.022.161-.039.232-.051a.379.379,0,0,1,.306.059,1.681,1.681,0,0,1,.162.186.711.711,0,0,1,.112.242c.057.149.144.267.215.411.046,0,.1-.037.137-.051.081-.034.166-.054.247-.088l.323-.137a.916.916,0,0,1,.1-.042.271.271,0,0,0,.088-.022c.047-.037.02-.076,0-.122-.054-.1-.117-.191-.166-.294-.078-.161-.176-.313-.267-.47a2.729,2.729,0,0,1-.215-.506,4.43,4.43,0,0,1-.156-.46,3.386,3.386,0,0,0-.113-.47c-.041-.117-.1-.223-.129-.345-.02-.071-.042-.139-.062-.208-.024-.1-.029-.144-.134-.09a2.9,2.9,0,0,0-.286.179c-.076.046-.149.1-.23.142-.019.01-.085.022-.1.037-.032.037,0,.1.01.137.027.122.039.249.056.374a1.254,1.254,0,0,1,.005.191.167.167,0,0,1-.054.139.817.817,0,0,1-.169.186c-.088.061-.2.086-.3.139a3.516,3.516,0,0,1-.433.24c-.141.054-.293.1-.43.161a2.625,2.625,0,0,1-.348.135,1.6,1.6,0,0,0-.379.137c-.064.044-.1.093-.142,0-.078-.169-.142-.345-.213-.514s-.127-.325-.188-.487c-.071-.186-.164-.357-.25-.536-.064-.13-.137-.254-.205-.379l-.005-.01-.293-.788a.146.146,0,0,1-.007-.044c.005-.032.024-.054.032-.086.007-.051,0-.11,0-.161,0-.13.081-.139.193-.188.25-.11.475-.259.734-.355s.519-.218.78-.325a2.6,2.6,0,0,1,.379-.137c.149-.037.289-.1.435-.137.061-.015.122-.022.184-.032a.826.826,0,0,1,.235.015.538.538,0,0,1,.093.135,2.139,2.139,0,0,0,.169.291,3.2,3.2,0,0,1,.213.3.824.824,0,0,1,.081.257.33.33,0,0,1,.164-.1,3.037,3.037,0,0,1,.318-.132,1.7,1.7,0,0,0,.223-.081c.049-.02.12-.017.159-.049.088-.071-.029-.149-.078-.218a2.469,2.469,0,0,1-.232-.406,4.918,4.918,0,0,1-.23-.5c-.052-.154-.1-.306-.162-.455a2.185,2.185,0,0,1-.1-.325,1.042,1.042,0,0,1-.063-.186c-.029,0-.044.012-.071.027-.078.044-.2.059-.279.108-.161.1-.311.274-.5.254-.274-.027-.4.161-.609.232a4.159,4.159,0,0,1-.568.159,3.8,3.8,0,0,0-.633.2c-.215.083-.494.046-.7.142s-.367.237-.58.318c-.183.071-.369.137-.55.218-.208.09-.306.042-.519.13-.168.071-.291.2-.46.274-.205.088-.183-.081-.379.027-.134.076-.311.269-.467.269-.054,0-.286.12-.34.108s-.164.105-.21.161a.079.079,0,0,0,.071.051c.053.12.12.24.166.364a1.34,1.34,0,0,0,.189.306c.027-.078.176-.1.244-.125a.506.506,0,0,1,.377-.029c.083.037.169.1.25.137a.481.481,0,0,1,.188.2,2.015,2.015,0,0,1,.135.318c.054.139.122.272.176.411.068.179.176.335.247.514.08.2.166.4.261.6.149.3.286.611.425.915.1.205.149.421.25.624l.012.024c.526,1.409.885,2.4,1.067,2.942a5.743,5.743,0,0,1,.276,1.013c-.029.042-.061.081-.088.127a1.414,1.414,0,0,1-.242.377,1.161,1.161,0,0,1-.2.2.9.9,0,0,1-.245.059c-.068.015-.156.007-.162.1s.1.176.142.252.091.157.13.237c.022.046.025.169.061.193.054.037.22-.059.269-.081.122-.056.23-.135.355-.181.1-.037.191-.068.286-.108.242-.1.474-.215.719-.306a5.688,5.688,0,0,0,.753-.325,7.95,7.95,0,0,1,1.866-.7c.205-.049.423-.071.624-.137a4.611,4.611,0,0,0,.651-.323,8.579,8.579,0,0,1,1.172-.44c.061-.02.122-.027.184-.042a2.1,2.1,0,0,1,.213-.059.624.624,0,0,0,.22-.039c0-.037-.093-.135-.115-.159A1.837,1.837,0,0,1,785.539,116.108Z" transform="translate(-774.794 -106.943)"/>
      </g>
      <g id="Group_2268" data-name="Group 2268" transform="translate(108.369 161.199)">
        <path id="Path_2037" data-name="Path 2037" d="M744.226,125.459a.16.16,0,0,1,0,.034C744.228,125.449,744.228,125.427,744.226,125.459Z" transform="translate(-744.226 -125.444)"/>
      </g>
      <g id="Group_2269" data-name="Group 2269" transform="translate(2.796 111.518)">
        <path id="Path_2038" data-name="Path 2038" d="M702.061,109.129c.406.159,1.27.232,1.487-.171s-.064-1.223.022-1.693c.051-.286.09-.629.156-.9.047-.186.149-.342.176-.526l-.526-.174c-.208,0-.528.073-.717-.032-.151-.086-.164-.281-.3-.377a.624.624,0,0,0-.942.223,3.8,3.8,0,0,0-.167,1.247c-.024.538-.362.942-.078,1.494A1.968,1.968,0,0,0,702.061,109.129Z" transform="translate(-701.063 -105.132)"/>
      </g>
      <g id="Group_2270" data-name="Group 2270" transform="translate(5.636 112.11)">
        <path id="Path_2039" data-name="Path 2039" d="M702.234,105.374a.567.567,0,0,1-.01.115l.007,0Z" transform="translate(-702.224 -105.374)"/>
      </g>
      <g id="Group_2271" data-name="Group 2271" transform="translate(108.288 161.845)">
        <path id="Path_2040" data-name="Path 2040" d="M744.262,125.718c-.007.093-.039.042-.069-.01,0,.051,0,.1,0,.147C744.223,125.9,744.257,125.9,744.262,125.718Z" transform="translate(-744.193 -125.708)"/>
      </g>
      <g id="Group_2272" data-name="Group 2272" transform="translate(105.183 159.226)">
        <path id="Path_2041" data-name="Path 2041" d="M762.534,132.753c-.313-.115-.389-1.123-.741-1.179l-2.918,1.5-1.624.431c-.443.161.262.523,0,.709a1.252,1.252,0,0,1-1.108.2,2.693,2.693,0,0,0-.621-.1c-.054-.179-.181-.142-.345-.1a3.014,3.014,0,0,1-.418.034.575.575,0,0,0-.411.23c-.281.308-.531.67-.781,1-.526.7-.951,1.475-1.541,2.123a16.5,16.5,0,0,1-2,1.768,8.483,8.483,0,0,0-.792.663c-.208.21-.416.416-.624.624-.223.223-1.409.516-1.619.748-.152.166.228.783.02.873-.394-.1-.56-.851-.643-1.159a11.938,11.938,0,0,1-.2-1.289c-.02-.137-.034-.271-.054-.408l.122.472c.289.068.438-.433.514-.641a5.1,5.1,0,0,0,.2-1.465c.022-.369-.6-1.032-.572-1.4a9.4,9.4,0,0,0-.024-1.013c-.037-.954-.071-4.241-.169-5.2-.059-.56-.049-1.113-.078-1.675s-.051.536-.083-.029a9.936,9.936,0,0,1,0-1.074.375.375,0,0,1-.051-.154c0-.09.022-.042.051.007a.614.614,0,0,1,0-.064,1.468,1.468,0,0,1,.069-.355c0-.23-.02-.455-.015-.687,0-.132-.007-.262-.017-.391.115-1.245-.156.328.047-.91l.09-.2,0-.01-3.092,1.433.086.465a6.9,6.9,0,0,0,.093.922,2.619,2.619,0,0,1,.027.46c.03.565.052-.533.086.032.025.433-.335.81-.364,1.245-.024.377.027.753.012,1.132-.007.205.022,2.722.035,2.925a6.357,6.357,0,0,1-.032.678c0,.019,0,.042,0,.061a2.031,2.031,0,0,0-.12.829c.039.433.132.9.223,1.367-.007.135-.034.267-.029.4.007.154.059.3.059.452a5.05,5.05,0,0,0-.029.572,3.322,3.322,0,0,1,.051.379,4.594,4.594,0,0,0-.024.521c.027.276.066.553.1.824a1.957,1.957,0,0,1,.051.34,2.85,2.85,0,0,0-.029.43,2.328,2.328,0,0,1,.059.372c0,.1-.012.208-.017.311-.012.174-.029.626.127.719.025-.083.037-.171.056-.257.024.731.4,1.5.5,2.233.039.286.135.57.161.854a9.106,9.106,0,0,1,0,.934,5.834,5.834,0,0,0,.071.685c.035.33.759.12,1.027.311a1.613,1.613,0,0,0,.819.345,6.115,6.115,0,0,0,2.145-.822,16.29,16.29,0,0,0,1.492-1.267c.3-.306.538-.655.817-.976s.55-.619.8-.949a7.356,7.356,0,0,1,1.431-1.433,10.929,10.929,0,0,1,1.49-.868,5.34,5.34,0,0,0,1.145-.775c.692.115,1.37-.435,2.123-1.707.523-.885,2.727-2.155,3.605-2.573.79-.374,1.409.844,1.945.183a2.213,2.213,0,0,1,.159-.438c.257-.553.616-1.438.2-2S763.177,132.985,762.534,132.753Z" transform="translate(-742.923 -124.637)"/>
      </g>
      <g id="Group_2273" data-name="Group 2273" transform="translate(108.357 161.248)">
        <path id="Path_2042" data-name="Path 2042" d="M744.235,125.464a1.182,1.182,0,0,1-.014.179c0,.076.007.149.005.227C744.231,125.691,744.233,125.537,744.235,125.464Z" transform="translate(-744.221 -125.464)"/>
      </g>
      <g id="Group_2274" data-name="Group 2274">
        <path id="Path_2043" data-name="Path 2043" d="M899.184,186.121a2.546,2.546,0,0,1-.6-1.01c-.127-.345.67.335.536-.022a2.11,2.11,0,0,1-.027-1.289,5.536,5.536,0,0,0-.1-1.345,3.267,3.267,0,0,0-.125-.814c-.1-.316-.839-.506-.919-.827a8.613,8.613,0,0,1-.03-1.38,6.923,6.923,0,0,0-.381-2.067c-.191-.443-1.678-1.776-.991-2.38s-.974-.44-1.186-1.328c-.159-.665-.841-1.081-.44-1.778a3.191,3.191,0,0,1,.372-.489c-.1-.32-.2-.646-.3-.964-.3-.215-.582-.487-.536-.8a4.586,4.586,0,0,1-.624-.766c-.328-.528-.156-.89-.264-1.468-.1-.528-.6-.836-.935-1.213a2.618,2.618,0,0,1-.416-.788c-.223-.5.594-1.419.379-1.918-.122-.284-.232-.585-.377-.866s-.374-.4-.536-.651a3.2,3.2,0,0,1-.433-.93,2.439,2.439,0,0,0-.254-.961,4.651,4.651,0,0,1-.509-.859c-.107-.342.057-.526.115-.829a.827.827,0,0,0-.008-.223,10.146,10.146,0,0,1-1.223-1.2,6.344,6.344,0,0,1-1.4-1.744,3.379,3.379,0,0,0-.81-1.13A6.782,6.782,0,0,0,885.372,153c-.631-.3-1.607-.078-2.028-.675a7.733,7.733,0,0,0-.5-.827c-.193-.213-.418-.4-.616-.6-.046-.047-.085-.1-.13-.142a6.416,6.416,0,0,1-1.683-.709c-.35.015-.7.037-1.037.024-.46-.017,1.2-1.235.751-1.345-1.162-.281-2.368-.472-3.5-.839-.775-.252-2.424.342-3.2.472a11.653,11.653,0,0,0-1.333.335c-.431.125-.775.022-1.186.257a1.5,1.5,0,0,1-1.216.306,1,1,0,0,0-.643-.007c-.2.076,2.213.022,2.02.117a3.408,3.408,0,0,1-1.47.122,4.5,4.5,0,0,0-1.487.408c-.279.1.969-.2.7-.068s.2.13-.1.2c-.426.1-.047-.257-.475-.088-.161.064-.3.147-.448.21-.264.205-.692.406-.883.58a.8.8,0,0,1-.078.044c-.059.856-3.8,2.16-3.094,2.686a1.924,1.924,0,0,0,1.189.347c.191,0,1.783-1.331,1.984-1.289.193-.1-.785.663-.55.565,1.558-.636.939.555,2.478-.152,4.461-2.05,2.218-1.964,6.922-1.612,3.708.276,3.038,1.8,6.115,4.354,1.609,1.335,4.843.626,4.337,2.355.335,1.5,1.615,3.865,1.2,4.7-.8,1.612-2.527,2.465-3.914,3.654a1.483,1.483,0,0,0-.161.149c.345-.24.007.02-.012.015-.13.44-.367.7-.781.7l-.242.271c-.565.663-1.453.186-2.025.829l-.57.306c-4.119,1.932-3.3,1.443-7.629,2.4a18.811,18.811,0,0,1-4.212.861,49.027,49.027,0,0,0-8.989.091c-3.021.379-6.212-.55-9.211-.636-2.507-.274-5.073-.01-7.5-1.1-.577-.262-1.582.289-1.624-.917-.039-1.118,1.942-.43,2.507-.768.252-.245,1.45.091,1.7-.154.345-.4.859-.408,1.235-.739l.416-.408c.416-.308-.054-.927.389-1.071.531-.7,1.189-.489,1.808-1.039.233-.24.465-.479.695-.722-.67-1.164.729-.455,1.274-.753.323-.308.6-.589.868-.854a.515.515,0,0,0,.132.017c.127-.015.1-.059.161-.137a1.169,1.169,0,0,1,.291-.269c.191-.125.455-.166.575-.355a1.821,1.821,0,0,1,.592-.753c.159-.086.267-.034.411-.1.112-.046.13-.125.2-.21.164-.213.4-.614.675-.687.24-.064.38,0,.44-.3.051-.249-.025-.577.237-.729.233-.137.592,0,.851-.083a.713.713,0,0,0,.541-.5.453.453,0,0,0-.015-.205,1.878,1.878,0,0,0,1.272-.391,1.127,1.127,0,0,1,.87-.555,1.6,1.6,0,0,0,.331-1.5c-.213-.545-.839-.748-1.346-.964a3.367,3.367,0,0,0-.952-.154c-.073-.01-.142-.029-.212-.042a.625.625,0,0,0-.176.059c-.974.722-.345.249-.257-.294.1-.609-.988.692-1.379,1.152-.159.188-.482.729-.692.316a2.686,2.686,0,0,1-.809.878.909.909,0,0,1-.641.181,2.318,2.318,0,0,0,.582-.443,4.621,4.621,0,0,1-.12-1.15,6.885,6.885,0,0,0,.174-1.15c-.037-.372-.255-.673-.316-1.03a5.983,5.983,0,0,1,0-1.184c-.308-.873-.665-1.786-1.057-2.727a12.319,12.319,0,0,1-1.172-1.874,3.682,3.682,0,0,0-.308-.543l-.073-.007c-.012-.076,0-.1.073.007.372.02.741.044,1.115.044a9.345,9.345,0,0,0,7.46-3.1l1.2-1.649c3.067-5.5,2.231-8.659-3.079-11.64l-.423-.125c-4-.23-4.422-2.267-4.381-6.538.015-1.176.137-2.338.271-3.569.086-.807.171-1.624.225-2.448l.021-.408c.071-1.38.2-10-.1-11.442a.779.779,0,0,1,.32-.832c.389-.313.726-.071,1.213-.029,1.671.142,4.826.247,4.97,0a4.637,4.637,0,0,0,.113-2.571c-.242-.267-3.672.176-4.736-.325-.3-.142-.118-.9-.1-1.142.054-.712,1.132-.357,3.429-.4.33,0,.44.029.777.029.247.017.433.068.572-.007.01-.059.218-.181.218-.384,0-.452.274-1.658-.323-1.874-.2-.01-.807-.024-1.084-.032-1.458-.037-3.014.179-3.569-.232-.171-.125-.1-.9-.093-1.113.02-.465,4.845.237,5-.076.372-.773.352-2.71-.02-2.908a13.723,13.723,0,0,0-5.051-.257c-.135-.012-.428.115-.653.044-.206-.066-.414-.127-.609-.174l-.739-.3a2.942,2.942,0,0,0-1.482-1.541,3.156,3.156,0,0,0-2.468.083,2.7,2.7,0,0,0-1.56,3.057c.01.159.017.316.017.467-.024,2.874-.027,5.75-.027,8.627l0,2.529c.152,4.726.019,11.694-.117,14.585-.047,1,.3,1.979.352,2.962.2,4.224-.917,5.787-4.412,6.2a8.567,8.567,0,0,0-1.47.228,1.045,1.045,0,0,1-.135-.572,4.448,4.448,0,0,0-.076-.81c-.093-.169-.186-.342-.271-.541-.276-.621-.658-.785-1.147-1.23a9.542,9.542,0,0,1-1.419-1.3c.005.061.017.12.017.181-.054-.157-.11-.3-.169-.438.037.071.071.142.115.213l.037.044a7.19,7.19,0,0,0-.308-1.817,4.03,4.03,0,0,1-.154-1.834q.25-1.508.56-3.006c.666-3.234,1.012-6.433-.954-9.409a1.042,1.042,0,0,1-.159-1.211,5.628,5.628,0,0,0,.712-1.228,11.807,11.807,0,0,0-.225-7.215,19.9,19.9,0,0,1-1.228-4.121,6.123,6.123,0,0,0-2.51-4.156,3.629,3.629,0,0,1-1.145-1.066,6.832,6.832,0,0,0-1.778-2.282,19.97,19.97,0,0,1-1.5-1.524,7.076,7.076,0,0,0-3.571-1.25c-.638-.029-2.884.445-2.972-.338-.015-.122-.039-.245-.056-.367a22.554,22.554,0,0,1-3.865.519c-.829.09-1.553.205-2.179.325a1.336,1.336,0,0,1-.211.306c-.4.416-.9,1.167-1.533,1.206-1.5.1-3.011-.029-4.505.2a2.407,2.407,0,0,0-1.382.575,5.157,5.157,0,0,1-2.991,1.3A2.459,2.459,0,0,0,804.3,91.17a4.389,4.389,0,0,1-1.323,1.409,2.238,2.238,0,0,0-.964,1.668c-.086.482-.216.959-.328,1.438a7,7,0,0,0-1.33,2.306h0a7.359,7.359,0,0,1-.159.986,1.878,1.878,0,0,1-1.1,1.311,16,16,0,0,0-2.5,1.181,6.357,6.357,0,0,1-4.1.543,25.88,25.88,0,0,0-2.612-.139,10.037,10.037,0,0,1-3.241-.685,4.5,4.5,0,0,0-1.25-.323c-.668-.027-1.25-.856-1.267-1.766-.012-.665.019-1.331.042-1.993a3.782,3.782,0,0,0-.973-3.013A5.714,5.714,0,0,1,782,91.386a2.218,2.218,0,0,0-1.071-1.372,2.4,2.4,0,0,1-.922-.978,2.344,2.344,0,0,0-2.14-1.2c-1.291-.088-1.827-.6-1.827-1.859a4.99,4.99,0,0,0-.022-.641c-.2-1.443-.22-3.028.736-4.129l0,0v0a2.212,2.212,0,0,0,.753-1.893c.218-1.465,1.431-2.363,2.206-3.586a4.177,4.177,0,0,0,.445-.8c.369-1.052,1.343-1.649,1.935-2.51a4.811,4.811,0,0,1,3.028-1.986,2.17,2.17,0,0,0,1.206-.871,1.972,1.972,0,0,1,1.741-.834c1.267,0,2.451-.171,3.18-1.421.286-.489.929-.492,1.458-.5,2.62-.017,5.239,0,7.861,0a2.091,2.091,0,0,1,1.707.8,2.74,2.74,0,0,0,2,1.123A2.488,2.488,0,0,1,806.388,70a2.054,2.054,0,0,0,1.064.8,17.815,17.815,0,0,1,4.271,3.04,1.246,1.246,0,0,1,.868.883.553.553,0,0,1,.029.154,8.266,8.266,0,0,1,1.766,2.683c1.492,1.02,3.072,1.9,4.662,1.2,1.24-.538.9-3.263.689-4.51-.435-1.084.2-.166-.264-1.238-.2-.472-.186-.247-.572-.536-1.1-.814.288-.247-.949-.893-.1-.051-.161-.176-.24-.267a8.81,8.81,0,0,0-3.906-3.082c-.695-.125-1.392-1.154-2.064-.961-.34.267-.433.115-.565-.281a4.806,4.806,0,0,0-1.717-1.981c-.142-.1-.293-.237-.431-.039-.115.171.029.308.159.421.09.078.223.122.281.223l.081.135-.059-.054c-.213-.188-.022.086-.264-.034-.335-.164-.406-.411-.648-.673l-.019,0c.648-.489.274-.6-.059-.665-.6-.115-1.147-.135-1.419-.563-1.034-1.636-3.094-2.167-4.813-2.642a21.658,21.658,0,0,0-5.7-.944,10.141,10.141,0,0,1-2.294-.543c.142.007.284.022.428.029-.2-.037-.406-.064-.609-.11a11.6,11.6,0,0,0-1.866.054.123.123,0,0,1-.122.017c-.408.064-.807.166-1.211.24a6.152,6.152,0,0,1-1.416.225,19.593,19.593,0,0,0-3.82,1.22l-.9.4A29.672,29.672,0,0,1,782,62.917a6.832,6.832,0,0,0-1.9,1.225c-.147.157-.288.318-.44.47-.868.873-2.26,1.147-2.764,2.473-.291.768-1.284,1.013-1.71,1.763-.533.947-1.161,1.844-1.729,2.776a3.271,3.271,0,0,1-.714.768c-.487.423-1.281.668-1.3,1.424-.025.881.024,1.135-.641,1.458a2.2,2.2,0,0,0-1.26,1.284,10.024,10.024,0,0,1-1.4,2.451c-.421.624-.328,3.383-.338,4.183a4.2,4.2,0,0,1-.824,2.319c-.636.927-2.36.3-2.341,1.108a.7.7,0,0,1-.213.506,8.837,8.837,0,0,0-1.849,2.223c-.12.271-.448.33-.731.4a1.841,1.841,0,0,0-1.367,1.037,1.591,1.591,0,0,1-1,.878,4.478,4.478,0,0,0-1.859,1.384,4.336,4.336,0,0,0-1.553,3.515.94.94,0,0,1-.524.792c-.467.323-1.1.548-1.3,1.088a43.717,43.717,0,0,1-2.1,4.112c-.235.785-.3,1.6-.472,2.4a29.381,29.381,0,0,0-.707,7.059c.11,1.26.7,1.808,1.954,1.7a4.24,4.24,0,0,1,.43-.064c.019-.007.032-.017.051-.024l.007.1a1.453,1.453,0,0,0,1.3-1.154c.11-.5.13-1.022.191-1.534.232-.264.1-.582.137-.876h0l.015-.411a.991.991,0,0,0,.071-.323,24.737,24.737,0,0,0,.345-4.615,1.842,1.842,0,0,1,.67-1.776,2.772,2.772,0,0,0,1.189-2.316,2.122,2.122,0,0,1,.964-1.949,2.37,2.37,0,0,0,1.2-2.192,1.387,1.387,0,0,1,.927-1.4,2.63,2.63,0,0,0,1.372-1.2,2.048,2.048,0,0,1,1.335-1,2.442,2.442,0,0,0,1.328-.812,3.493,3.493,0,0,1,2.524-1.291c.89-.09,1.8-.071,2.693-.081a3.561,3.561,0,0,1,2.693,1.2,1.881,1.881,0,0,0,.827.526A3.783,3.783,0,0,1,776,94.935h0a3.038,3.038,0,0,0,.433,1.455v0a7.774,7.774,0,0,0,1.546,3.013,1.576,1.576,0,0,1,.027,2.265c-.14.193-.3.374-.438.567a2.9,2.9,0,0,0,1.2,4.483,8.233,8.233,0,0,0,4.39.663,12.275,12.275,0,0,1,2.243-.088c.208.249.494.137.751.154a7.983,7.983,0,0,1,1.519.09,6.307,6.307,0,0,0,4.777-.577,2.334,2.334,0,0,1,2.028-.09,5.551,5.551,0,0,0,1.981.4l.063-.076.054,0c-.044.017-.1.02-.117.073h0a16.686,16.686,0,0,0,4.9.372,6.491,6.491,0,0,0,2.6-.841c1.455-.77,1.573-2.094,1.079-3.427-.33-.888-.937-1.8-.541-2.732a30.512,30.512,0,0,0,1.1-4.836h0a.919.919,0,0,1,.455-.528,2.254,2.254,0,0,0,.915-.986,1.822,1.822,0,0,1,1.7-1.005,5.618,5.618,0,0,0,3.077-.932.865.865,0,0,1,.959-.068,7.717,7.717,0,0,0,2.915.768c.837.139,1.8.017,2.382.812a6.952,6.952,0,0,0,1.8,1.6,1.549,1.549,0,0,1,.851,1.328,2.424,2.424,0,0,0,.631,1.771,6.408,6.408,0,0,1,1.67,3.057,7.589,7.589,0,0,1,.426,2.126.889.889,0,0,0,.293.634,5.029,5.029,0,0,1,1.15,3.684,12.023,12.023,0,0,0,.954,4.853,2.052,2.052,0,0,1-.042,1.666,12.878,12.878,0,0,0-.993,4.633c-.193,1.962.1,3.943-.181,5.909a5.6,5.6,0,0,0-.02,1.773,4.081,4.081,0,0,1-1,3.49,3.826,3.826,0,0,0-.954,2.764,9.327,9.327,0,0,1-.151,2.346,12.766,12.766,0,0,1-.343,1.6,8.789,8.789,0,0,1,.66-.722c-.274.352-.545.7-.773,1.005.042-.093.078-.188.113-.284-.042.051-.088.1-.127.152a2.5,2.5,0,0,1-1.492.993,4.977,4.977,0,0,0-2.091,1.35c-.281.257-.634.406-.9.673a5.932,5.932,0,0,0-.545.78,3.213,3.213,0,0,1-1.091.812,6.671,6.671,0,0,0-.726.712c-.487.443-1.125.433-1.641.824a6.719,6.719,0,0,0-1.211,1c-.325.433-.55,1.2-1.015,1.514a5.765,5.765,0,0,1-1.133.318c-.3.1-.582.225-.873.347-.773.325-1.032.929-1.484,1.6a5.061,5.061,0,0,1-1.6,1.382,6.74,6.74,0,0,1-1.375.944c-.57.23-1.1.448-1.68.641l-.01,0c.032.027.083.034.112.068.354.455-.374.9-.714,1.1a3.032,3.032,0,0,1-1.079.289,1.345,1.345,0,0,0-.885.519c-.245.254-.538.695-.9.792-.3.083-.474-.032-.744.21-.4.355-.584.9-1.12,1.108a1.656,1.656,0,0,1-.824.066l-.12-.017c-.144.073-.288.144-.43.218a1.291,1.291,0,0,1-.8.587c-.257.059-.562.046-.812.122l-.325.208c-.156.157-.294.355-.445.487a1.059,1.059,0,0,1-.81.318l-.245.154c-.261.169-.535.311-.8.462a.605.605,0,0,1-.237.264,1.077,1.077,0,0,1-.457.13c-.377.193-.761.369-1.145.545a3.772,3.772,0,0,0-.589.054c-1.446-.076-2.891-.137-4.342-.088-.049,0-.1,0-.145,0a2,2,0,0,1-1.7-1.817c-.027-.6.712-1.111,1.653-1.162a2.42,2.42,0,0,0,.773-.171,7.674,7.674,0,0,1,5.244-.127,6.853,6.853,0,0,0,4.611-.139,1.091,1.091,0,0,0,.332-1.856,3.306,3.306,0,0,0-2.343-.79,10.068,10.068,0,0,0-2.947.051,9.789,9.789,0,0,1-4.735.333,6.7,6.7,0,0,0-4.2-.223,3.743,3.743,0,0,0-3.123,3.348,26.391,26.391,0,0,0,.029,3.984,1.819,1.819,0,0,0,1.749,1.842c1.008.086,2.015.152,3.023.21a1.267,1.267,0,0,0-.518.389c-.272.313-.514.744-.961.741-.6,0-.707.338-1.089.744-.147.157-.306.384-.536.411a3.735,3.735,0,0,1-.981-.2,1.016,1.016,0,0,0-1.186.448c-.1.144-.164.357-.374.364-.173.007-.372-.157-.533-.223-.029-.032-.051-.071-.083-.1a4.024,4.024,0,0,0-.621-.565c-.367-.374-.768-.722-1.137-1.093-.609-.629-1.47-1.057-1.849-1.856a5.61,5.61,0,0,0-2.049-2.3c-2-.915-3.192-2.6-4.349-4.327a62.433,62.433,0,0,1-3.894-6.743c-.115-.257-.21-.526-.345-.773-.418-.77-.621-1.675-1.419-2.216h0c.068-.179-.076-.3-.13-.44h0a6.964,6.964,0,0,0-1.514-2.461.846.846,0,0,0-.788-.252,1.884,1.884,0,0,0-1.507,2.373l-.051.027a4.564,4.564,0,0,0-2.167.083c-.736.22-1.113.881-1.925.951-1.7.147-2.439,1.6-4.082,1.827a.325.325,0,0,0-.242.232c-.638,2.035-2.35,3.784-2.942,5.863a.263.263,0,0,1-.2.157,17.327,17.327,0,0,1-2.588.13c-.017,0-.036-.02-.054-.017l0,.02a3.2,3.2,0,0,0-.922.205c-.232.1-.447.218-.672.328a4.721,4.721,0,0,0-.614.171c-.073.027-.137.071-.208.105-.7-.23-.386.33-.961-.3-1.509.418-2.651.152-2.581,1.986.117.037.152.35.2.611.186.064.372.11.565.191a2.741,2.741,0,0,0,1.056.218,1.7,1.7,0,0,1,.528.1,2.536,2.536,0,0,0,.668.029,3.521,3.521,0,0,1,2.113.369c.293.208.528.511.8.741.215.186.447.338.66.528a5.3,5.3,0,0,1,.922,1.172,3.457,3.457,0,0,1,.247.35.358.358,0,0,1,0,.247c.186.284.387.154.666.3.046.457.215.9.8.915.25.007.526-.149.778-.1s.272.147.416.355.24.462.391.648a3.267,3.267,0,0,0,.543.4c.316.259.475.675.817.893.377.237.668.279.9.707.125.225.132.477.252.707.1.183.238.342.325.531a8.18,8.18,0,0,0,.531,1.2,3.968,3.968,0,0,0,1.052.947c.308.22.829.482.988.824.11.23.252.582.017.763a.981.981,0,0,1-.724.149.227.227,0,0,1,.044.125c-.027.426-.937.347-1.179.281a2.143,2.143,0,0,1-.458-.208H751.4a3.178,3.178,0,0,1-.969-.154c-.191.056-.376.139-.565.193a3.566,3.566,0,0,1-.859.159,4.327,4.327,0,0,0-.785.154,3.921,3.921,0,0,1-.891-.061,3.467,3.467,0,0,0-.721.11,3.039,3.039,0,0,1-.722-.113c-.328-.024-.616.132-.942.113a5.99,5.99,0,0,1-.778-.186l-.037,0a43.327,43.327,0,0,1-5.758.382,2.707,2.707,0,0,1-.9.161,2.1,2.1,0,0,1-.631-.232c-.178-.017-.357-.042-.536-.061a1.9,1.9,0,0,1-.5.039,1.33,1.33,0,0,1-.448-.171,16.207,16.207,0,0,1-2.106-.5c-4.584-1.438-8.9-1.561-13.511-3.143-3.432-1.176-.758-.638-3.679-2.2a2.472,2.472,0,0,1-.494-.125,4.911,4.911,0,0,1-.9-.516,1.756,1.756,0,0,1-.929-.807c-.949-.582-1.58-.986-2.082-1.358-.047-.029-.1-.051-.139-.083a12.128,12.128,0,0,1-1.588-1.238,12.809,12.809,0,0,1-1.12-1.064,4.273,4.273,0,0,1-.746-2.451,2.127,2.127,0,0,1,0-.986,3,3,0,0,1,.176-.839,5.205,5.205,0,0,0,.3-1.132,1.533,1.533,0,0,1,.494-.824c.176-.205.308-.438.5-.631.215-.223.5-.36.689-.6a3.046,3.046,0,0,1,.7-.685c.31-.218.48-.137.814-.21a1.721,1.721,0,0,0,.57-.325,4.7,4.7,0,0,1,2.49-.746,2.806,2.806,0,0,0,.387-.032c.078-.007.159-.024.235-.024.052-.007.105-.015.159-.02.905-.528-1.267-1.331-.338-1.128l1.409-.027c.824-.193,1.03-.426,1.844-.113.9.247,2.373.213,2.916.338.854-1.874-3.488-1.639-4.564-3.077a2.433,2.433,0,0,1-1.035.276c-2.114.122.9,1,.284.878a15.944,15.944,0,0,0-2.485,0l-1.988.621-1.742.746-1.739.871-1.247.455c-.088.071-.179.142-.264.218l-1.6,1.937v1.367l-.621,1.989-.125,1,.125,1.864-.871,4.227-.372,2.113s-.093.051-.164.538c-.017.178-.034.355-.054.533-.017.274-.032.607-.032,1.042,0,1.8.2.57.054,1.607.1.152.2.308.306.462a1.275,1.275,0,0,1,.237.426,1.59,1.59,0,0,0,.206.567,4.549,4.549,0,0,0,.739.832,2.4,2.4,0,0,0,1.494.286,1.124,1.124,0,0,0,.612-.695c0-.088-.007-.179,0-.267.012-.254.093-.492.105-.746.02-.487-3.236-1.881-3.295-2.353s3.1.069,3.263-.364c.125-.333.438-.487.343-.839a.814.814,0,0,1,.122-.907,1.04,1.04,0,0,1,.908-.352c.377.034.44.384.6.675a1.087,1.087,0,0,0,.269.377c.132.1.32.113.46.2a1.947,1.947,0,0,1,.675.873,3.2,3.2,0,0,1,.108.937c.01.073-.059.11-.164.127,1.521-.049,1.174.315,1.174.315l2.808,1.48,2.218.885,4.877.3h1.331s.012.02.907,1.587c.308.046.616.093.924.134l1.275-.687,1.33.445,1.92.443s3.992.592,5.469.739a16.445,16.445,0,0,1,2.475.633q1.71.015,3.422-.056a8.09,8.09,0,0,1,3.116.418l8.58-.257,1.92.445.479.11c.455-.059.91-.127,1.365-.188a2.011,2.011,0,0,1,.7-.7c.521-.225.969.044,1.5-.3a9.59,9.59,0,0,1,1.448-.514,2.5,2.5,0,0,1,1.022-.408c.487-.022.912-.154,1.4-.2a3.98,3.98,0,0,1,1.585.367,3.322,3.322,0,0,0,.985.044,4.162,4.162,0,0,0,1.436-.56c.545-.22,1.174-.286,1.732-.479a11.608,11.608,0,0,1,2.2-.766c.465-.051.875-.061,1.34-.139a7.291,7.291,0,0,0,1.216-.281c.6-.205,1.13-.56,1.751-.709a11.208,11.208,0,0,0,1.577-.487c1.027-.418,2.069-.5,3.089-.9a11.509,11.509,0,0,0,1.235-.748c.489-.259,1.015-.391,1.507-.651a3.071,3.071,0,0,1,1.375-.445,2.28,2.28,0,0,0,1.489-.489,10.721,10.721,0,0,1,3.214-1.888,9.335,9.335,0,0,0,1.482-.435,19.5,19.5,0,0,0,1.95-1.162c.641-.355,1.331-.69,1.993-.991.223-.1.421-.154.641-.24a5.472,5.472,0,0,0,1.181-.748,8.109,8.109,0,0,1,3.309-1.582c.381-.056.814-.186,1.25-.3,1.455-.981,2.94-2.05,4.337-3.094.071-.076.151-.149.22-.223a23.6,23.6,0,0,1,3.943-3.089c.526-.374,1.03-.717,1.558-1.074a22.188,22.188,0,0,0,2.2-1.416,24.1,24.1,0,0,1,1.888-1.649,5.042,5.042,0,0,1,.832-.428c1.913-1.639,3.735-3.366,7.2-6l.154-.191a7.448,7.448,0,0,1,1.636-1.6c.511-.311,1.108-.509,1.627-.824.147-.088.3-.157.453-.235,3.637-2.727,5.117-4.733,10.1-8.054.4-.264.812-.144,1.252.2.952.289,1.524,1.458,2.148,2.209l.23.279c.015-.049.039-.1.059-.152,0,.139-.012.208-.059.152-.017.083-.034.166-.047.257-1.876,3.1-2.182,7.768-.641,10.324a4.075,4.075,0,0,0,3.583,2.079,2.3,2.3,0,0,0,2.194,1.047,15.456,15.456,0,0,1,2.047,0c.059.164.115.325.167.492.108.191.215.382.316.577.183.362.225.795.426,1.142.156.267.406.472.567.741a5.912,5.912,0,0,1,.986,2.642c.051,1.825,2.023,1.761.8,3.065a47.733,47.733,0,0,1-5.217,3.471l-.876.492c-1.546,1.284-3.392,2.705-5.437,4.207a3.167,3.167,0,0,0,.152.474c-.161.316-.861.154-1.15.413s-.328.734-.6,1.015c-.516.536-1.4.5-1.957.91-.386.281-.648.893-1.008,1.24a2.231,2.231,0,0,1-.792.494,5.107,5.107,0,0,0-1.289.785c-.458.362-.717.125-1.238.3-.482.164-.619.751-.944,1.079-.313.311-.5.232-.885.406-.365.161-.491.492-.79.7a1.036,1.036,0,0,1-.873.061q-.9.594-1.788,1.181c-.015.007-.027.022-.042.029l-.01,0c-5.139,3-10.06,6.3-13.729,8.729-.027.032-.056.054-.085.086a2.334,2.334,0,0,1-1.274,1.008c-.321.086-.589.156-.846.252-.709.428-1.343.8-1.881,1.123-1.035.609-2.1,1.147-3.163,1.67a3.26,3.26,0,0,1-.406.335l-.054,0,.029.012c-.024.015-.052.024-.073.037l-.057-.039.1-.01c-.039-.02-.081-.027-.118-.049-.1-.061-.068-.012.017.059-.159.02-.22.056-.1.122-.027.01-.044.027-.071.037a1.024,1.024,0,0,1-.325.012c-.228.11-.455.225-.685.335-.208.276-.352.629-.651.753a1.839,1.839,0,0,1-.832-.01,37.589,37.589,0,0,0-3.3,1.827,27.623,27.623,0,0,1-3.979,1.82,1.533,1.533,0,0,1-.127.245,4.013,4.013,0,0,1-2.4,1.157,1.319,1.319,0,0,1-.509-.259c-.345.125-.7.25-1.057.377a3.7,3.7,0,0,1-.8,1.717,2.759,2.759,0,0,1-2.356.35c-.43-.13-.734-.514-1.2-.58l-1.057.35c-.127.083-.252.169-.364.245a5.5,5.5,0,0,1-1.641.986,9.3,9.3,0,0,1-1.776.132c-.144,0-.289-.012-.433-.024-3.021.934-5.9,1.768-8.2,2.368a7.992,7.992,0,0,1-4.041,1.436c-.717,0-1.35-.235-2.023-.286-.4.051-.792.105-1.189.152-.827.3-1.9.959-2.781.78a.8.8,0,0,1-.651-.044l-1.48.3h-2.661l-.793.673-1.522-.3-1.824-.081-1.477-.3-2.219-.3h-2.512l-2.365-.147-2.072-.3h-3.4a13.976,13.976,0,0,1-4.943-1.6,49.491,49.491,0,0,1-6.022-1.027,11.506,11.506,0,0,1-1.9.411c-.7,0-1.49-.917-1.791-1.3-.89-.213-1.756-.411-2.6-.6l-.937-.164-1.92-.147-1.922-.3-2.069-.3-2.218-1.035L709.9,192.8c-1.047-.262-2.634-1.282-3.945-1.825l.032.01-1.922-1.922-.149-1.773-.147-1.773-.442-2.218,1.167-.724V181.39l.3-1.627v-1.331a6.7,6.7,0,0,0,.414-1c-.232-.445-.426-1.164-.912-1.321-.519-.166-.959.33-1.426.4-.333.049-.416,2.544-.758,2.546-.069,0-.149,0-.228-.007-.112,2.967-.112,2.05-.112,2.05l-.086-.67-.034.1-.091.046a.171.171,0,0,1,.078,0l-.017.056a2.6,2.6,0,0,0-.34.768c-.2.714-.912.585-.753,1.309.078.362.154.719.206,1.088a10.181,10.181,0,0,1,.193,1.164,21.64,21.64,0,0,1-.286,2.338c-.015.191-.1.364-.1.558-.01.171,0,.35,0,.521v1.48c0,.648-.829,1.573-.565,2.174a2.264,2.264,0,0,0,.693.837,2.157,2.157,0,0,0,.538.367,1.773,1.773,0,0,0,.2.049c.117.039.22.137.333.169a3.078,3.078,0,0,0,.766.017l.012,0a.718.718,0,0,0,.338.418c.122.066.338.032.435.1.168.115.044.372.093.531.113.372.538.2.814.345a1.243,1.243,0,0,1,.421.408c.135.181.218.188.423.269a1.8,1.8,0,0,0,.379.122,1.36,1.36,0,0,1,.487.206.312.312,0,0,0,.428-.059c-.709-.242-1.732-.656-1.5-.7.318-.064.594-.186.89-.01.242.144.254.269.536.122s.441-.1.761.01a12.435,12.435,0,0,1,1.323,1.252,1.307,1.307,0,0,1,.132.951l1.793.4,1.92-.147a8.2,8.2,0,0,0,1.169,2.067l1.935.149s.445-.885,2.365-.885h1.922l2.07,1.477,2.365.3,2.219.443,2.365.3s6.061.443,6.8.443a34.72,34.72,0,0,1,3.549.592l.717.479c.709.086,1.438.2,2.174.33l1.543-.514,1.774.149,2.957,1.477,2.216,1.477,1.61,1.944.022,0c.639,0,.717.44,1.162.739.646.438,1.621.183,2.3.648.377.257.45.567.919.687a4.352,4.352,0,0,0,.448.086,3.179,3.179,0,0,1,.619.523c.186.225.293.475.5.7a15.714,15.714,0,0,0,1.265,1.074c.565.509,1.132.973,1.683,1.514.783.768,1.34,1.739,2.094,2.539a7.625,7.625,0,0,0,2.079,1.631,6.024,6.024,0,0,1,.558.367,3.157,3.157,0,0,0,1.069,1.866c.21.137.421.269.629.409a1.863,1.863,0,0,1,.154.318,1.573,1.573,0,0,0,.764,1.108,11.142,11.142,0,0,0,1.812.917,3.928,3.928,0,0,1,1.592,1.548c.785,1.123,1.614,2.226,2.319,3.395a7.657,7.657,0,0,0,1.057,1.467c.47.47,1.1.785,1.578,1.235a9.068,9.068,0,0,0,1.054,1.069,11.358,11.358,0,0,0,1.465,1.074,8.813,8.813,0,0,1,.91.506,1.5,1.5,0,0,1,.037.169c.149.056.291.1.433.142.056.042.11.088.166.13a1.45,1.45,0,0,0,.147.871c.117.183.574.139.976.132a9.705,9.705,0,0,1,.812.893c.127.166.573,1.13.8,1.169.015-.017.024-.039.037-.056a8.569,8.569,0,0,1,.8.986c.4.609,1.194,1.656,1.81,1.619.037.056.073.113.11.166.8,1.11,1.8.7,2.556-.308a10.452,10.452,0,0,0,1.507-5.173c.2-3.009.546-5.251.546-8.277A54.85,54.85,0,0,1,790.8,219c.173-2.069-.169-1.433-.159-3.745-1.123-.472-1.778-.626-2.539-.973,0,.284.007.09,0,.408-.007,1.267.037,3.588.076,5.726a38.432,38.432,0,0,1-.154,5c-.311,1.032-.741,2.064-.993,3.106-.22.91.69,2.143.438,3.07a21.547,21.547,0,0,0-.663,3.674c-.841-.964-2.925-2.952-4.723-4.659-.453-.433-.868-.905-1.319-1.34a4.707,4.707,0,0,0-.4-.33l.007-.127a1.771,1.771,0,0,1-.286-.352c-2.727-4.253-7.308-5.251-9.84-9.725-1.663-2.942-4.486-5.227-6.692-7.511-2.427-2.512-5.716-4.3-8.632-6.335.2,0-.668-.208-.452-.208-.35-.181.323-.245.47-.45a2.431,2.431,0,0,1,1.022.117c.45.073.893.242,1.34.3a15.619,15.619,0,0,0,2.644-.149,2.364,2.364,0,0,1,.328-.105,1.378,1.378,0,0,1,.7.1l.044.012c.071,0,.142,0,.213,0,.384-.022.753-.122,1.137-.152a1.861,1.861,0,0,1,.308-.11,4.341,4.341,0,0,1,.837-.027,3.841,3.841,0,0,0,1.064-.2,11.087,11.087,0,0,1,1.514-.443c.4-.049.829.032,1.233.017a1.945,1.945,0,0,0,.915-.293,10.269,10.269,0,0,1,1.059-.342,9.954,9.954,0,0,1,.981-.46,3.211,3.211,0,0,1,1.286.061c.017,0,.03,0,.044,0,.262-.073.521-.154.788-.206a13.558,13.558,0,0,1,1.932-.435,4.19,4.19,0,0,0,1.56-.467c.159-.068.3-.108.445-.164a2.87,2.87,0,0,1,.433-.333c.45-.262.966-.528,1.441-.746a1.363,1.363,0,0,1,1.069,0c.457-.247.976-.506,1.582-.78a19.961,19.961,0,0,1,6.494-1.531,1.58,1.58,0,0,1,.555-.159,2.148,2.148,0,0,0,1.074-.641,11.43,11.43,0,0,1,.986-.873,8.836,8.836,0,0,1,1.184-.55c.827-.372,1.277-1.157,2.182-1.3a7.328,7.328,0,0,0,2.62-.695,1.6,1.6,0,0,1,.665-.325c.267-.015.472.134.756.073a4.053,4.053,0,0,0,.983-.538,11.484,11.484,0,0,1,1.12-.426c.646-.257,1.169-.761,1.79-1.084.531-.276,1.076-.541,1.582-.866.181-.115.352-.22.526-.328a5.312,5.312,0,0,0,.56.024,1.372,1.372,0,0,1,.257.514,2.286,2.286,0,0,1,.029.563c.665.205-.213-.367.428-.159a2.45,2.45,0,0,0,.257-.174c.54-.445.685-.448,1.38-.237.264.078.966,1.58,1.164,1.771.215.2.291.418.6.514a5.483,5.483,0,0,0,1.485.02,1.111,1.111,0,0,1,1.286.792,3.668,3.668,0,0,1,.245.939c2.752.978,7.13,2.6,10.513,4.134,1.167.448,2.461.942,3.693,1.4a3.149,3.149,0,0,1,1.005.017c.426.083.817.066,1.24.137a20.633,20.633,0,0,1,5.073,1.9,2.107,2.107,0,0,0,.487-.1l2.63,1.108,2.629.69s-.156-.078.722.225a15.437,15.437,0,0,1,2.832-.049,22.848,22.848,0,0,1,2.916.563c-1.37,1.539-1.839,2.192-1.986,2.282-.384.242-.78.47-1.176.69.186.8-.215.616-.45.753a3.1,3.1,0,0,1-.555.245c-.619.308-2.04,1.969-2.433,2.147-.4.423-.658,1.005-1.216,1.306a2.852,2.852,0,0,0-.629.487c-.252.208-.435,1-.712,1.181-.257.166-1.057.154-1.235.391-.205.269-.239.621-.421.9a2.622,2.622,0,0,1-.782.653c-.032.022-.057.056-.088.083l.193.472-.9,1.1c-.147.108-.4.164-.555.411-.294.477-.541.893-.746,1.252a.8.8,0,0,1-.144.015l-.438.284a3.022,3.022,0,0,0-.433,2.037c.1.753-.7,1.619-.088,1.5.672-.127-.467.191.21,0,.521-.147-.049.44.509.394.389-.252.734-.482,1.057-.7,0-.338-.105-.837.078-1.115.3-.455.744-.43,1.162-.648a2.949,2.949,0,0,0,.265-.232,3.959,3.959,0,0,0,.443-.276,4.692,4.692,0,0,0,.607-.766,7.122,7.122,0,0,1,.6-.7c.1-.1.318.186.382.064.078-.149.276-.281.328-.428.064-.191-.032-.411.022-.609.085-.32.443-.494.668-.692.264-.235.529.157.639-.154a2.381,2.381,0,0,1,.88-1.074c.31-.161.956-.159,1.1-.484a5.38,5.38,0,0,1,.785-1.142c.323-.416.7-.881,1.045-1.26a6.482,6.482,0,0,1,.89-1,2.941,2.941,0,0,1,1.274-.563c.289-.044-.014-.284.262-.421.5-.242,1.02-.4,1.5-.677a8.557,8.557,0,0,0,1.309-.9,1.167,1.167,0,0,0,.365-.675c.068-.247.125-.5.218-.744a5.493,5.493,0,0,1,.364-.585c.24-.448.724-.531,1.179-.658s1.189-.147,1.345-.722c.061-.213-.027-.438.027-.651a.385.385,0,0,1,.029-.066,1.342,1.342,0,0,1,.137-.01c.658,0,1.318,0,1.976,0a6.508,6.508,0,0,0,1.768-.149,19.771,19.771,0,0,1,2.042-.3,11.451,11.451,0,0,1,1.636-.144c.582-.01,1.152-.1,1.737-.1a17.58,17.58,0,0,0,1.849-.137,5.048,5.048,0,0,1,.785.374c.587.365.937-.122,1.678-.142l.213-.012c.342-.078.653-.294,1-.377a3.367,3.367,0,0,0,1-.33c.279-.166.668.643.9.5a2.365,2.365,0,0,1,.6-.149c.284-.076.553-.227.839-.289a1.941,1.941,0,0,1,1.12.139,2.36,2.36,0,0,1,.492.242,2.32,2.32,0,0,1,.249.24l.445-.117a1.354,1.354,0,0,1,.244-.619,1.572,1.572,0,0,1,1.137-.609c.426.051.724.325,1.177.152.364-.139.5-.426.9-.438a2.446,2.446,0,0,0,.629-.027c.252-.073.467-.328.729-.369.4-.064.859.235,1.272.264.269.022.516-.423.793-.43.824-.149,1.651-.276,2.48-.357.626-.059,1.206-.09,1.854-.2a1.574,1.574,0,0,1,.357-.049c0-.049-.017-.088,0-.144a.688.688,0,0,1,.477-.45,1.353,1.353,0,0,1,.484-.083,1.063,1.063,0,0,0,.264-.01c.233-.054.372-.254.6-.323a6.781,6.781,0,0,1,.86-.254,2.2,2.2,0,0,1,.335-.012c.108,0,.232.059.328.059a1.2,1.2,0,0,0,.587-.249,4.395,4.395,0,0,1,.854-.452,3.724,3.724,0,0,0,.636-.448,2.005,2.005,0,0,1,.629-.276,2.335,2.335,0,0,0,.8-.33c.2-.137.283-.342.464-.484a3.387,3.387,0,0,1,.8-.323,4.1,4.1,0,0,0,.624-.286c.377-.227.756-.4,1.15-.594.807-.394-.521.345.318.027.283-.108.531-.11.76-.34.2-.205.313-.411.607-.521a2.77,2.77,0,0,0,.8-.338c.227-.183.325-.421.641-.509a1.85,1.85,0,0,0,.8-.274c.171-.135.3-.306.479-.426.159-.105.342-.174.5-.274a2.645,2.645,0,0,0,.465-.426c.186-.193.433-.294.626-.477s.313-.384.479-.567c.078-.086.455-.868.837-1.631a9.438,9.438,0,0,1,1.064-1.223,16.939,16.939,0,0,0,.238-1.915c.054-.122,0-.316.025-.45a1.126,1.126,0,0,1,.076-.237C899.859,187.1,899.05,186.9,899.184,186.121ZM773.322,166.13l-.071.022c-.382.132-.746.254-1.086.364a3.48,3.48,0,0,1-.621.254,2.225,2.225,0,0,1-.4.054c-.3.083-.565.147-.78.186a1.462,1.462,0,0,1-.23.093c-.2.056-.4.02-.6.09a2.457,2.457,0,0,1-.67.235c-.21.01-.409.007-.607.012-.4.113-.8.232-1.2.357a1.5,1.5,0,0,1-.494.208.578.578,0,0,1-.159-.017c-.472.142-.942.259-1.411.36-.284.205-.455.144-.763.159l-.066.007a1.546,1.546,0,0,0-.582.193c-.252.139-.286.218-.572.132a1.675,1.675,0,0,0-.45-.135c-.159,0-.257.083-.4.088a1.042,1.042,0,0,1-.575-.179,2.074,2.074,0,0,1-1.042-.2c-.264-.027-.526-.068-.788-.12l-.02.017v-.022a5.178,5.178,0,0,1-1.734-.643c-.022-.007-.044-.01-.069-.02a2.015,2.015,0,0,1-.817-.633,69.842,69.842,0,0,1-6.1-5.8,4.111,4.111,0,0,0-.7-.521,2.9,2.9,0,0,1-.792-.646,5.618,5.618,0,0,1-1.018-1.1.842.842,0,0,1-.091-.25c-.443-.4-.892-.78-1.362-1.15-.514-.218-1.044-.565-1.509-.783-.135-.061-.264-.127-.4-.191l.005,0v0c.323-.1.653-.2.973-.306a11.027,11.027,0,0,0,2.289-1.081c.022,0,.027,0,.057,0,.266,0,.218-.1.391-.279a.788.788,0,0,1,.406-.225c.237-.076.272-.037.465-.284a4.037,4.037,0,0,0,.719-1.277,1.672,1.672,0,0,1,.949-.9c.108-.034.364-.044.455-.13.176-.164.056-.453.107-.665a1.142,1.142,0,0,1,.348-.533c.2-.2.318-.516.545-.682s.355-.171.5-.411a1.025,1.025,0,0,1,.374-.4,2.957,2.957,0,0,1,.352-.281,1.651,1.651,0,0,1,.562-.091,3.469,3.469,0,0,0,.793-.308,9.464,9.464,0,0,1,1.052-.269,4,4,0,0,0,.8-.132c.21-.115.269-.465.3-.685a1.337,1.337,0,0,0,0-.355l1.169-.572.2.051c.369.673.751,1.34,1.1,2.023a5.449,5.449,0,0,0,1.458,2.006.083.083,0,0,1,.022.1,2.732,2.732,0,0,0,.849,1.472.071.071,0,0,1,.022.1,1.825,1.825,0,0,0,.44,1.1c1.7,2.774,3.723,5.335,5.609,7.986h0c.526.682,1.3,1.11,1.874,1.744h0a14.276,14.276,0,0,0,2.231,1.974,4.366,4.366,0,0,0,.814.66.961.961,0,0,0,0,.208Zm10.307-3.921v.02l-.044,0Zm74.026-20.873c-.352.773-.108,1.548-1.01,1.984a1.522,1.522,0,0,1-1.793-.227.21.21,0,0,1,.2-.333l.11.024c.029,0,.044.029.066.044l1.786-.455a3.523,3.523,0,0,0,.127-.746c.1-.3-.025-.105.134-.452C857.381,140.93,857.765,141.091,857.655,141.336Zm-7.4-47.629c-.557.36-1.118.717-1.675,1.074C847.619,92.4,849.539,93.861,850.251,93.707Zm-6.178,48.15a14.626,14.626,0,0,0-1.341-1.764c-.249-.291-.589-.692-.648-.8a4.865,4.865,0,0,1,.34-3.818l2.348-1.377,9.561.034c2.394,1.36,3.3,2.889,2.967,5.029a4.1,4.1,0,0,0-1.38,2.417C852.076,142.537,848.226,142.231,844.073,141.857ZM704.061,190.3l1.121.4A9.462,9.462,0,0,1,704.061,190.3Zm84.172,33.922c0,.6-.017-1.04-.032-2.73C788.218,222.577,788.233,223.548,788.233,224.221Zm-1.5,11.491a.748.748,0,0,1-.022.105,1.017,1.017,0,0,1-.281.4C786.308,235.793,786.293,235.572,786.733,235.712Zm50.239-66.776.13.3a1.042,1.042,0,0,1-.159-.284Zm50.946,27.607c-.064,0-.122.015-.178.022l.017-.015,0,.007C887.931,196.413,887.938,196.457,887.918,196.543Zm4-3.816-.071.015c-.609.093-1.159-.249-1.761-.259a5,5,0,0,0-.765,0,4.464,4.464,0,0,0-1.38.6c-.621.34-.695,1.049-.973,1.636s-.768.624-1.36.7a2.725,2.725,0,0,0-1.805.678,1.261,1.261,0,0,0-.367.67c-.856.254-1.72.489-2.585.7.108-.183.151-.391-.2-.347a1.589,1.589,0,0,1-.82.377,3.163,3.163,0,0,0-.323.115.767.767,0,0,1-.284.1c-.462.183-.9.4-1.377.616a5.828,5.828,0,0,1-1.646.289,4.245,4.245,0,0,0-1.406.665,5.492,5.492,0,0,1-2.514.849,3.981,3.981,0,0,0-1.392.271,5.341,5.341,0,0,1-1.079.55c-.594.1-1.333-.335-1.918-.4a2.054,2.054,0,0,0-1.377.271,4.321,4.321,0,0,0-.8.568c-.264.249-.342.21-.707.125-.815-.193-1.441-.905-2.257-1.113a1.6,1.6,0,0,0-.949-.037c-.4.13-.8.264-1.2.391a3.728,3.728,0,0,1-2.365-.015c-.431-.144-.6-.374-1.042-.171-.345.156-.648.465-1.069.413-.358-.042-.553-.345-.949-.294a8.087,8.087,0,0,1-1.418.2,15.391,15.391,0,0,0-1.719-.286c-.284.027-.529.22-.824.235a7.075,7.075,0,0,0-1.184-.017,7.973,7.973,0,0,1-1.521.3c-.472.007-.912-.152-1.384-.152-.379,0-.773.042-1.155.01a11.116,11.116,0,0,0-1.49-.154,8.974,8.974,0,0,1-1.573.137,3.553,3.553,0,0,1-1.213-.416,2.623,2.623,0,0,0-.861-.161,8.372,8.372,0,0,0-1.46-.257,4.712,4.712,0,0,1-1.565-.21c-.56-.2-1.022-.572-1.587-.77s-1.128-.245-1.685-.406a12.8,12.8,0,0,0-1.619-.56,3.489,3.489,0,0,1-1.054-.227,4.069,4.069,0,0,0-.993-.369,12.165,12.165,0,0,1-2.642-1.02,4.952,4.952,0,0,0-1.663-.494c-.365-.024-.734.034-1.1.01a4.087,4.087,0,0,1-1.986-.785c-.387-.252-.817-.179-1.252-.3-.325-.091-.643-.227-.976-.291a5.48,5.48,0,0,0-1.115-.025,4.739,4.739,0,0,1-1.8-.433c-.426-.149-.778-.108-1.14-.4-.257-.205-.47-.484-.7-.714a.682.682,0,0,0-.555-.274c-.369-.029-.453-.154-.692-.452-.377-.465-.543-.445-1.1-.523a2.522,2.522,0,0,1-.834-.276c-.372-.2-.5-.484-.8-.753a5.684,5.684,0,0,0-1.062-.514c-.359-.193-.832-.452-.954-.876-.061-.218.049-.457-.039-.665-.12-.284-.553-.367-.785-.538-.01,0-.017,0-.029,0a11.847,11.847,0,0,1-1.719-.024,4.427,4.427,0,0,1-1.4-.47,3.2,3.2,0,0,1,.406-.347c.333-.22.729-.306,1.064-.541a5.5,5.5,0,0,1,1.785-1.152c.957-.245,1.5-.961,2.353-1.4a23.206,23.206,0,0,0,2.923-1.984c.687-.5,1.382-.866,2.1-1.294a11.825,11.825,0,0,1,1.918-.633,2.717,2.717,0,0,0,.685-.367,1.514,1.514,0,0,0,.061.567c.049.223.115.443.142.668a1.4,1.4,0,0,1,.044.543c-.022.086-.081.169-.1.259a1.822,1.822,0,0,1-.049.374,1.746,1.746,0,0,1-.1.3c-.083.139-.206.259-.289.4-.183.316-.3.665-.479.986a4.249,4.249,0,0,0-.237.536,1.606,1.606,0,0,1-.232.379c-.108.154-.218.455-.4.541-.11-.059-.176-.166-.291-.225a.692.692,0,0,0-.294-.078.594.594,0,0,0-.57.254.43.43,0,0,0-.061.347c.037.122.191.2.291.271a4.072,4.072,0,0,0,.8.467c.271.1.538.225.8.345s.555.22.824.342.533.3.8.438c.076.039.142.083.216.13.1.064.232.208.349.237.042-.054.037-.132.059-.2s.066-.137.09-.208c.039-.11.01-.21.041-.318.044-.157.167-.225-.007-.36-.132-.105-.244-.215-.369-.328-.142-.125-.213-.166-.215-.372a2.788,2.788,0,0,1,.012-.431c.015-.093.042-.181.064-.271.228-.516.6-1.3,1.11-2.348.061-.093.118-.188.184-.279a3.008,3.008,0,0,1,.788-.67c.438-.276.9-.5,1.353-.739.474-.252.934-.523,1.411-.766a6.786,6.786,0,0,1,1.137-.516,1.892,1.892,0,0,1,.477-.091c.156,0,.281-.049.435-.054.1,0,.2,0,.3,0,.064,0,.127-.007.189,0s.137.047.183.037c.142-.025.23-.254.315-.355.105-.12.293-.188.154-.355a1.337,1.337,0,0,0-.575-.274c-.25-.086-.482-.22-.729-.316a8.12,8.12,0,0,1-1.194-.66,3.408,3.408,0,0,0-.8-.435c-.125-.032-.262-.034-.386-.076-.029-.012-.066-.049-.1-.051-.1,0-.166.142-.2.218a.749.749,0,0,0-.054.159,1.319,1.319,0,0,0-.061.318c.007.039.11.117.142.147.1.1.225.132.323.218.059.054.039.093.071.164.051.11.174.183.09.3a.621.621,0,0,1-.164.115c-.171.108-.335.225-.506.333-.234.149-.457.32-.695.46-.21.125-.433.232-.636.369-.179.12-.379.218-.551.347a2.21,2.21,0,0,1-.242.183c-.117.066-.161.152-.264.227-.086-.1-.051-.264-.049-.389,0-.171,0-.342,0-.516s.01-.328,0-.489c-.005-.127-.047-.24-.059-.367-.017-.2.022-.4-.007-.592a1.784,1.784,0,0,0-.066-.33l.129-.105a24.039,24.039,0,0,0,2.747-2c.308-.291.553-.643.864-.932a3.66,3.66,0,0,1,1.123-.641c.922-.408,1.888-.724,2.823-1.106a13.342,13.342,0,0,0,2.243-1.338,51.665,51.665,0,0,0,15.593,2.708c4.3.017,8.255.34,12.555.526a37.487,37.487,0,0,0,12.717-1.639c1.049-.328,2.607-1.2,3.688-1.269,3.524-.223,3.693-.115,6.582-2.566a4.244,4.244,0,0,1,2.7-1.438,3.107,3.107,0,0,0,2.091-1.152c.641-1.438,1.079-.961,1.4-.149a1.2,1.2,0,0,0-.262.839c.083.4,1.279-.012,1.367.389.051.237-.051.333-.144.521-.174.352-.093.477.132.81a12.55,12.55,0,0,1,.787,1.969c.076.3.318.352.551.55.3.252.173,2.152.954,2.265a8.093,8.093,0,0,1,1.441,2.26,1.9,1.9,0,0,0-.061.988c.147.269,1.786,3.461,1.815,3.63.047.259-.105.5-.134.758a3.277,3.277,0,0,0,.276,1.927,12.081,12.081,0,0,1,.423,1.384c.13.32.308.467.1.773-.142.213-.489.386-.521.682-.046.408.426.528.639.788a1.353,1.353,0,0,1,.247.55C896.1,190.543,893.1,192.05,891.915,192.727Zm6.173-.161c.044-.073.191-.274.377-.521A5.908,5.908,0,0,1,898.088,192.566Zm.8-1.145a6.1,6.1,0,0,1,.763-1.316C899.781,190.064,899.341,190.758,898.893,191.421Z" transform="translate(-699.92 -59.539)"/>
      </g>
    </g>
  </g>
</svg>
